<svg preserveAspectRatio="none" fill="#FFFFFF" data-bbox="0.041 0 814.208 999.996" viewBox="0.041 0 814.208 999.996" xmlns="http://www.w3.org/2000/svg" data-type="shape" role="presentation" aria-hidden="true" aria-label="">
    <g>
        <path d="M680.03 531.27C681.44 682.6 812.79 733 814.25 733.6c-1.11 3.55-21 71.77-69.21 142.23-41.66 60.92-84.93 121.61-153.08 122.87-67 1.23-88.49-39.71-165-39.71s-100.45 38.45-163.83 40.94c-65.78 2.49-115.87-65.87-157.89-126.56-85.88-124.16-151.5-350.83-63.38-503.84 43.77-76 122-124.1 206.91-125.33 64.6-1.24 125.56 43.45 165 43.45s113.54-53.74 191.43-45.85c32.61 1.36 124.18 13.2 182.9 99.2-4.73 2.93-109.2 63.75-108.07 190.27m-125.84-371.6c34.93-42.28 58.43-101.12 52-159.67C555.87 2 495 33.54 458.9 75.79c-32.36 37.41-60.7 97.29-53 154.68 56.11 4.34 113.42-28.51 148.34-70.8"></path>
    </g>
</svg>