<svg width="152" height="35" xmlns="http://www.w3.org/2000/svg" fill="none">
 <defs>
  <clipPath id="clip0_2261_3852">
   <rect id="svg_1" fill="white" height="33.1688" width="150"/>
  </clipPath>
 </defs>
 <g>
  <title>Layer 1</title>
  <g id="svg_2" clip-path="url(#clip0_2261_3852)">
   <path id="svg_3" fill="#FCBF00" d="m46.0833,24.5653l-0.0553,0l0,1.5165c0,0.0806 -0.0324,0.1579 -0.0899,0.2149c-0.0576,0.057 -0.1357,0.089 -0.2171,0.089l-4.4021,0c-0.0815,0 -0.1595,-0.032 -0.2171,-0.089c-0.0576,-0.057 -0.09,-0.1343 -0.09,-0.2149l0,-19.10505c0,-0.0806 0.0324,-0.15789 0.09,-0.21489c0.0576,-0.05699 0.1356,-0.08901 0.2171,-0.08901l4.6494,0c0.0815,0 0.1596,0.03202 0.2172,0.08901c0.0575,0.057 0.0899,0.13429 0.0899,0.21489l0,6.80955l0.0833,0c1.0032,-1.2408 2.2559,-1.902 4.178,-1.902c3.816,0 6.0162,3.3629 6.0162,7.443c0,4.7969 -2.3116,7.526 -6.0719,7.526c-1.7791,0 -3.4507,-0.689 -4.3977,-2.288zm5.1249,-5.2931c0,-2.2055 -0.8637,-3.6112 -2.4511,-3.6112c-1.6154,0 -2.6756,1.5712 -2.6756,3.6112c0,2.0678 1.0584,3.6112 2.6756,3.6112c1.6173,0 2.4511,-1.4057 2.4511,-3.6112z"/>
   <path id="svg_4" fill="#FCBF00" d="m56.8353,19.3272c0,-4.2455 3.091,-7.4708 7.5756,-7.4708c2.2282,0 3.927,0.7168 5.2363,1.902c1.6642,1.5143 2.4748,3.8991 2.4814,6.5622c0,0.0806 -0.0324,0.1579 -0.09,0.2149c-0.0576,0.0569 -0.1357,0.089 -0.2171,0.089l-9.4485,0c-0.0468,-0.0001 -0.0931,0.0105 -0.1352,0.0308c-0.0421,0.0204 -0.0789,0.05 -0.1077,0.0866c-0.0287,0.0366 -0.0486,0.0793 -0.0581,0.1247c-0.0096,0.0454 -0.0085,0.0924 0.0032,0.1373c0.3684,1.4001 1.2395,2.2398 2.6997,2.2398c0.8536,0 1.4914,-0.3091 1.8897,-0.9052c0.0274,-0.043 0.0653,-0.0785 0.1101,-0.1033c0.0448,-0.0249 0.0951,-0.0383 0.1464,-0.0391l4.5179,0c0.0488,-0.0001 0.0969,0.0114 0.1403,0.0334c0.0435,0.022 0.0809,0.0539 0.1094,0.0931c0.0285,0.0392 0.0471,0.0846 0.0543,0.1324c0.0073,0.0477 0.0029,0.0965 -0.0127,0.1422c-0.4027,1.1253 -1.3361,2.2007 -2.5814,2.9896c-1.3093,0.8248 -2.7295,1.1856 -4.5398,1.1856c-4.6547,-0.0017 -7.7738,-3.1445 -7.7738,-7.4452zm5.5324,-1.4609l4.1547,0c0.0459,0.0001 0.0912,-0.01 0.1326,-0.0296c0.0414,-0.0195 0.0778,-0.048 0.1066,-0.0833c0.0289,-0.0353 0.0493,-0.0766 0.0599,-0.1207c0.0106,-0.0442 0.0111,-0.0902 0.0014,-0.1345c-0.3022,-1.3485 -1.1488,-2.1408 -2.3006,-2.1408c-1.3269,0 -2.116,0.8101 -2.4533,2.133c-0.011,0.0447 -0.0116,0.0914 -0.0017,0.1364c0.0098,0.045 0.0299,0.0873 0.0587,0.1235c0.0287,0.0362 0.0655,0.0655 0.1074,0.0856c0.0418,0.0201 0.0878,0.0305 0.1343,0.0304z"/>
   <path id="svg_5" fill="#494949" d="m78.0596,24.5653l-0.0561,0l0,1.5165c0,0.0806 -0.0324,0.1579 -0.0899,0.2149c-0.0576,0.057 -0.1357,0.089 -0.2171,0.089l-4.4017,0c-0.0814,0 -0.1595,-0.032 -0.2171,-0.089c-0.0576,-0.057 -0.0899,-0.1343 -0.0899,-0.2149l0,-19.10505c0,-0.0806 0.0323,-0.15789 0.0899,-0.21489c0.0576,-0.05699 0.1357,-0.08901 0.2171,-0.08901l4.6495,0c0.0814,0 0.1595,0.03202 0.2171,0.08901c0.0576,0.057 0.0899,0.13429 0.0899,0.21489l0,6.80955l0.0834,0c1.0027,-1.2408 2.2558,-1.902 4.1779,-1.902c3.816,0 6.0162,3.3629 6.0162,7.443c0,4.7969 -2.3116,7.526 -6.0719,7.526c-1.7795,0 -3.4507,-0.689 -4.3973,-2.288zm5.1245,-5.2931c0,-2.2055 -0.8636,-3.6112 -2.451,-3.6112c-1.6155,0 -2.6735,1.5712 -2.6735,3.6112c0,2.0678 1.058,3.6112 2.6735,3.6112c1.6154,0 2.451,-1.4057 2.451,-3.6112z"/>
   <path id="svg_6" fill="#494949" d="m97.8348,24.841l-0.0553,0c-0.947,1.2946 -2.451,1.9024 -4.2893,1.9024c-2.7296,0 -4.7371,-1.4609 -4.7371,-4.2181c0,-3.115 2.4234,-4.0246 5.1529,-4.3276c3.0077,-0.3308 3.8161,-0.6894 3.8161,-1.5716c0,-0.7715 -0.3623,-1.3511 -1.5041,-1.3511c-1.0527,0 -1.6308,0.5614 -1.8247,1.4466c-0.015,0.0669 -0.0527,0.1266 -0.1068,0.1694c-0.0541,0.0428 -0.1213,0.0661 -0.1905,0.0659l-4.3964,0c-0.0433,0.0003 -0.0861,-0.0086 -0.1257,-0.0259c-0.0396,-0.0172 -0.0751,-0.0426 -0.1041,-0.0744c-0.029,-0.0319 -0.0509,-0.0694 -0.0642,-0.1101c-0.0133,-0.0408 -0.0177,-0.0839 -0.013,-0.1265c0.268,-2.6296 2.4409,-4.7352 6.7162,-4.7352c2.1725,0 3.5652,0.2752 4.6512,0.9369c1.477,0.9117 2.201,2.3443 2.201,4.2177l0,7.0297c0,1.1856 0.083,1.8195 0.529,2.0952l0,0.2205l-4.9977,0c-0.0569,0.0004 -0.1127,-0.0151 -0.1611,-0.0446c-0.0485,-0.0294 -0.0876,-0.0717 -0.113,-0.1221c-0.1562,-0.3126 -0.2895,-0.7281 -0.3834,-1.3771zm0.0281,-3.5561l0,-0.7723c-0.0003,-0.0496 -0.0128,-0.0983 -0.0364,-0.1419c-0.0237,-0.0437 -0.0577,-0.0809 -0.0992,-0.1086c-0.0416,-0.0276 -0.0893,-0.0448 -0.139,-0.05c-0.0498,-0.0053 -0.1,0.0016 -0.1465,0.02c-0.5227,0.2031 -1.062,0.3616 -1.612,0.4737c-1.5321,0.3308 -2.0058,0.7719 -2.0058,1.5989c0,0.9373 0.7803,1.3506 1.6435,1.3506c1.2256,0 2.3954,-0.6889 2.3954,-2.3704z"/>
   <path id="svg_7" fill="#494949" d="m109.533,14.2552l0.084,0c1.14,-1.5434 2.59,-2.3704 4.568,-2.3704c3.286,0 4.985,2.1776 4.985,5.4029l0,8.7945c0,0.0806 -0.032,0.1579 -0.09,0.2149c-0.057,0.057 -0.136,0.089 -0.217,0.089l-4.651,0c-0.081,0 -0.159,-0.032 -0.217,-0.089c-0.057,-0.057 -0.09,-0.1343 -0.09,-0.2149l0,-7.5263c0,-1.4614 -0.614,-2.4261 -1.978,-2.4261c-1.336,0 -2.144,1.1579 -2.144,2.674l0,7.2784c0,0.0806 -0.032,0.1579 -0.089,0.2149c-0.058,0.057 -0.136,0.089 -0.218,0.089l-4.649,0c-0.081,0 -0.16,-0.032 -0.217,-0.089c-0.058,-0.057 -0.09,-0.1343 -0.09,-0.2149l0,-13.4533c0,-0.0806 0.032,-0.1579 0.09,-0.2149c0.057,-0.057 0.136,-0.089 0.217,-0.089l4.4,0c0.082,0 0.16,0.032 0.217,0.089c0.058,0.057 0.09,0.1343 0.09,0.2149l-0.001,1.6263z"/>
   <path id="svg_8" fill="#494949" d="m119.921,19.3829c0,-4.2729 3.12,-7.4708 7.798,-7.4708c3.864,0 6.487,2.1742 6.998,5.2666c0.008,0.0438 0.006,0.0887 -0.006,0.1316c-0.011,0.0429 -0.032,0.0828 -0.061,0.1168c-0.029,0.034 -0.065,0.0614 -0.106,0.0801c-0.04,0.0188 -0.085,0.0285 -0.129,0.0284l-4.475,0c-0.067,0.0004 -0.132,-0.021 -0.185,-0.061c-0.054,-0.0399 -0.092,-0.0962 -0.11,-0.16c-0.3,-1.1288 -0.906,-1.7635 -1.98,-1.7635c-1.615,0 -2.394,1.4609 -2.394,3.8318c0,2.3444 0.835,3.7771 2.45,3.7771c1.21,0 1.848,-0.762 2.034,-2.1929c0.01,-0.0723 0.046,-0.1386 0.101,-0.1866c0.056,-0.0479 0.127,-0.0741 0.201,-0.0739l4.48,0c0.042,-0.0001 0.084,0.0084 0.122,0.0249c0.039,0.0166 0.074,0.0408 0.103,0.0712c0.028,0.0304 0.051,0.0664 0.065,0.1056c0.014,0.0393 0.02,0.081 0.017,0.1226c-0.173,3.3126 -2.994,5.7959 -7.122,5.7959c-4.68,-0.0005 -7.801,-3.171 -7.801,-7.4439z"/>
   <path id="svg_9" fill="#494949" d="m144.349,24.841l-0.055,0c-0.947,1.2946 -2.451,1.9024 -4.29,1.9024c-2.729,0 -4.734,-1.4609 -4.734,-4.2181c0,-3.115 2.423,-4.0246 5.152,-4.3276c3.008,-0.3308 3.816,-0.6894 3.816,-1.5716c0,-0.7715 -0.362,-1.3511 -1.504,-1.3511c-1.053,0 -1.631,0.5614 -1.825,1.4466c-0.015,0.0669 -0.052,0.1266 -0.106,0.1694c-0.055,0.0428 -0.122,0.0661 -0.191,0.0659l-4.4,0c-0.044,0.0003 -0.086,-0.0086 -0.126,-0.0259c-0.04,-0.0172 -0.075,-0.0426 -0.104,-0.0744c-0.029,-0.0319 -0.051,-0.0694 -0.064,-0.1101c-0.014,-0.0408 -0.018,-0.0839 -0.013,-0.1265c0.268,-2.6296 2.441,-4.7352 6.716,-4.7352c2.172,0 3.565,0.2752 4.649,0.9369c1.477,0.9117 2.201,2.3443 2.201,4.2177l0,7.0297c0,1.1856 0.083,1.8195 0.529,2.0952l0,0.2205l-4.993,0c-0.057,0.0004 -0.113,-0.0151 -0.162,-0.0446c-0.048,-0.0294 -0.087,-0.0717 -0.113,-0.1221c-0.156,-0.3126 -0.289,-0.7281 -0.383,-1.3771zm0.028,-3.5561l0,-0.7723c0,-0.0494 -0.012,-0.098 -0.036,-0.1416c-0.023,-0.0435 -0.057,-0.0808 -0.099,-0.1085c-0.041,-0.0277 -0.088,-0.045 -0.138,-0.0505c-0.05,-0.0054 -0.1,0.0012 -0.146,0.0192c-0.523,0.2031 -1.062,0.3616 -1.612,0.4737c-1.532,0.3308 -2.006,0.7719 -2.006,1.5989c0,0.9374 0.78,1.3507 1.644,1.3507c1.223,0.0008 2.393,-0.6881 2.393,-2.3696z"/>
   <path id="svg_10" fill="#FCBF00" d="m31.5931,29.4998l0,-0.1059c0,-0.0191 0,-0.0382 0,-0.0573c0,-0.0191 0,-0.0382 0,-0.0578l0,-18.6804l-0.0057,-8.48367l0,-0.38379c0,-0.34299 -0.1029,-0.67825 -0.2957,-0.96325c-0.1928,-0.28499 -0.4669,-0.50686 -0.7873,-0.63745c-0.1751,-0.08451 -0.3671,-0.12902 -0.5619,-0.13024l-28.2972,0c-0.19508,0.00116 -0.3874,0.04567 -0.56276,0.13024c-0.32028,0.13076 -0.59414,0.35268 -0.78686,0.63764c-0.19271,0.28497 -0.29562,0.62015 -0.29568,0.96306c0.00004,0.05612 0.00296,0.1122 0.00877,0.16802c-0.0057,0.0712 -0.00877,0.14153 -0.00877,0.21577l0,27.22097c-0.0004,0.5032 0.09939,1.0016 0.29367,1.4666c0.19429,0.4651 0.47926,0.8876 0.83862,1.2436c0.35936,0.356 0.78608,0.6384 1.25576,0.831c0.46968,0.1927 0.97311,0.2919 1.48153,0.2919l31.58472,0c-0.9975,-0.0004 -1.9562,-0.3824 -2.6758,-1.0662c-0.7196,-0.6837 -1.1443,-1.6163 -1.1854,-2.6028z"/>
   <path id="svg_11" fill="white" d="m26.7717,17.3594l-21.88101,0c-0.01042,0 -0.01886,0.0083 -0.01886,0.0186l0,11.1168c0,0.0103 0.00844,0.0187 0.01886,0.0187l21.88101,0c0.0104,0 0.0188,-0.0084 0.0188,-0.0187l0,-11.1168c0,-0.0103 -0.0084,-0.0186 -0.0188,-0.0186z"/>
   <path id="svg_12" fill="white" d="m26.7765,11.958l-21.89064,0c-0.00775,0 -0.01403,0.0062 -0.01403,0.0139l0,3.6625c0,0.0076 0.00628,0.0138 0.01403,0.0138l21.89064,0c0.0077,0 0.014,-0.0062 0.014,-0.0138l0,-3.6625c0,-0.0077 -0.0063,-0.0139 -0.014,-0.0139z"/>
   <path id="svg_13" fill="white" d="m14.462,5.7793l-9.57614,0c-0.00775,0 -0.01403,0.00622 -0.01403,0.01389l0,4.31411c0,0.0077 0.00628,0.0139 0.01403,0.0139l9.57614,0c0.0078,0 0.014,-0.0062 0.014,-0.0139l0,-4.31411c0,-0.00767 -0.0062,-0.01389 -0.014,-0.01389z"/>
   <path id="svg_14" fill="white" d="m22.1761,8.18436l0,-2.33441c0,-0.13024 0.0922,-0.18147 0.2044,-0.11722l1.6339,0.93385l0.4093,0.23357l1.6334,0.93342c0.1128,0.06469 0.1128,0.16975 0,0.234l-1.6334,0.93342l-0.4093,0.234l-1.6339,0.93341c-0.1122,0.0643 -0.2044,0.0117 -0.2044,-0.1168l0,-1.86724z"/>
  </g>
 </g>
</svg>