<svg preserveAspectRatio="xMidYMid meet" data-bbox="0.004 -0.007 454.929 543.539" viewBox="0.004 -0.007 454.929 543.539" xmlns="http://www.w3.org/2000/svg" data-type="color" role="presentation" aria-hidden="true" aria-label="">
    <g>
        <path d="M404.44 57.81 286.95 27.25c-10.71-2.79-21.94-1.65-32.09 3.17L179 81.63c-5.62 5.63-9.99 12.55-12.75 20.25l-49.44 189.23c-8.15 31.33 8.94 62.99 38.09 70.57l159.71 41.54c29.15 7.58 59.5-11.74 67.65-43.07l60.28-231.77c8.15-31.33-8.94-62.99-38.1-70.57Z" fill="#055542" data-color="1"></path>
        <path d="M179.04 150.88 63.42 187.9C52.88 191.27 44 198.24 38 207.74L1.29 291.58c-1.73 7.76-1.72 15.95.06 23.92l59.43 186.34c9.87 30.83 41.24 48.44 69.93 39.26l157.16-50.32c28.69-9.19 44-41.74 34.13-72.57l-73.02-228.07c-9.87-30.83-41.24-48.44-69.93-39.26Z" fill="#055542" data-color="1"></path>
        <path d="M414.81 32.05 297.31 1.49C286.6-1.3 275.37-.16 265.22 4.66l-75.86 51.21c-5.62 5.63-9.99 12.55-12.75 20.25l-49.44 189.23c-8.15 31.33 8.94 62.99 38.09 70.57l159.71 41.54c29.15 7.58 59.5-11.74 67.65-43.07l60.28-231.77c8.15-31.33-8.94-62.99-38.1-70.57Z" fill="#ffffff" data-color="2"></path>
        <path d="M409.68 51.77 292.25 21.23c-.02 0-.04-.01-.06-.02-7.18-1.87-14.51-.51-20.75 3.21-.85.56-1.69 1.12-2.51 1.67-.2.14-.4.28-.59.43-.01 0-.03 0-.04-.01-21.74 14.47-37.66 25.06-59.8 39.79 0 .02 0 .04-.01.07-.02.01-.04.02-.05.03-6.6 4.49-11.18 11.29-13.34 18.78l-.52 1.98c-.12.52-.23 1.04-.32 1.57-.03.02-.07.04-.1.06l-5.18 19.92-42.07 161.75c-5.33 20.49 5.19 40.96 23.5 45.72l159.71 41.54c18.31 4.76 37.47-7.99 42.8-28.48l16.21-62.32L433.2 97.48c5.33-20.49-5.19-40.96-23.5-45.72Z" fill="#009373" data-color="3"></path>
        <path d="m258.95 169.66-30.97-8.06c-9.04-2.35-18.26 3.08-20.61 12.13l-8.47 32.58 47.33 12.31 12.73-48.96Z" fill="#ffffff" data-color="2"></path>
        <path d="m310.29 224.84 10.19-39.18-48.38-12.58-12.73 48.96 38.6 10.04c5.39 1.4 10.92-1.85 12.32-7.24Z" fill="#ffffff" data-color="2"></path>
        <path d="M183.08 267.13c-2.35 9.04 3.05 18.28 12.09 20.63l12.57 3.27 9.16-35.23-28.92-7.52-4.9 18.85Z" fill="#ffffff" data-color="2"></path>
        <path fill="#ffffff" d="m230.053 259.221 41.78 10.867-9.163 35.228-41.78-10.867 9.163-35.228z" data-color="2"></path>
        <path d="m305.46 278.83-20.48-5.33-9.16 35.23 30.26 7.87 6.62-25.45c1.4-5.39-1.85-10.92-7.24-12.32Z" fill="#ffffff" data-color="2"></path>
        <path d="m355.13 194.68-21.51-5.59-10.19 39.18c-3.29 12.65-16.24 20.25-28.89 16.96l-99.07-25.77-4.08 15.67 117.48 30.55c12.65 3.29 20.25 16.24 16.96 28.89l-6.62 25.45 3.1.81c9.04 2.35 18.26-3.08 20.61-12.13l24.29-93.39c2.35-9.04-3.05-18.28-12.09-20.63Z" fill="#ffffff" data-color="2"></path>
        <path d="M189.41 125.13 73.79 162.15c-10.54 3.37-19.42 10.34-25.42 19.84l-36.72 83.84c-1.73 7.76-1.72 15.95.06 23.92l59.43 186.34c9.87 30.83 41.24 48.44 69.93 39.26l157.16-50.32c28.69-9.19 44-41.74 34.13-72.57l-73.02-228.07c-9.87-30.83-41.24-48.44-69.93-39.26Z" fill="#ffffff" data-color="2"></path>
        <path d="m195.63 144.53-115.56 37c-.02 0-.04.01-.06.02-7.07 2.26-12.54 7.33-15.82 13.81-.41.93-.82 1.85-1.23 2.76-.09.23-.18.45-.27.68-.01 0-.03 0-.04.01-10.63 23.85-18.42 41.31-29.25 65.6 0 .02.02.04.03.06 0 .02-.02.04-.03.06-3.18 7.33-3.41 15.52-1.23 23l.63 1.95c.18.5.36 1 .56 1.5-.02.04-.03.07-.05.11l6.28 19.61 50.96 159.17c6.46 20.16 26.3 31.83 44.31 26.06l157.16-50.32c18.02-5.77 27.39-26.79 20.94-46.95l-19.64-61.33-53.38-166.74c-6.46-20.16-26.3-31.83-44.31-26.06Z" fill="#055542" data-color="1"></path>
        <path d="m131.32 324.76-30.48 9.76c-8.9 2.85-13.78 12.37-10.93 21.27l10.26 32.06 46.57-14.91-15.42-48.18Z" fill="#ffffff" data-color="2"></path>
        <path d="M197.67 356.63c5.3-1.7 8.24-7.4 6.54-12.71l-12.34-38.55-47.61 15.24 15.42 48.18 37.98-12.16Z" fill="#ffffff" data-color="2"></path>
        <path d="m113.39 429.14 5.94 18.55c2.85 8.9 12.35 13.82 21.25 10.97l12.37-3.96-11.1-34.67-28.46 9.11Z" fill="#ffffff" data-color="2"></path>
        <path fill="#ffffff" d="m195.88 402.748 11.097 34.667-41.115 13.161-11.097-34.667 41.115-13.161z" data-color="2"></path>
        <path d="m229 392.13-20.16 6.45 11.1 34.67 29.78-9.54-8.02-25.05c-1.7-5.3-7.4-8.24-12.71-6.54Z" fill="#ffffff" data-color="2"></path>
        <path d="m276.65 397.32-29.43-91.9c-2.85-8.9-12.35-13.82-21.25-10.97l-21.16 6.78 12.34 38.55c3.98 12.45-2.89 25.8-15.34 29.79l-97.49 31.21 4.94 15.42 115.6-37.01c12.45-3.98 25.8 2.89 29.79 15.34l8.02 25.05 3.05-.98c8.9-2.85 13.78-12.37 10.93-21.27Z" fill="#ffffff" data-color="2"></path>
    </g>
</svg>