<svg xmlns="http://www.w3.org/2000/svg" aria-hidden="true" data-bbox="118.832 454.9 842.568 170.5" data-type="color" viewBox="118.832 454.9 842.568 170.5"><path fill="#045441" d="M556.5 597.3c-12.7 0-22.2-3.5-28.3-9.3 20.9-11.5 42.3-23.1 46.2-25.3 16.5-9.1 23.8-19.2 23.8-36s-3.1-31.1-47.7-31.1-63.7 50.2-63.7 73.3.4 7.3 1.1 10.8c-12.2 6.9-21.1 11.9-21.1 11.9-7.7 4.3-11.3 5.7-14.4 5.7-7.4 0-10.1-5.9-8.9-12.4l10.7-60.3h35.6l5.1-27.9h-35.8l4.9-27.9h-33.5l-4.9 27.9h-66c-29.6 0-44 19.8-44 40s4.9 20.7 18 28.6l29.5 17.8c2.6 1.6 4 4.7 3.5 7.7-.7 3.8-4 6.6-7.9 6.6H266c-12.7 0-22.2-3.5-28.3-9.3 20.9-11.5 42.3-23.1 46.2-25.3 16.5-9.1 23.8-19.2 23.8-36s-3.1-31.1-47.7-31.1-63.7 50.2-63.7 73.3.4 7.3 1.1 10.8c-12.2 6.9-21.1 11.9-21.1 11.9-7.7 4.3-11.3 5.7-14.4 5.7-7.4 0-10.1-5.9-8.9-12.4l23-130.1h-33.5l-23.1 130.9c-3.6 20.6 10.2 39.6 33.2 39.6s24.9-4.3 41.6-13.4c0 0 6-3.3 14.9-8.1 11 13 28.6 21.5 51 21.5H354c33.3 0 47.9-21.2 47.9-39.1s-6.5-21.5-19.6-29.4L353 539.2c-2.7-1.7-4.2-4.8-3.6-8 .7-3.7 3.9-6.4 7.6-6.4h63.9l-10.8 61c-3.6 20.6 10.2 39.6 33.2 39.6s24.9-4.3 41.6-13.4c0 0 6-3.3 14.9-8.1 11 13 28.6 21.5 51 21.5h43l4.9-27.9h-41.8Zm-299.4-73.8c13.8 0 16.8 4.2 16.8 7.7s-2.3 6.4-10.1 10.8c-2.7 1.5-17.3 9.8-33.8 19.1 1.2-16.3 6.7-37.6 27.2-37.6Zm290.7 0c13.8 0 16.8 4.2 16.8 7.7s-2.3 6.4-10.1 10.8c-2.7 1.5-17.3 9.8-33.8 19.1 1.2-16.3 6.7-37.6 27.2-37.6Z" data-color="1"/><path fill="#009373" d="M645.8 561.1c0-24.7 12.7-38.4 32.4-38.4s22 5.5 27.4 17.2l-13.7 7.1c-1.9-6.1-5.8-10.2-13.6-10.2s-15.5 6.3-15.5 17.8v11.7c0 11.5 6.2 17.8 15.5 17.8s12.4-4.9 14.6-10.9l13 7.5c-5.5 11.1-14.2 17.5-27.6 17.5-19.7 0-32.4-12.6-32.4-37.3ZM716.8 597.2V524h15.9v59h27.9v14.2zM784 524v44.9c0 10.3 3.8 15.4 13.2 15.4s13.2-5.1 13.2-15.4V524h15.5v43.2c0 21.6-7.8 31.2-28.7 31.2s-28.7-9.6-28.7-31.2V524zM841.7 524h35.5c12.1 0 19.3 7.4 19.3 18.8s-6.2 15.4-13.6 15.7v.6c6.9 0 16.5 4.6 16.5 17.2s-8.1 20.9-18.9 20.9h-38.8zm15.9 30h15.8c4.2 0 6.7-2.5 6.7-6.7v-3.1c0-4.2-2.5-6.7-6.7-6.7h-15.8v16.6Zm0 29.8h18.3c4.2 0 6.8-2.4 6.8-6.6v-3.6c0-4.2-2.6-6.6-6.8-6.6h-18.3zM911.6 597.2V524h49.8v14.2h-33.9v15h29v14h-29V583h33.9v14.2z" data-color="2"/></svg>