<svg data-bbox="-0.03 -0.01 225.76 225.74" width="16px" height="16px" viewBox="0 0 225.73 225.74" fill="#fff" xmlns="http://www.w3.org/2000/svg" data-type="shape">
    <g>
        <path d="M0 195.74V46.73c3.44-18.14 16.57-29.4 35.03-30.44 24.67-1.38 50.62 1.09 75.42 0 2.44-.11 6.17 1.83 6.72 4.3.51 2.25.46 16.75.06 19.28-.32 2.05-2.03 3.77-3.93 4.45l-77.82.21c-3.83.16-6.92 2.42-7.3 6.36v140.68c.08 2.67 2.06 4.78 4.42 5.72l142.21.23c4.16-.4 6.33-3.77 6.39-7.72v-73.18c.53-1.95 2.08-3.8 4.03-4.36 2.32-.66 16.32-.64 18.99-.19 3.5.59 5.22 3.81 5.19 7.15-.97 23.4 1.22 47.73 0 71.02-1 19.1-12.74 33.05-31.97 35.49l-146.77-.07c-14.72-1.35-29.11-15.13-30.7-29.92Z"></path>
        <path d="M221.75 0c2.05 1.29 3.66 2.42 3.98 5.06l-.22 66.37c-.68 1.9-2.4 3.61-4.45 3.93-3.26.5-14.67.45-18.06.04-2.48-.3-5.5-2.99-5.5-5.52V48.5l-81.11 80.9c-3.24 2.55-5.74 2.87-9.05.23-2.03-1.62-10.86-10.31-12.04-12.21-1.52-2.45-1.29-5.03.44-7.35l81.48-81.86h-21.38c-2.61 0-5.22-2.96-5.51-5.51-.4-3.51-.49-14.69.03-18.05.36-2.35 2.14-3.49 3.94-4.66h67.45Z"></path>
    </g>
</svg>