<svg preserveAspectRatio="xMidYMid meet" data-bbox="-0.003 0 284.048 362.67" viewBox="-0.003 0 284.048 362.67" xmlns="http://www.w3.org/2000/svg" data-type="color" role="presentation" aria-hidden="true" aria-label=""><defs><style>#comp-m896s9zr svg [data-color="1"] {fill: #009373;}</style></defs>
    <g>
        <path d="M282.4 121.64C272.63 51.42 213.52.45 142.43 0c-8.09.65-16.29.63-24.24 2.06C49.7 14.35 3.69 68.29.2 137.4c-1.93 38.26 9.92 72.65 34.26 102.4 31.29 38.24 103.16 122.85 107.55 122.87s76.3-84.43 107.47-122.77c28.09-34.55 39.04-74.25 32.92-118.27Zm-140.62 73.71c-30.6-.16-55.55-25.34-55.44-55.97.11-30.56 25.31-55.53 55.94-55.44 30.57.1 55.53 25.28 55.45 55.94-.08 30.5-25.42 55.62-55.95 55.46Z" fill="#009373" data-color="1"></path>
    </g>
</svg>