<!DOCTYPE svg PUBLIC "-//W3C//DTD SVG 1.1//EN" "http://www.w3.org/Graphics/SVG/1.1/DTD/svg11.dtd">
<!-- Uploaded to: SVG Repo, www.svgrepo.com, Transformed by: SVG Repo Mixer Tools -->
<svg width="64px" height="64px" viewBox="-2.4 -2.4 28.80 28.80" id="Layer_1" data-name="Layer 1" xmlns="http://www.w3.org/2000/svg" fill="#009373" stroke="#009373">
<g id="SVGRepo_bgCarrier" stroke-width="0"/>
<g id="SVGRepo_tracerCarrier" stroke-linecap="round" stroke-linejoin="round" stroke="#009373" stroke-width="4.8">
<defs>
<style>.cls-1{fill:none;stroke:#009373;stroke-miterlimit:10;stroke-width:1.91px;}</style>
</defs>
<path class="cls-1" d="M15.82,13.05A4.87,4.87,0,1,1,11,8.18,4.86,4.86,0,0,1,15.82,13.05Z"/>
<path class="cls-1" d="M11.05,3.41A9.54,9.54,0,1,0,20.59,13"/>
<path class="cls-1" d="M15.81,13H22.5A11.45,11.45,0,0,0,11.05,1.5V8.19"/>
<line class="cls-1" x1="17.79" y1="19.7" x2="14.49" y2="16.4"/>
</g>
<g id="SVGRepo_iconCarrier">
<defs>
<style>.cls-1{fill:none;stroke:#009373;stroke-miterlimit:10;stroke-width:2.4;}</style>
</defs>
<path class="cls-1" d="M15.82,13.05A4.87,4.87,0,1,1,11,8.18,4.86,4.86,0,0,1,15.82,13.05Z"/>
<path class="cls-1" d="M11.05,3.41A9.54,9.54,0,1,0,20.59,13"/>
<path class="cls-1" d="M15.81,13H22.5A11.45,11.45,0,0,0,11.05,1.5V8.19"/>
<line class="cls-1" x1="17.79" y1="19.7" x2="14.49" y2="16.4"/>
</g>
</svg>