<svg preserveAspectRatio="xMidYMid meet" data-bbox="0.001 0 39.517 50.47" viewBox="0.001 0 39.517 50.47" xmlns="http://www.w3.org/2000/svg" data-type="color" role="presentation" aria-hidden="true" aria-label="">
        <g>
                <path d="M39.29 16.92C37.93 7.15 29.71.06 19.82 0c-1.13.09-2.27.09-3.37.29C6.92 2 .51 9.5.03 19.12c-.27 5.32 1.38 10.11 4.77 14.25 4.35 5.32 14.35 17.09 14.96 17.1.61 0 10.62-11.75 14.95-17.08 3.91-4.81 5.43-10.33 4.58-16.46ZM19.73 27.18c-4.26-.02-7.73-3.53-7.71-7.79.02-4.25 3.52-7.73 7.78-7.71 4.25.01 7.73 3.52 7.72 7.78-.01 4.24-3.54 7.74-7.78 7.72Z" fill="#009473" data-color="1"></path>
        </g>
</svg>