<svg preserveAspectRatio="none" fill="#FFFFFF" data-bbox="107 43.01 344.175 425.99" viewBox="107 43.01 344.175 425.99" xmlns="http://www.w3.org/2000/svg" data-type="shape" role="presentation" aria-hidden="true" aria-label="">
    <g>
        <path d="M107 453V59l196.93 196.64z"></path>
        <path d="M369 191.01c.41 1.51-.41 1.66-.98 2.5-5.22 7.6-19.42 18.66-26.54 25.46-4.07 3.89-17.19 18.89-20.48 20.59-.77.4-1.23.67-1.98 0L123 43.01l10.27.22z"></path>
        <path d="M369 320.99 133.28 468.78l-10.27.22 196.01-196.55c.75-.67 1.21-.4 1.98 0 3.29 1.69 16.41 16.7 20.48 20.59 7.12 6.8 21.32 17.86 26.54 25.46.58.84 1.39.99.98 2.5Z"></path>
        <path d="M386.71 204.13c1.1-.29 2.07.06 2.99.63 15.5 11.98 36.84 21.19 51.8 33.24 12.89 10.39 12.91 25.66 0 36l-54.02 33.99-51.4-51.62 50.64-52.23Z"></path>
    </g>
</svg>