<svg preserveAspectRatio="xMidYMid meet" data-bbox="11.197 11.373 105.809 105.342" xmlns="http://www.w3.org/2000/svg" viewBox="11.197 11.373 105.809 105.342" height="128" width="128" data-type="color" role="presentation" aria-hidden="true" aria-label="">
    <g>
        <g clip-path="url(#a32311a2-1883-4182-a282-0dd5b33e9c7a_comp-m4aava83)">
            <path fill="#005542" d="M86.476 19.49a17.92 17.92 0 0 0 11.293 7.729c9.675 2.049 15.852 11.514 13.814 21.134a17.74 17.74 0 0 0 2.521 13.406c5.392 8.25 3.052 19.295-5.222 24.65a17.76 17.76 0 0 0-7.739 11.231c-2.04 9.631-11.534 15.765-21.198 13.718a17.9 17.9 0 0 0-13.457 2.486c-8.274 5.354-19.37 3.004-24.761-5.246a17.92 17.92 0 0 0-11.294-7.728c-9.675-2.05-15.852-11.514-13.814-21.135.979-4.62.075-9.449-2.52-13.406-5.393-8.249-3.053-19.294 5.22-24.649a17.76 17.76 0 0 0 7.74-11.232c2.04-9.63 11.534-15.765 21.198-13.718 4.642.983 9.489.092 13.457-2.485 8.274-5.355 19.37-3.004 24.762 5.245" data-color="1"></path>
            <path fill="#ffffff" d="M85.153 76.824a11.8 11.8 0 0 0-1.882-4.381c-.932-1.326-2.131-2.46-3.606-3.415-1.466-.943-3.168-1.63-5.098-2.04-1.931-.408-3.776-.472-5.51-.207-.492.076-.99.184-1.46.31l17.867-19.127c1.762-1.894.78-4.968-1.757-5.505l-3.71-.786a3.35 3.35 0 0 0-3.132.984l-7.403 7.93c.137-1.234.084-2.43-.156-3.598a11.8 11.8 0 0 0-1.885-4.37c-.931-1.325-2.13-2.46-3.594-3.413s-3.18-1.632-5.11-2.04c-1.93-.41-3.773-.484-5.498-.206-1.725.277-3.291.825-4.67 1.661a11.4 11.4 0 0 0-3.484 3.233c-.948 1.322-1.597 2.832-1.954 4.516-.356 1.685-.376 3.328-.042 4.91.32 1.59.95 3.056 1.871 4.379q1.399 1.986 3.595 3.412c1.466.943 3.179 1.633 5.11 2.042 1.93.409 3.775.472 5.497.205.129-.017.257-.035.38-.077L42.03 79.986c-1.761 1.894-.78 4.967 1.757 5.505l3.71.786a3.35 3.35 0 0 0 3.132-.984l8.283-8.873c-.32 1.614-.32 3.17-.008 4.692.32 1.59.963 3.047 1.874 4.368.931 1.325 2.128 2.47 3.595 3.412 1.474.956 3.178 1.633 5.12 2.044 1.941.411 3.762.481 5.487.204 1.733-.265 3.291-.826 4.68-1.66a11.8 11.8 0 0 0 3.496-3.23 12.1 12.1 0 0 0 1.954-4.517c.356-1.684.365-3.33.042-4.91m-27.191-24.96c-.738.486-1.56.628-2.45.44-.89-.189-1.585-.652-2.062-1.396a3.15 3.15 0 0 1-.446-2.441c.188-.886.654-1.588 1.4-2.062a3.18 3.18 0 0 1 2.45-.44c.89.19 1.593.665 2.062 1.396.488.747.634 1.556.444 2.452s-.652 1.577-1.398 2.05M73.82 81.699a3.15 3.15 0 0 1-2.453.45c-.89-.188-1.593-.664-2.07-1.408-.48-.733-.636-1.545-.446-2.441s.662-1.575 1.398-2.05c.748-.485 1.56-.629 2.46-.438.901.19 1.585.652 2.062 1.396a3.15 3.15 0 0 1 .447 2.44c-.188.886-.665 1.586-1.398 2.051" data-color="2"></path>
        </g>
        <defs fill="none">
            <clipPath id="a32311a2-1883-4182-a282-0dd5b33e9c7a_comp-m4aava83">
                <path fill="#ffffff" d="m127.71 22.888-22.153 104.578L.5 105.213 22.654.634z"></path>
            </clipPath>
        </defs>
    </g>
</svg>