<svg preserveAspectRatio="xMidYMid meet" data-bbox="13.647 13.748 255.88 254.707" xmlns="http://www.w3.org/2000/svg" viewBox="13.647 13.748 255.88 254.707" height="282" width="283" data-type="color" role="presentation" aria-hidden="true" aria-label="">
    <g>
        <path fill="#C3E02F" d="M113.535 21.843a44.17 44.17 0 0 0 33.495-3.058c21.463-11.25 48.067-3.02 59.376 18.375a43.93 43.93 0 0 0 25.881 21.433c23.18 7.175 36.172 31.697 29.013 54.793a43.7 43.7 0 0 0 3.132 33.36c11.336 21.393 3.122 47.87-18.345 59.093a43.6 43.6 0 0 0-21.476 25.732c-7.162 23.069-31.765 35.962-54.972 28.791a44.17 44.17 0 0 0-33.495 3.057c-21.463 11.25-48.067 3.021-59.376-18.375a43.93 43.93 0 0 0-25.881-21.433c-23.18-7.175-36.172-31.697-29.013-54.793a43.7 43.7 0 0 0-3.132-33.36c-11.336-21.393-3.122-47.87 18.344-59.092a43.6 43.6 0 0 0 21.477-25.733c7.159-23.096 31.761-35.988 54.972-28.79" data-color="1"></path>
        <g clip-path="url(#36108cc5-6704-4152-b62c-97a8b07fff7e_comp-m4aau17d)">
            <path fill="#ffffff" d="M196.602 106.945c-.792-.194-3.058-.61-3.742-.525l-6.254.77c6.592-10.843 3.66-24.59-7.201-31.381-3.61-2.26-7.498-3.144-11.705-3.473l-8.168 1.006c-2.979.984-5.934 1.975-8.708 3.455-7.274 3.883-11.073 9.057-14.397 16.355-.078.17.076.481-.401.383-.202-.043-2.046-2.684-2.555-3.23-5.377-5.786-12.026-9.207-19.904-10.254-1.687-.224-3.41-.161-5.09-.424l-8.168 1.005-3.461 1.33c-14.808 6.47-17.837 25.932-6.22 37.042l-6.253.77c-.684.085-2.778 1.037-3.497 1.417-3.814 2.009-5.75 5.714-6.358 9.866l2.146 17.035c1.78 4.176 4.969 6.851 9.32 8.063l5.837 46.501c1.08 5.472 5.69 9.144 11.104 9.852l94.956-11.69c5.072-2 8.628-6.675 8.321-12.243l-5.877-46.496c3.889-2.213 6.347-5.63 7.036-10.076l-2.146-17.035c-1.615-3.875-4.414-7.001-8.61-8.023zm-34.178-25.968c10.172-1.895 19.26 2.553 19.765 13.725.249 5.51-4.755 13.614-10.519 14.324l-29.227 3.597c-2.642-14.802 4.417-28.749 19.979-31.648zm-54.855 6.753c15.823-.964 26.098 10.84 27.219 25.838l-29.227 3.598c-5.75.708-12.625-5.941-13.75-11.336-2.282-10.953 5.425-17.469 15.756-18.097zm-19.32 60.744c-1.274.157-3.206-1.421-3.752-2.58-.823-1.758-2.08-11.866-1.984-14.026.072-1.592 1.415-4.035 3.108-4.243l33.566-4.132 2.626 20.849zm44.856 52.573-28.972 3.566c-1.299.16-4.183-1.315-4.356-2.691l-5.813-46.148 32.928-4.053zm24.76-3.048-16.847 2.074-6.213-49.326 16.847-2.074zm-3.121-57.711-25.015 3.08-2.627-20.849 25.016-3.08zm43.562 49.505c.174 1.375-2.257 3.505-3.556 3.665l-28.972 3.567-6.213-49.326 32.929-4.054zm.914-58.021c-.238 1.255-1.723 3.253-2.997 3.41l-33.566 4.132-2.626-20.849 33.566-4.132c1.693-.208 3.601 1.834 4.065 3.36.632 2.07 1.92 12.175 1.556 14.079z" data-color="2"></path>
        </g>
        <defs fill="none">
            <clipPath id="36108cc5-6704-4152-b62c-97a8b07fff7e_comp-m4aau17d">
                <path fill="#ffffff" d="m199.353 68.441 16.397 130.18L85.058 214.71 68.661 84.53z"></path>
            </clipPath>
        </defs>
    </g>
</svg>