<svg preserveAspectRatio="xMidYMid meet" data-bbox="0.246 0.123 189.754 189.754" xmlns="http://www.w3.org/2000/svg" viewBox="0.246 0.123 189.754 189.754" height="190" width="190" data-type="color" role="presentation" aria-hidden="true" aria-label="">
    <g>
        <path fill="#C3E02F" d="M133.834 14.23c4.749 7.05 12.122 11.886 20.44 13.509 17.372 3.362 28.697 20.144 25.335 37.516a32 32 0 0 0 4.896 24.008c9.91 14.659 6.046 34.568-8.612 44.448-7.049 4.749-11.886 12.122-13.509 20.439-3.362 17.373-20.144 28.698-37.516 25.336a32 32 0 0 0-24.008 4.896c-14.659 9.91-34.567 6.046-44.448-8.612-4.748-7.049-12.122-11.886-20.44-13.509-17.371-3.362-28.697-20.144-25.335-37.516a32 32 0 0 0-4.896-24.008c-9.91-14.659-6.046-34.567 8.612-44.448 7.05-4.748 11.887-12.122 13.509-20.44 3.362-17.371 20.144-28.697 37.516-25.335a32 32 0 0 0 24.008-4.896c14.659-9.91 34.568-6.046 44.448 8.612" data-color="1"></path>
    </g>
</svg>