<svg preserveAspectRatio="xMidYMid meet" data-bbox="0.246 0.123 189.754 189.754" xmlns="http://www.w3.org/2000/svg" viewBox="0.246 0.123 189.754 189.754" height="190" width="190" data-type="color" role="presentation" aria-hidden="true" aria-label="">
    <g>
        <path fill="#C3E02F" d="M133.834 14.23c4.749 7.05 12.122 11.886 20.44 13.509 17.372 3.362 28.697 20.144 25.335 37.516a32 32 0 0 0 4.896 24.008c9.91 14.659 6.046 34.568-8.612 44.448-7.049 4.749-11.886 12.122-13.509 20.439-3.362 17.373-20.144 28.698-37.516 25.336a32 32 0 0 0-24.008 4.896c-14.659 9.91-34.567 6.046-44.448-8.612-4.748-7.049-12.122-11.886-20.44-13.509-17.371-3.362-28.697-20.144-25.335-37.516a32 32 0 0 0-4.896-24.008c-9.91-14.659-6.046-34.567 8.612-44.448 7.05-4.748 11.887-12.122 13.509-20.44 3.362-17.371 20.144-28.697 37.516-25.335a32 32 0 0 0 24.008-4.896c14.659-9.91 34.568-6.046 44.448 8.612" data-color="1"></path>
        <path fill="#005542" d="M124.196 66.305c.384-.426-2.295-2.454.131-4.399.973-.782 7.721-4.502 8.874-4.865 1.003-.319 1.453-.246 2.387.339l19.716 35.999c.492 1.145-.339 2.048-1.228 2.678-2.436 1.72-6.008 2.952-8.562 4.648-2.845.592-2.859-1.409-4.084-3.305-2.267 1.834-4.717 3.423-7.146 5.029-.502.332-1.862.851-2.142 1.162-.319.35-.395 2.378-.606 3.087-.429 1.454-1.634 3.008-2.845 3.89-.547.398-2.474 1.212-2.557 1.329-.256.381-.08 2.423-.298 3.329-.478 2.001-2.301 4.039-4.136 4.932-.616.301-2.529.772-2.626.869-.111.11-.734 2.215-1.139 2.876-.938 1.536-2.82 2.952-4.558 3.471-.9.27-2.796.242-3.166.46-.277.166-.703 1.17-1.042 1.547-3.98 4.419-10.04 3.706-15.276 2.336-1.145-.298-5.596-2.184-6.09-2.184-.558 0-1.254.73-1.866.966-3.433 1.305-7.16-.121-8.424-3.644-.266-.744-.02-1.513-.588-1.997-3.78 2.647-9.168-.222-9.458-4.669-5.053 2.219-10.216-1.419-9.324-6.994-4.177.561-7.87-3.135-7.191-7.32.107-.661.817-1.782.675-2.339-.062-.249-3.174-3.838-3.426-3.793-.651.118-.64 1.543-3.022.896-.782-.211-7.461-3.945-8.364-4.585-2.212-1.561-1.274-2.662-.308-4.624 5.014-10.195 11.631-21.965 17.445-31.773 1.291-2.177 1.61-3.61 4.461-2.298 1.36.626 7.815 4.09 8.552 4.918 1.52 1.702-.01 2.779-.588 4.378-.108.294-.312.245.055.55.748.623 2.89 1.263 3.89 1.56s6.212 1.7 6.887 1.676c.446-.014 2.215-2.842 2.955-3.489 1.876-1.644 4.025-1.8 6.385-2.163 7.534-1.156 18.014-1.92 25.385-.069 2.118.533 4.146 1.758 6.223 2.07s4.073-.021 6.049-.482zm-61.657-1.806-4.918-2.596-17.1 31.34 4.918 2.596zm87.82 28.745-17.103-31.341-4.918 2.596 17.103 31.34zm-23.838-23.312c-3.26 1.453-7.112 1.751-10.559.851-1.401-.367-2.734-1.142-4.146-1.554-6.433-1.886-20.695-1.387-27.27.302-.845.218-1.523.619-2.053 1.315L71.606 85.993c5.053.277 10.368-1.453 13.999-5.038.685-.679 2.322-3.247 3.02-3.454 1.188-.353 2.593.373 3.825.474 1.415.114 3.222-.367 4.343-.218 1.478.197 4.863 2.003 6.333 2.754 5.714 2.918 12.065 6.953 17.263 10.715 3.374 2.44 7.084 5.146 9.531 8.482l.318-.01c1.544-.962 3.156-1.848 4.658-2.869.872-.592 3.516-2.319 4.063-2.942.121-.138.308-.207.229-.46zm-52.064 4.146c-3.71-.405-7.184-1.74-10.61-3.1L50.679 95.406c.034.387 3.43 4.499 3.737 4.554.391.066 2.27-2.333 3.111-2.79 3.703-2.01 8.351-.069 9.158 4.105.318.284 1.893-1.578 2.405-1.869 5.056-2.865 10.749 2.17 9.254 7.569 4.651-.796 8.503 4.648 6.216 8.804 4.914-.588 8.606 3.675 7.011 8.438-.242.723-.869 1.169-.793 1.92 4.607 1.385 10.95 4.198 15.02.388.121-.512-.201-.357-.502-.516-3.09-1.588-6.513-2.578-9.517-4.353-1.426-2.44.288-4.216 2.945-3.337 3.254 1.077 7.912 4.216 10.947 4.856 2.661.56 5.014-.651 5.084-3.513-1.97-1.53-13.802-6.683-14.459-8.091-.873-1.862.629-3.89 2.664-3.187l15.432 8.163c2.128.333 4.25-3.093 3.222-4.737-.111-.177-3.142-1.336-3.807-1.693-3.983-2.142-11.292-6.021-14.677-8.638-2.45-1.893-1.031-4.755 1.706-4.035 5.337 2.599 10.69 6.942 15.982 9.403 1.768.82 3.395 1.391 5.181.235 2.955-1.917.976-4.551-.772-6.458-4.755-5.187-15.279-11.205-21.578-14.687-1.177-.65-6.295-3.665-7.105-3.797-.699-.114-3.025.24-4.09.229-.644-.007-1.568-.364-2.008-.239-.335.094-1.256 1.481-1.734 1.914-4.526 4.1-12.03 7.416-18.203 6.022-2.437-.55-3.741-2.942-3.122-5.333.682-2.637 5.582-7.202 6.942-9.895a1.2 1.2 0 0 0 .135-.772zm-14.32 26.734c-.457.104-.775.409-1.104.717-.492.463-3.36 4.011-3.55 4.478-.77 1.872 1.165 3.481 2.795 2.537.398-.229 3.973-4.527 4.119-4.946.574-1.654-.506-3.18-2.26-2.786m11.396 2.336c-.322.076-.602.222-.81.485l-8.029 9.846c-1.135 1.879 1.326 4.146 2.963 2.443l8.25-9.88c.91-1.731-.477-3.333-2.374-2.894m8.808 8.566c-1.364-1.364-2.568-.17-3.547.841s-4.465 5.205-4.904 6.239c-.841 1.987 1.55 3.641 3.194 2.153 1.938-1.758 3.769-5.08 5.655-7.043.394-.539.02-1.775-.398-2.19m4.402 8.531c-.485.145-3.132 3.474-3.246 4.021-.305 1.45.941 2.651 2.356 2.357.886-.184 3.652-3.433 3.766-4.288.221-1.647-1.412-2.523-2.876-2.087z" data-color="2"></path>
    </g>
</svg>