<svg width="98" height="32" viewBox="0 0 98 32" fill="none" xmlns="http://www.w3.org/2000/svg">
<path fill-rule="evenodd" clip-rule="evenodd" d="M11.1424 0C11.5269 0 11.9066 0.0195296 12.2811 0.0574887C15.4417 0.37794 18.2117 2.01788 20.0306 4.417L20.0378 4.42635C18.8313 5.17673 18.0286 6.51355 18.0286 8.03741C18.0286 10.0195 19.3865 11.6845 21.2235 12.1557L21.2211 12.1617C26.035 13.3916 29.594 17.753 29.594 22.9449C29.594 25.1179 28.9703 27.1456 27.8921 28.859C27.4719 29.5269 26.9826 30.1472 26.434 30.7097L26.4332 30.7086C25.6596 31.5049 24.5768 32 23.3781 32C21.0275 32 19.1218 30.0965 19.1218 27.7486C19.1218 26.1199 20.0386 24.7053 21.3849 23.9915L21.3833 23.9882C22.7307 23.2747 23.6483 21.8592 23.6483 20.2297C23.6483 20.0938 23.6419 19.9593 23.6295 19.8264C22.3799 18.0855 20.3371 16.9512 18.0289 16.9512C16.6963 16.9512 15.4524 17.3294 14.3982 17.9838L14.3503 17.943C13.6423 17.3502 12.7384 16.9835 11.7496 16.9534L11.7305 17.0315C11.6567 17.345 11.6177 17.6718 11.6177 18.008C11.6177 19.2903 12.1861 20.4401 13.085 21.2194C13.0836 21.2617 13.083 21.3044 13.083 21.3467C13.083 22.4211 13.4818 23.402 14.1397 24.1505L14.1377 24.1524C14.548 24.6156 14.797 25.2249 14.797 25.8922C14.797 27.3434 13.6192 28.5196 12.1663 28.5196C10.8172 28.5196 9.70522 27.5054 9.55348 26.1986L9.55651 26.198C9.27177 23.9304 7.88193 22.0058 5.94243 20.9798L5.94408 20.9765C2.40902 19.1107 0 15.4012 0 11.1297C0 4.98281 4.98851 0 11.1424 0ZM18.9155 19.1672C19.3756 19.1672 19.8084 19.2857 20.1852 19.4934C19.7425 20.3382 18.8612 20.9147 17.8448 20.9147C17.3844 20.9147 16.9519 20.7962 16.5748 20.5885C17.0175 19.744 17.8988 19.1672 18.9155 19.1672Z" fill="#00C38C"/>
<path fill-rule="evenodd" clip-rule="evenodd" d="M38.1984 15.6097C38.1984 14.8272 38.9385 14.4579 39.7876 14.4579C40.6801 14.4579 41.442 14.849 41.834 15.6965L43.8151 14.5882C43.0531 13.1538 41.5728 12.3281 39.7876 12.3281C37.567 12.3281 35.8037 13.6102 35.8037 15.6531C35.8037 19.5434 41.6598 18.4567 41.6598 20.3909C41.6598 21.2602 40.8543 21.6079 39.8093 21.6079C38.612 21.6079 37.7412 21.021 37.3929 20.0432L35.3684 21.2168C36.065 22.7815 37.6324 23.7595 39.8093 23.7595C42.1605 23.7595 44.0545 22.5859 44.0545 20.4125C44.0545 16.3921 38.1984 17.5873 38.1984 15.6097ZM55.6142 23.4769L50.6508 17.935L55.44 12.6106H52.5665L48.3431 17.4134V8.24072H45.992V23.4769H48.3431V18.4567L52.8059 23.4769H55.6142ZM58.1831 19.0434H66.8475C66.891 18.7391 66.9345 18.3914 66.9345 18.0655C66.9345 14.9359 64.7141 12.3281 61.4705 12.3281C58.0526 12.3281 55.7233 14.8272 55.7233 18.0437C55.7233 21.3037 58.0526 23.7595 61.6445 23.7595C63.7779 23.7595 65.4107 22.8684 66.412 21.3905L64.4747 20.2604C63.9522 21.021 62.9725 21.6079 61.6664 21.6079C59.9247 21.6079 58.5533 20.7386 58.1831 19.0434ZM58.1615 17.131C58.4879 15.501 59.6853 14.4579 61.4486 14.4579C62.8636 14.4579 64.2351 15.262 64.5617 17.131H58.1615ZM70.7877 19.0434H79.4521C79.4956 18.7391 79.5391 18.3914 79.5391 18.0655C79.5391 14.9359 77.3187 12.3281 74.0749 12.3281C70.6572 12.3281 68.3277 14.8272 68.3277 18.0437C68.3277 21.3037 70.6572 23.7595 74.2491 23.7595C76.3825 23.7595 78.0153 22.8684 79.0166 21.3905L77.0791 20.2604C76.5568 21.021 75.5771 21.6079 74.271 21.6079C72.5293 21.6079 71.1579 20.7386 70.7877 19.0434ZM70.7659 17.131C71.0925 15.501 72.2897 14.4579 74.0532 14.4579C75.4682 14.4579 76.8397 15.262 77.1663 17.131H70.7659ZM81.607 23.4769H83.9582V8.24072H81.607V23.4769ZM91.8167 23.7595C95.0168 23.7595 97.5639 21.2602 97.5639 18.0437C97.5639 14.8056 95.0168 12.3281 91.8167 12.3281C88.6382 12.3281 86.0693 14.8056 86.0693 18.0437C86.0693 21.2602 88.6382 23.7595 91.8167 23.7595ZM91.8167 21.4776C89.9009 21.4776 88.4205 20.0214 88.4205 18.0437C88.4205 16.0661 89.9009 14.61 91.8167 14.61C93.7324 14.61 95.2127 16.0661 95.2127 18.0437C95.2127 20.0214 93.7324 21.4776 91.8167 21.4776Z" fill="#003828"/>
</svg>
