<svg preserveAspectRatio="xMidYMid meet" data-bbox="0.002 0 921.356 152.09" viewBox="0.002 0 921.356 152.09" xmlns="http://www.w3.org/2000/svg" data-type="color" role="presentation" aria-hidden="true" aria-label="">
    <g>
        <path d="M365.43 118.83c18.67-10.21 37.74-20.64 41.18-22.53 14.76-8.07 21.21-17.13 21.21-32.13 0-7.21-2.78-27.78-42.58-27.78-49.2 0-56.82 44.8-56.82 65.36 0 3.28.33 6.51.95 9.64l-18.84 10.66c-6.83 3.86-10.05 5.08-12.8 5.08-6.57 0-8.99-5.29-7.97-11.06l9.5-53.75h31.78l4.54-24.93h-31.91l4.41-24.93h-29.91l-4.4 24.93h-58.91c-26.43 0-39.23 17.64-39.23 35.63 0 10.05 4.37 18.44 16.02 25.47l26.33 15.89a6.654 6.654 0 0 1 3.12 6.86 7.124 7.124 0 0 1-7.02 5.89H131.4c-11.34 0-19.79-3.16-25.2-8.3 18.67-10.21 37.74-20.64 41.18-22.53 14.76-8.07 21.21-17.13 21.21-32.13 0-7.21-2.78-27.78-42.58-27.78-49.2 0-56.82 44.8-56.82 65.36 0 3.28.33 6.51.95 9.64L51.3 122.05c-6.83 3.86-10.05 5.08-12.8 5.08-6.57 0-8.99-5.29-7.97-11.06L51.02 0H21.11L.52 116.76c-3.25 18.42 9.06 35.3 29.62 35.3 13.21 0 22.25-3.8 37.08-11.92l13.28-7.26c9.79 11.58 25.49 19.18 45.5 19.18h83.73c29.72 0 42.7-18.94 42.7-34.91 0-13.49-5.82-19.16-17.46-26.19l-26.17-15.8a6.917 6.917 0 0 1-3.24-7.13 6.92 6.92 0 0 1 6.82-5.72h57.01l-9.6 54.44c-3.25 18.42 9.06 35.3 29.62 35.3 13.21 0 22.25-3.8 37.08-11.92l13.28-7.26c9.79 11.58 25.49 19.18 45.5 19.18h38.32l4.4-24.93h-37.31c-11.34 0-19.79-3.16-25.2-8.3ZM123.55 61.35c12.34 0 14.94 3.77 14.94 6.86 0 4.26-2.06 5.69-8.98 9.6-2.38 1.35-15.42 8.72-30.18 17.07 1.05-14.5 5.97-33.53 24.23-33.53Zm259.25 0c12.34 0 14.94 3.77 14.94 6.86 0 4.26-2.06 5.69-8.98 9.6-2.38 1.35-15.42 8.72-30.18 17.07 1.05-14.5 5.97-33.53 24.23-33.53Z" fill="#ffffff" data-color="1"></path>
        <path d="M916.02 58.86c-3.84-5.64-9.13-10.34-15.34-13.41-8.69-4.29-19.22-6.91-31.31-7.81-17.67-1.31-34.66-.82-34.82-.81l-1.9.1-3.39 31.15s35.55-.58 50.99 2.77c3.18.69 5.93 1.48 7.54 2.79-3.65 1.13-7.92 2.13-12.38 3.17-20.89 4.87-49.49 11.53-52.82 42.33-.41 3.79-.59 13.46 6.65 21.35 6.9 7.53 18.53 11.42 34.57 11.56h1.57c19.68 0 31.89-3.35 40.62-11.12 1.34-1.19 4.12-4.17 6.24-7.69 1.24-2.06 2.28-6.12 2.52-7.6 1.08-6.72 2.6-16.41 3.41-21.1 1.3-7.52 2.39-15 2.97-22.59.04-.58.09-1.17.12-1.75.5-7.71-.85-14.93-5.23-21.37Zm-46.88 64.97c-11.68-1.23-12.01-4.76-12.15-6.27-.94-10.07 22.61-15.37 36.68-18.54h.05c-2.95 12.85-9.65 26.38-24.58 24.81Z" fill="#ffffff" data-color="1"></path>
        <path d="M624.23 12.58 625.76 0h-33.62l-.84 6.87c-1.81 14.4-11.47 70.79-16.15 87.37-3.56 12.62-8.52 19.42-17.14 23.49-11.55 5.45-24.12 6.29-37.37 2.49-9.79-2.81-15.13-9.97-15.02-20.17.04-3.66.49-7.44.93-11.09.15-1.3.31-2.6.45-3.9 1.09-10.17 8.17-45.8 12.4-67.09 1.99-9.99 2.95-14.83 3.05-15.69l.27-2.23h-33.63l-.22 1.76c-.54 4.42-3.04 17.66-5.94 32.98-4.26 22.55-9.56 50.61-11 63.22-1.13 9.87.57 19.08 5.03 27.38 5.16 9.59 13.35 16.5 25.04 21.12 9.37 3.7 19.96 5.52 32.37 5.56h.43c14.89 0 27.53-2.42 38.62-7.39 19.77-8.86 31.46-24.05 34.74-45.14.5-3.22 2.91-15.84 5.7-30.46 4.26-22.36 9.57-50.19 10.36-56.52Z" fill="#ffffff" data-color="1"></path>
        <path d="M704.11 125.32c-5.49-.56-8.88-3.61-9.54-8.6-.25-1.87-.23-4.01.07-6.53.77-6.59 3.98-20.04 6.32-29.86.99-4.13 3.07-14.08 3.46-15.88h29.6l4.27-28.79h-29.51l4.32-24.04h-33.61s-5.58 29.9-8.88 46.46c-4.03 20.21-8.59 43.11-9.31 48.73-.67 5.31-1.26 12.32.17 19.52 1.72 8.69 5.66 15.06 12.02 19.5 5.65 3.94 12.58 5.95 21.17 6.15 2.59.06 7.15.1 12.58.1 4.12 0 8.74-.02 13.38-.08l1.73-.02 4.02-25.93h-2.36c-7.95 0-16.94-.43-19.89-.73Z" fill="#ffffff" data-color="1"></path>
        <path d="M634.42 11.67S626.91 54.25 622 81.73c-3.93 21.97-7.99 44.69-11.79 68.05l-.38 2.31h33.67l.27-1.68c8.01-49.69 24.36-138.73 24.36-138.73h-33.72Z" fill="#ffffff" data-color="1"></path>
        <path d="M827.54 37.03s-6.09 0-9.2-.11c-8.56-.32-22.89-.84-30.23-.65-7.9.21-15.3 2.23-22.01 6.02-8.59 4.84-14.53 12.41-17.67 22.48-1.29 4.14-14.71 80.77-15.27 85.1l-.29 2.22h33.58s11.1-61.49 12.29-70.71c.8-6.17 3.77-10.71 8.82-13.5 1.71-.35 3.53-.53 5.39-.48 19.74.35 31.05.52 31.05.52l3.52-30.89Z" fill="#ffffff" data-color="1"></path>
    </g>
</svg>