<svg width="152" height="152" viewBox="0 0 152 152" fill="none" xmlns="http://www.w3.org/2000/svg">
    <circle cx="75.5131" cy="75.5131" r="70.5776" fill="url(#paint0_linear_439_18028)" stroke="#D5EFE9" stroke-width="9.87099"/>
    <path d="M69.4734 97.7719L65.0225 99.7934L61.1622 101.546L59.6722 97.5758L57.9529 92.9966L53.0658 93.1551L51.2693 93.2136L40.7734 107.458L55.1588 106.83L58.8208 120.751L72.9893 101.521L72.8181 101.337L69.4734 97.7719Z" fill="white"/>
    <path d="M100.152 93.2136L98.3572 93.1551L93.4703 92.9966L91.7528 97.5758L90.2651 101.546L86.4027 99.7934L81.9498 97.7719L78.6006 101.339L78.4316 101.519L92.6001 120.751L96.2622 106.83L110.65 107.458L100.152 93.2136Z" fill="white"/>
    <path d="M88.0413 93.0129L90.7582 85.7737L97.16 85.9803L98.4872 86.0241L98.2348 78.2989L105.473 75.5827L102.279 68.5439L107.919 63.2574L102.279 57.971L105.473 50.9321L98.2348 48.2159L98.4872 40.4886L90.7582 40.739L88.0413 33.502L81.0009 36.6959L75.7092 31.0569L70.4217 36.6959L63.3833 33.502L60.6665 40.739L52.9396 40.4886L53.192 48.2159L45.9513 50.93L49.1461 57.9689L43.5078 63.2553L49.1461 68.5418L45.9513 75.5806L53.19 78.2948L52.9416 86.022L54.2665 85.9782L60.6686 85.7717L63.3853 93.0108L70.4237 89.8168L75.3815 95.1032L75.7113 95.4558L76.041 95.1032L81.0009 89.8189L88.0413 93.0129ZM75.7113 84.2216C69.6871 84.2216 64.2576 81.6786 60.4328 77.6105C56.9063 73.8595 54.7466 68.8088 54.7466 63.2553C54.7466 51.679 64.1324 42.2911 75.7113 42.2911C87.2922 42.2911 96.6802 51.679 96.6802 63.2553C96.6802 68.8088 94.5182 73.8574 90.9918 77.6105C87.1669 81.6786 81.7354 84.2216 75.7113 84.2216Z" fill="white"/>
    <path d="M74.1516 65.5692L72.8933 66.9169C72.2986 67.5552 71.7373 67.574 71.1008 66.9774L69.7131 65.0121L66.0761 59.8571C64.8888 61.1339 63.7098 62.3981 62.5684 63.6227L66.5958 69.2388L68.7387 72.2262C70.6229 73.987 73.5776 73.8868 75.3388 72.003L81.7803 65.1081L88.8542 57.5373C87.6168 56.3795 86.348 55.1924 85.0063 53.9365L74.1516 65.5692Z" fill="white"/>
    <defs>
        <linearGradient id="paint0_linear_439_18028" x1="27.6054" y1="22.084" x2="122.499" y2="123.448" gradientUnits="userSpaceOnUse">
            <stop stop-color="#005542"/>
            <stop offset="1" stop-color="#009373"/>
        </linearGradient>
    </defs>
</svg>
