<svg width="152" height="152" viewBox="0 0 152 152" fill="none" xmlns="http://www.w3.org/2000/svg">
    <circle cx="75.5131" cy="75.5131" r="70.5776" fill="url(#paint0_linear_439_18028)" stroke="#D5EFE9" stroke-width="9.87099"/>
    <path d="M110.135 68.3559H100.849L105.803 40.3287H95.3299L90.3861 68.3559H62.3091L57.3654 40.3287H46.8919L51.8465 68.3559H42.5601C40.4943 68.3559 38.8184 70.0315 38.8184 72.097V80.2404V89.7149V98.6703C38.8184 100.736 40.4943 102.411 42.5601 102.411H55.9566V109.342H64.7908V102.411H87.982V109.342H96.8163V102.411H110.129C112.195 102.411 113.871 100.736 113.871 98.6703V89.7149V80.2404V72.097C113.877 70.0315 112.201 68.3559 110.135 68.3559ZM85.6708 90.0552H48.2944V80.4106H85.6708V90.0552ZM104.358 90.0552H93.5075V80.4106H104.358V90.0552Z" fill="white"/>
    <defs>
        <linearGradient id="paint0_linear_439_18028" x1="27.6054" y1="22.084" x2="122.499" y2="123.448" gradientUnits="userSpaceOnUse">
            <stop stop-color="#005542"/>
            <stop offset="1" stop-color="#009373"/>
        </linearGradient>
    </defs>
</svg>
