<svg width="152" height="152" viewBox="0 0 152 152" fill="none" xmlns="http://www.w3.org/2000/svg">
    <circle cx="75.5131" cy="75.5131" r="70.5776" fill="url(#paint0_linear_439_18028)" stroke="#D5EFE9" stroke-width="9.87099"/>
    <path d="M103.351 66.7438C103.06 64.7487 102.891 62.8109 102.485 60.9246C100.077 49.7306 90.7167 41.2194 79.2495 39.713C78.9927 39.6798 78.7489 39.5508 78.4996 39.4659C76.5232 39.4659 74.545 39.4659 72.5687 39.4659C70.1159 40.1187 67.5385 40.4893 65.2309 41.4757C54.9082 45.888 49.1113 53.6875 48.0078 64.8299C47.952 65.4033 47.8943 65.9749 47.8198 66.7364C45.302 66.7991 42.4882 66.2128 41.0273 69.115C41.0273 74.3681 41.0273 79.6212 41.0273 84.8743C41.9113 86.7551 43.3963 87.5221 45.4731 87.3543C46.5879 87.264 47.7175 87.3377 48.8396 87.3377C50.7992 87.3377 52.7569 87.3377 54.8375 87.3377C54.8375 86.6831 54.8375 86.2037 54.8375 85.7243C54.8375 79.6747 54.817 73.625 54.8524 67.5754C54.8598 66.1593 54.912 64.7137 55.1911 63.3308C57.5173 51.8215 67.412 44.9514 79.123 46.6588C87.9234 47.9421 95.6576 55.9204 95.9944 64.7322C96.348 74.0159 96.2624 83.3181 96.1712 92.6111C96.1302 96.8427 93.3853 99.8888 89.3619 100.763C88.4985 100.951 87.5792 100.925 86.6859 100.929C86.3342 100.931 85.9824 100.931 85.6326 100.932C84.6519 99.3743 82.9118 98.3344 80.9225 98.3344H76.2087C73.14 98.3344 70.6537 100.798 70.6537 103.838C70.6537 106.879 73.14 109.342 76.2087 109.342H80.9225C82.3964 109.342 83.7326 108.769 84.7263 107.841C86.4254 107.841 88.1244 107.841 89.8234 107.841C91.1336 107.43 92.507 107.15 93.7445 106.584C100.046 103.693 103.072 98.6847 103.196 91.8773C103.224 90.4188 103.2 88.9603 103.2 87.4004C105.809 87.1939 108.731 88.0421 110.041 84.8725C110.041 79.6194 110.041 74.3663 110.041 69.1131C108.589 66.2552 105.865 66.7714 103.351 66.7438Z" fill="white"/>
    <defs>
        <linearGradient id="paint0_linear_439_18028" x1="27.6054" y1="22.084" x2="122.499" y2="123.448" gradientUnits="userSpaceOnUse">
            <stop stop-color="#005542"/>
            <stop offset="1" stop-color="#009373"/>
        </linearGradient>
    </defs>
</svg>
