<svg width="152" height="152" viewBox="0 0 152 152" fill="none" xmlns="http://www.w3.org/2000/svg">
    <circle cx="75.5131" cy="75.5131" r="70.5776" fill="url(#paint0_linear_439_18028)" stroke="#D5EFE9" stroke-width="9.87099"/>
    <path d="M98.7121 56.6986H97.9051L100.006 49.6651C101.088 46.0378 101.227 43.7843 98.7003 41.0062C95.7098 37.7176 89.4912 36.2497 83.3714 41.8106L80.5857 44.3418L79.4422 45.3815C77.4963 47.1504 74.5247 47.1504 72.5789 45.3815L71.4236 44.3323L68.6496 41.8106C62.5298 36.2497 56.3112 37.7176 53.3207 41.0062C50.7961 43.7843 50.9325 46.0378 52.0149 49.6651L54.116 56.6986H53.3089C47.688 56.6986 43.1328 61.2528 43.1328 66.8725V79.5987H71.3813V56.7668L62.4733 56.7998V56.6986C62.431 56.541 62.391 56.381 62.3416 56.2187L59.9134 48.0867C59.8852 47.9949 59.864 47.9009 59.8499 47.8068C59.8075 47.5245 59.8264 47.2375 59.904 46.967C59.9558 46.7882 60.0334 46.6165 60.1346 46.4612C60.2358 46.306 60.3628 46.1625 60.5157 46.0425C60.7063 45.892 60.9181 45.7791 61.1369 45.7085C61.3581 45.6379 61.5863 45.605 61.8169 45.6121C61.9322 45.6168 62.0451 45.6285 62.158 45.652C62.3816 45.6991 62.6004 45.7861 62.8004 45.9108C62.9016 45.9743 62.9957 46.0449 63.0851 46.1272L66.4026 49.1406L68.139 50.719C68.4167 50.973 68.7061 51.2106 69.0025 51.4318C69.5931 51.874 70.2189 52.255 70.8636 52.5703C71.0471 52.6596 71.233 52.742 71.4213 52.822C72.1177 53.116 72.833 53.3442 73.5624 53.4994C74.367 53.6711 75.1835 53.7605 76.0023 53.7605C76.7058 53.7605 77.4116 53.697 78.1057 53.5724C78.2093 53.5535 78.3128 53.5229 78.4163 53.5018C78.6587 53.45 78.901 53.403 79.1386 53.3371C79.628 53.2007 80.108 53.0219 80.581 52.8196C80.7668 52.7396 80.9551 52.6667 81.1386 52.5773C82.108 52.1021 83.0279 51.4859 83.8632 50.7261L88.9265 46.1296C89.016 46.0472 89.1124 45.9766 89.2112 45.9131C89.4112 45.7884 89.6301 45.7014 89.8536 45.6544C89.9665 45.6309 90.0794 45.6167 90.1947 45.6144C90.31 45.6097 90.423 45.6167 90.5382 45.6332C90.7665 45.6661 90.9877 45.7367 91.1971 45.8473C91.3006 45.9038 91.4017 45.9696 91.4959 46.0449C91.6464 46.1648 91.7735 46.306 91.877 46.4636C91.9782 46.6188 92.0559 46.7905 92.1076 46.9693C92.2111 47.3269 92.2088 47.7197 92.0982 48.089L89.6701 56.2211C89.6206 56.3834 89.5806 56.5434 89.5383 56.701H89.4442L81.0468 56.7339V79.6034H108.881V66.8772C108.888 61.2528 104.333 56.6986 98.7121 56.6986Z" fill="white"/>
    <path d="M81.0566 112.275H94.035H98.7149C104.336 112.275 108.891 107.721 108.891 102.101V89.2668H81.0566V112.275Z" fill="white"/>
    <path d="M43.1367 89.2951V102.101C43.1367 107.721 47.6919 112.275 53.3128 112.275H57.6845H57.8962H61.4584H62.4772H71.3852V89.2668H43.1367V89.2951Z" fill="white"/>
    <defs>
        <linearGradient id="paint0_linear_439_18028" x1="27.6054" y1="22.084" x2="122.499" y2="123.448" gradientUnits="userSpaceOnUse">
            <stop stop-color="#005542"/>
            <stop offset="1" stop-color="#009373"/>
        </linearGradient>
    </defs>
</svg>
