<svg width="97" height="97" viewBox="0 0 97 97" fill="none" xmlns="http://www.w3.org/2000/svg">
    <g clip-path="url(#clip0_470_22224)">
        <path d="M63.797 67.9624C62.1169 67.9624 60.3668 67.9602 58.5018 67.9579C58.4432 68.0188 58.3845 68.0774 58.3259 68.1383C58.3214 70.9994 58.3192 73.8606 58.3124 76.7217C58.3102 77.858 58.0824 79.2041 57.4397 80.0631C56.8804 80.8094 55.5882 81.373 54.6139 81.382C45.1018 81.4767 35.5875 81.4632 26.0753 81.4226C23.7548 81.4136 22.4627 80.0428 22.3522 77.7318C22.3184 77.0126 22.3385 76.291 22.3385 75.5696C22.3385 55.1494 22.3385 34.7269 22.3385 14.3067C22.3385 10.9947 22.5079 10.8279 25.8815 10.8324C26.4047 10.8324 26.9301 10.8324 27.5773 10.8324C27.787 11.6891 27.8954 12.4061 28.1367 13.0757C29.1515 15.9053 31.1405 17.7293 34.1511 17.8894C38.0795 18.0991 42.0281 18.1058 45.9588 17.9615C49.6955 17.824 52.0274 15.6257 52.8145 11.962C52.8844 11.6373 52.9903 11.3193 53.0715 11.024C53.1933 10.9609 53.2767 10.8842 53.3624 10.8797C58.5357 10.6633 58.3621 10.8369 58.3576 15.4566C58.3553 18.0652 58.353 20.6761 58.353 23.2847C58.8265 23.2847 59.2979 23.2824 59.7715 23.2824C61.6567 23.2824 63.5442 23.2824 65.4295 23.2847C66.6789 23.2847 67.9283 23.2847 69.1754 23.2847C69.1754 18.6965 69.1776 14.1083 69.1754 9.52243C69.1731 3.89261 65.3033 0.00563658 59.697 0.00338195C46.8202 -0.00112732 33.9413 -0.00112732 21.0645 0.00338195C15.3568 0.00563658 11.5095 3.86557 11.5095 9.59008C11.5072 33.9536 11.5072 58.3171 11.5095 82.6807C11.5095 88.4074 15.3567 92.2719 21.0599 92.2741C33.8893 92.2787 46.7187 92.2787 59.5481 92.2741C65.3574 92.2719 69.1731 88.4412 69.1754 82.613C69.1754 77.7272 69.1754 72.8437 69.1754 67.9579C69.1303 67.9579 69.0853 67.9579 69.0402 67.9579C67.3443 67.9602 65.6124 67.9624 63.797 67.9624Z" fill="white"/>
        <path d="M84.7213 36.5148C84.7191 35.9804 84.6695 35.4145 84.4936 34.9162C83.9344 33.3357 82.5813 32.47 80.7343 32.4655C78.5897 32.4609 76.9751 32.4609 75.4326 32.4609C73.412 32.4609 71.5153 32.4632 68.719 32.4632C68.7054 32.4632 68.6942 32.4632 68.6806 32.4632C68.198 32.4632 67.7154 32.4632 67.2351 32.4632C64.8176 32.4632 62.4025 32.4609 59.985 32.4609C59.6196 32.4609 59.2542 32.4609 58.8889 32.4609C57.1885 32.4609 55.4905 32.4609 53.7924 32.4655C51.3253 32.47 49.7828 33.9761 49.7805 36.4201C49.767 45.5942 49.776 54.7682 49.7715 63.9446C49.7715 64.4496 49.8347 64.9141 50.3714 65.108C50.4887 65.1508 50.5991 65.1689 50.7028 65.1689C51.0591 65.1689 51.3478 64.9479 51.6229 64.6684C53.2015 63.0721 54.814 61.5073 56.3677 59.8885C57.042 59.1873 57.7929 58.91 58.7491 58.91C58.7536 58.91 58.7558 58.91 58.7603 58.91C58.8009 58.91 58.8393 58.91 58.8799 58.91C60.3637 58.9123 61.7574 58.9145 63.0902 58.9145C64.5267 58.9145 65.8957 58.9123 67.2375 58.9123C68.4598 58.91 69.6618 58.91 70.8728 58.91C73.9104 58.91 77.0111 58.9168 80.6711 58.9461C80.6847 58.9461 80.6959 58.9461 80.7095 58.9461C83.1179 58.9461 84.7823 57.1085 84.7575 54.8832C84.6875 48.7642 84.7371 42.6383 84.7213 36.5148Z" fill="white"/>
    </g>
    <defs>
        <clipPath id="clip0_470_22224">
            <rect width="96.5612" height="96.5612" fill="white"/>
        </clipPath>
    </defs>
</svg>
