<svg width="75" height="97" viewBox="0 0 75 97" fill="none" xmlns="http://www.w3.org/2000/svg">
    <path d="M52.966 65.7572H48.3387C45.5608 65.7572 42.9445 64.7288 41.1567 62.9824H4V87.8268C6.21873 89.1423 8.55289 90.3297 10.9922 91.3734C18.7309 94.6841 27.4929 96.5613 36.786 96.5613C46.079 96.5613 54.841 94.6816 62.5797 91.3734C65.5243 90.1143 68.3253 88.6525 70.9442 86.9985C71.0134 86.9549 71.075 86.9061 71.1443 86.8626V62.985H61.2382C60.9663 63.1081 57.0572 65.7572 52.966 65.7572Z" fill="white"/>
    <path d="M39.0611 50.6316C39.628 46.8003 43.5447 43.8845 47.5462 43.8845H50.3651C50.4882 43.8845 50.6113 43.8922 50.7319 43.8974C52.7121 41.1585 53.8817 37.7991 53.8817 34.1627C53.8817 24.9718 46.4278 17.5195 37.2348 17.5195C28.0418 17.5195 20.5879 24.9718 20.5879 34.1627C20.5879 43.3537 28.0418 50.806 37.2348 50.806C38.0428 50.8034 38.2839 50.7419 39.0611 50.6316Z" fill="white"/>
    <path d="M71.8921 27.5883C71.769 27.5729 71.6433 27.5626 71.515 27.5575H70.3813C68.5473 12.0811 54.3834 0 37.2337 0C20.0892 0 5.92778 12.0734 4.08867 27.5447C3.85269 27.5447 3.68338 27.5447 3.61926 27.5447C3.609 27.5447 3.60127 27.5447 3.59101 27.5447H3.58845C3.22165 27.5447 2.85999 27.5549 2.50859 27.6011C1.06192 27.7857 0 29.0603 0 30.5169C0 30.5169 0 40.0489 0 40.054C0 41.0413 0.505354 41.9953 1.33129 42.539C1.91354 42.9211 2.55221 43.0057 3.22937 43.0057C4.5247 43.0057 5.82001 43.0057 7.1179 43.0057C7.7925 43.0057 8.4697 43.0057 9.1443 43.0057C9.36745 43.0057 9.59571 43.016 9.82143 43.016C9.93429 43.016 10.0472 43.0134 10.1575 43.0057C10.4781 42.9852 10.4011 42.7492 10.4011 42.4748C10.4011 39.8181 10.4011 37.1614 10.4011 34.5046C10.4011 31.7786 10.3165 29.0577 10.8808 26.3727C11.6657 22.6286 13.4227 19.1282 15.8723 16.197C18.386 13.1863 21.5974 10.7886 25.1551 9.14735C28.9308 7.40609 33.0784 6.5265 37.2337 6.5265H37.2363C51.231 6.5265 62.7556 16.3381 63.9585 28.8064C64.0278 29.5193 64.2048 32.7248 64.2048 32.7248C64.2638 37.4562 64.2253 42.1902 64.1791 46.9216C64.1483 50.0887 62.1117 52.3685 59.1286 53.025C58.472 53.1686 57.7717 53.1455 57.0946 53.1481C56.7509 52.9865 56.3122 52.7814 55.9685 52.6172C55.7043 52.3146 55.3965 52.053 55.0554 51.8402C54.4218 51.4401 53.6729 51.2068 52.87 51.2068H49.515C47.3193 51.2068 45.4032 52.8634 45.2621 55.0535C45.2006 56.0254 45.4776 56.928 45.9829 57.6615C46.7268 58.7385 47.9657 59.4489 49.3739 59.4489H52.87C53.9627 59.4489 54.9554 59.0206 55.6915 58.3257H59.4723C60.4445 58.018 61.4627 57.8077 62.381 57.3846C67.0545 55.2202 69.2989 51.4709 69.3938 46.3754C69.4143 45.2829 69.3963 44.1931 69.3963 43.0237C69.7016 43.0006 70.0145 42.9954 70.3249 42.9954C70.5224 42.9954 70.7173 42.998 70.9148 42.998C71.2508 42.998 71.5843 42.9929 71.9075 42.9621C73.3798 42.8236 74.4725 41.5183 74.4725 40.0386V30.5194C74.4674 29.0295 73.367 27.7576 71.8921 27.5883Z" fill="white"/>
</svg>
