<svg width="95" height="95" viewBox="0 0 95 95" fill="none" xmlns="http://www.w3.org/2000/svg">
    <g clip-path="url(#clip0_470_22456)">
        <path d="M89.7941 25.3413C89.7941 24.9851 89.7916 24.604 89.6755 24.2777C88.8704 22.0086 87.4059 20.4693 85.0104 19.8516C83.983 19.5875 82.9607 19.1666 82.037 18.6385C69.9753 11.7191 63.2752 8.00039 51.2234 1.06107C50.6085 0.707384 49.9713 0.396034 49.223 0C49.223 2.95157 49.1711 5.75622 49.2699 8.55336C49.2872 9.06895 49.8355 9.68416 50.3022 10.0354C51.1148 10.6481 59.7189 15.3482 65.7769 18.8428C66.1794 19.0744 66.5549 19.3608 66.9426 19.6199C66.9154 19.6971 66.8857 19.7744 66.8586 19.8516C66.54 19.8516 66.2215 19.8516 65.9029 19.8516C60.9612 19.8466 59.7608 19.8416 54.8191 19.8416C52.3914 19.8416 55.3032 19.8042 52.8756 19.8739C50.0404 19.9561 48.0845 21.5104 47.4325 24.1282C47.267 24.7933 47.2152 25.5006 47.2004 26.1931C47.1831 27.02 47.1831 27.8495 47.1855 28.6839C47.0719 28.6316 46.9607 28.5767 46.8496 28.5194H27.2729C26.8432 28.5194 26.4183 28.5294 26.001 28.5444H25.023V28.5992C11.4993 29.5606 4.93996 39.1775 4.93996 48.9812C4.93996 54.7524 7.42693 59.5695 14.0604 63.6071L29.051 72.7308C30.392 73.5478 31.0983 75.112 30.8266 76.6687C30.4833 78.6265 28.7991 80.0537 26.8283 80.0537H4.55469V94.3682H24.3513C41.2708 94.3682 48.6673 83.4935 48.6673 74.3199C48.6673 66.5711 45.3555 63.3181 38.7221 59.2806L23.8178 50.2092C22.4225 49.3598 21.6914 47.7333 21.973 46.1168C22.2817 44.3484 23.724 43.0257 25.4651 42.8539H47.2152V47.8479C47.2177 48.0023 47.2176 48.1593 47.2226 48.3137C47.3065 51.7236 48.8401 53.7461 51.7987 54.3787C52.468 54.5232 53.167 54.5855 53.8536 54.5855C66.5771 54.6054 70.2198 54.6278 82.9458 54.588C84.0744 54.5855 85.287 54.3513 86.3144 53.8905C88.5099 52.9092 89.8213 51.2254 89.8114 48.64C89.7793 40.8762 89.8015 33.1075 89.7941 25.3413Z" fill="#009373"/>
    </g>
    <defs>
        <clipPath id="clip0_470_22456">
            <rect width="94.3682" height="94.3682" fill="white"/>
        </clipPath>
    </defs>
</svg>
