<svg width="85" height="92" viewBox="0 0 85 92" fill="none" xmlns="http://www.w3.org/2000/svg">
    <path d="M53.1926 70.8451C54.5879 70.0395 55.9998 69.2244 57.4236 68.4045C57.281 68.4092 57.1384 68.4116 56.9981 68.4164L53.4612 68.5067L53.0237 68.5186L52.6862 68.5281L43.877 68.7538L44.7922 63.8797L45.503 60.094L45.8167 58.4209L46.3872 55.3814L47.0433 51.888L47.1313 51.4198L48.1057 46.2272L53.8629 46.0799L54.4167 46.0656C55.7502 46.0323 57.0861 45.9967 58.4196 45.9611C58.8593 45.9492 59.2991 45.9373 59.7412 45.9278C63.4778 45.8304 67.3049 45.7305 71.1294 45.6426V38.1805H54.6758C54.3216 38.1805 53.9746 38.1757 53.6299 38.1638C52.256 38.1187 50.963 37.988 49.746 37.7765C49.3276 37.7052 48.9235 37.6196 48.5241 37.5317C48.1747 37.4533 47.8324 37.3677 47.4949 37.2774C47.376 37.2441 47.2548 37.2156 47.1383 37.1824C46.9648 37.1443 46.7936 37.1016 46.6201 37.0564C46.5654 37.0421 46.5085 37.0255 46.4538 37.0113C46.3373 36.9804 46.2185 36.9471 46.102 36.9114C46.0354 36.8924 45.9712 36.8686 45.9047 36.8496C45.7977 36.8163 45.6932 36.7831 45.5862 36.7474C45.5173 36.7237 45.4459 36.6975 45.3769 36.6738C45.2747 36.6381 45.1749 36.6025 45.0727 36.5645C44.999 36.5383 44.9278 36.5075 44.8541 36.4789C44.7566 36.4409 44.6592 36.4029 44.5617 36.3625C44.488 36.3316 44.4143 36.2983 44.3406 36.265C44.2455 36.2246 44.1504 36.1818 44.0553 36.1391C43.9816 36.1058 43.9056 36.0678 43.8319 36.0321C43.7392 35.987 43.6442 35.9442 43.5515 35.8966C43.4754 35.8586 43.4017 35.8182 43.328 35.7802C43.2353 35.7327 43.145 35.6852 43.0523 35.6353C42.9762 35.5949 42.9025 35.5497 42.8264 35.5069C42.7361 35.457 42.6482 35.4048 42.5603 35.3525C42.4842 35.3073 42.4105 35.2598 42.3344 35.2146C42.2465 35.16 42.1609 35.1077 42.0729 35.0507C41.9969 35.0031 41.9232 34.9508 41.8495 34.9009C41.7639 34.8439 41.6784 34.7868 41.5952 34.7274C41.5215 34.6752 41.4478 34.6205 41.3718 34.5682C41.2886 34.5088 41.2053 34.447 41.1221 34.3852C41.0484 34.3306 40.9747 34.2712 40.901 34.2141C40.8202 34.15 40.7395 34.0882 40.6587 34.0216C40.585 33.9622 40.5136 33.9004 40.4423 33.841C40.3639 33.7745 40.2831 33.7079 40.2046 33.639C40.1333 33.5772 40.062 33.5131 39.9907 33.4489C39.9123 33.3776 39.8362 33.3087 39.7601 33.235C39.6888 33.1685 39.6199 33.102 39.551 33.033C39.5248 33.0069 39.4963 32.9807 39.4702 32.9546C39.4583 32.9403 39.4439 32.9285 39.4297 32.9142C39.3988 32.8833 39.3655 32.8524 39.3346 32.8191C39.3037 32.7882 39.2705 32.755 39.2396 32.7241C39.2253 32.7098 39.2134 32.6979 39.1992 32.6836C39.173 32.6575 39.1469 32.629 39.1207 32.6029C39.0518 32.534 38.9852 32.465 38.9186 32.3937C38.8473 32.3177 38.776 32.2393 38.7047 32.1632C38.6406 32.0919 38.5764 32.0206 38.5122 31.9494C38.4432 31.8709 38.3767 31.7925 38.3101 31.7117C38.2483 31.6404 38.1889 31.5667 38.1295 31.4954C38.063 31.4146 38.0011 31.3339 37.937 31.2531C37.8799 31.1794 37.8228 31.1057 37.7658 31.032C37.704 30.9488 37.6422 30.8656 37.5827 30.7825C37.5281 30.7088 37.4758 30.6351 37.4235 30.5591C37.3641 30.4735 37.307 30.3904 37.25 30.3048C37.2001 30.2312 37.1502 30.1551 37.1003 30.0814C37.0456 29.9959 36.9909 29.908 36.9363 29.82C36.8887 29.744 36.8435 29.6703 36.7984 29.5942C36.7461 29.5063 36.6938 29.416 36.6439 29.3257C36.6011 29.252 36.5583 29.176 36.5155 29.1023C36.4656 29.012 36.4181 28.9193 36.3706 28.8266C36.3325 28.753 36.2921 28.6769 36.254 28.6033C36.2065 28.5106 36.1637 28.4179 36.1186 28.3228C36.0829 28.2492 36.0472 28.1731 36.0116 28.0995C35.9688 28.0044 35.9284 27.9093 35.8856 27.8142C35.8524 27.7406 35.819 27.6669 35.7881 27.5932C35.7477 27.4958 35.7097 27.3984 35.6716 27.2986C35.6431 27.2273 35.6122 27.1536 35.5861 27.0823C35.548 26.9801 35.5124 26.8803 35.4767 26.7781C35.453 26.7092 35.4268 26.6379 35.403 26.569C35.3674 26.462 35.3342 26.3575 35.3009 26.2506C35.2795 26.184 35.2581 26.1175 35.239 26.0533C35.2034 25.9368 35.1725 25.818 35.1392 25.7016C35.125 25.6469 35.1083 25.5923 35.0941 25.5352C35.0489 25.3618 35.0061 25.1907 34.968 25.0172C34.9348 24.9007 34.9039 24.7795 34.873 24.6607C34.7803 24.3256 34.6971 23.9834 34.6187 23.6317C34.5284 23.2324 34.4452 22.8284 34.3715 22.4101C34.1623 21.1934 34.0292 19.9006 33.984 18.527C33.9722 18.1848 33.9673 17.8354 33.9673 17.4813V0H3.16148C1.41676 0 0 1.41396 0 3.16067V83.4975C0 85.2418 1.41439 86.6582 3.16148 86.6582H38.0581C38.7712 82.4566 40.8274 78.9204 44.0648 76.342C44.7779 75.774 45.5434 75.244 46.3706 74.7735C48.6216 73.4878 50.913 72.1641 53.1307 70.8855C53.1521 70.8689 53.1736 70.857 53.1926 70.8451ZM10.4849 20.2119H27.7087V26.1222H10.4849V20.2119ZM10.4849 35.7565H27.7087V41.6667H10.4849V35.7565ZM34.0839 73.3951H10.4849V67.4848H35.2581L34.0839 73.3951ZM37.2715 57.3349H10.4849V51.4246H38.4457L37.2715 57.3349Z" fill="#009373"/>
    <path d="M43.5898 21.8896C43.5898 21.8967 43.5923 21.9015 43.5923 21.9086C43.6041 22.0108 43.6183 22.1106 43.635 22.2105C43.6421 22.2485 43.6493 22.2865 43.6564 22.3221C43.6683 22.3911 43.6801 22.4599 43.6944 22.5265C43.7039 22.5693 43.7134 22.6097 43.7229 22.6525C43.7372 22.7142 43.7515 22.7784 43.7658 22.8402C43.7777 22.883 43.7895 22.9258 43.8014 22.9685C43.818 23.028 43.8347 23.0874 43.8513 23.1468C43.8656 23.1896 43.8799 23.2347 43.8941 23.2775C43.9132 23.3345 43.9297 23.3916 43.9511 23.4486C43.9654 23.4937 43.9845 23.5365 43.9987 23.5793C44.0201 23.634 44.0391 23.6886 44.0605 23.7433C44.0771 23.7861 44.0961 23.8312 44.1151 23.874C44.1365 23.9263 44.1603 23.9809 44.1841 24.0332C44.2031 24.076 44.2245 24.1188 44.2435 24.1615C44.2673 24.2138 44.2911 24.2661 44.3172 24.316C44.3386 24.3588 44.3624 24.4015 44.3838 24.4443C44.41 24.4942 44.4361 24.5442 44.4623 24.5941C44.486 24.6368 44.5098 24.6773 44.5335 24.72C44.5621 24.7676 44.5882 24.8174 44.6168 24.865C44.6429 24.9054 44.6691 24.9481 44.6952 24.9885C44.7237 25.0361 44.7546 25.0812 44.7855 25.1264C44.8117 25.1668 44.8402 25.2072 44.8687 25.2476C44.8996 25.2928 44.9305 25.3379 44.9638 25.3806C44.9923 25.421 45.0232 25.4591 45.0518 25.4971C45.085 25.5399 45.1159 25.5826 45.1516 25.6254C45.1825 25.6635 45.2133 25.7015 45.2442 25.7395C45.2775 25.7799 45.3132 25.8227 45.3465 25.8631C45.3797 25.9011 45.4107 25.9367 45.444 25.9748C45.4796 26.0152 45.5152 26.0532 45.5508 26.0936C45.5841 26.1292 45.6198 26.1649 45.6531 26.2006C45.6888 26.2386 45.7268 26.2766 45.7624 26.3123C45.7743 26.3241 45.7862 26.3336 45.7957 26.3455C45.8076 26.3574 45.8172 26.3693 45.8291 26.3788C45.8647 26.4168 45.9027 26.4525 45.9407 26.4905C45.9764 26.5261 46.0121 26.5594 46.0477 26.5927C46.0858 26.6283 46.1262 26.664 46.1666 26.6996C46.2022 26.7329 46.2402 26.7662 46.2782 26.7971C46.3186 26.8327 46.3614 26.866 46.4018 26.9016C46.4399 26.9325 46.4779 26.9634 46.5159 26.9943C46.5587 27.0275 46.6015 27.0609 46.6443 27.0941C46.6823 27.1226 46.7227 27.1535 46.7631 27.182C46.8083 27.2153 46.8511 27.2462 46.8963 27.2771C46.9367 27.3056 46.9771 27.3317 47.0176 27.3603C47.0627 27.3912 47.1102 27.4197 47.1553 27.4506C47.1957 27.4767 47.2361 27.5028 47.2789 27.5266C47.3265 27.5551 47.3741 27.5837 47.424 27.6098C47.4668 27.6336 47.5072 27.6573 47.5499 27.6811C47.5999 27.7073 47.6498 27.7334 47.6997 27.7595C47.7425 27.7809 47.7829 27.8047 47.8257 27.826C47.878 27.8522 47.9279 27.876 47.9802 27.8997C48.023 27.9187 48.0658 27.9401 48.1086 27.9591C48.1609 27.9829 48.2155 28.0043 48.2678 28.0281C48.3106 28.0471 48.3533 28.0661 48.3985 28.0827C48.4532 28.1041 48.5079 28.1255 48.5626 28.1445C48.6054 28.1611 48.6505 28.1778 48.6933 28.192C48.7503 28.211 48.8073 28.2301 48.8644 28.2491C48.9072 28.2633 48.95 28.2776 48.9952 28.2918C49.0546 28.3085 49.114 28.3251 49.1735 28.3418C49.2162 28.3537 49.259 28.3655 49.3018 28.3774C49.3636 28.394 49.4254 28.4059 49.4896 28.4225C49.5324 28.4321 49.5728 28.444 49.6155 28.4511C49.6845 28.4653 49.7534 28.4772 49.8199 28.4891C49.858 28.4962 49.8937 28.5034 49.9317 28.5105C50.0315 28.5271 50.1338 28.5414 50.2336 28.5556C50.2407 28.5556 50.2455 28.558 50.2526 28.558C50.4428 28.5818 50.5925 28.596 50.6947 28.5984C50.709 28.5984 50.7232 28.6008 50.7351 28.6008H62.6296L69.0618 28.5295L43.6184 2.05078L43.5352 9.51058V21.4024C43.5352 21.4143 43.5352 21.431 43.5376 21.4429C43.5519 21.5498 43.5661 21.6995 43.5898 21.8896Z" fill="#009373"/>
    <path d="M71.6982 83.7124C67.9996 83.7813 64.3058 83.8478 61.5937 83.912C61.5865 83.912 61.577 83.912 61.5699 83.912C61.2799 83.912 60.9899 83.7956 60.6975 83.7361C60.9257 83.489 61.1111 83.1635 61.3916 83.0019C65.0474 80.901 68.7104 78.8121 72.3734 76.7184C73.8638 75.8676 75.3541 75.0168 76.8421 74.1637C78.7508 73.0681 80.4623 71.716 81.5153 69.7435C83.4621 66.1051 84.3011 62.1839 83.9945 58.0773C83.8209 55.7341 82.5256 54.092 80.1628 53.5335C79.2049 53.3078 78.197 53.1699 77.2105 53.1699C77.1416 53.1699 77.0727 53.1699 77.0061 53.1723C75.4611 53.2032 73.9184 53.2436 72.3734 53.2792C67.2509 53.3981 62.1261 53.5335 57.0037 53.6642C56.8349 53.6689 56.6685 53.6737 56.4902 53.6785C56.1859 55.304 55.884 56.9128 55.5798 58.5312C55.4063 59.4509 55.2351 60.373 55.0592 61.307C55.3326 61.2998 55.5561 61.2951 55.7795 61.2879C58.0401 61.2309 60.303 61.1739 62.5635 61.1168C65.0071 61.0551 67.4506 60.9909 69.8941 60.9315C70.0772 60.9267 70.2602 60.9243 70.4432 60.9243C70.8331 60.9243 71.2205 60.9339 71.6079 60.9576C71.8932 60.9743 72.1428 61.0218 72.3757 61.0812C73.4406 61.364 73.9422 62.1197 73.8685 63.4054C73.7711 65.0737 73.3241 66.5043 72.3757 67.6736C71.8528 68.32 71.1777 68.8855 70.3196 69.3632C67.7216 70.8105 65.1402 72.2887 62.5635 73.7716C61.7411 74.2445 60.9209 74.715 60.1008 75.1903C57.6169 76.6234 55.1354 78.0588 52.6443 79.4823C50.3505 80.7917 49.0122 82.605 48.3965 84.7818C48.0852 85.8893 47.9544 87.0917 47.9901 88.3727C48.0495 90.4925 49.4995 91.7663 51.5865 91.7663C51.6245 91.7663 51.6625 91.7663 51.7006 91.7639C53.2052 91.7306 54.7099 91.6879 56.2145 91.6498C63.0722 91.474 73.9042 91.2957 80.7618 91.1342C81.1945 91.1246 81.3845 91.0343 81.4582 90.5614C81.6793 89.1545 81.9669 87.7572 82.2308 86.3574C82.4043 85.4282 82.5826 84.5014 82.7751 83.4818C82.4518 83.489 82.2117 83.4961 81.9693 83.5033C79.2143 83.5722 75.4539 83.6435 71.6982 83.7124Z" fill="#009373"/>
</svg>
