<svg width="77" height="84" viewBox="0 0 77 84" fill="none" xmlns="http://www.w3.org/2000/svg">
    <path d="M44.3215 62.3867H32.1621V83.4525H44.3215V62.3867Z" fill="white"/>
    <path d="M65.026 36.9076C63.5561 34.8647 63.0235 34.3105 62.0669 34.3105C61.1102 34.3105 60.5776 34.8647 59.1077 36.9076C57.498 39.1482 55.0618 42.5307 50.2424 42.5307C45.423 42.5307 42.9867 39.1458 41.377 36.9076C39.9071 34.8647 39.3721 34.3105 38.4179 34.3105C37.4636 34.3105 36.9288 34.8647 35.4589 36.9076C33.8492 39.1482 31.4154 42.5307 26.5936 42.5307C21.7742 42.5307 19.3404 39.1458 17.7283 36.9076C16.2584 34.8647 15.7257 34.3105 14.7691 34.3105C13.8124 34.3105 13.2798 34.8647 11.8099 36.9076C10.2002 39.1482 7.76642 42.5307 2.94459 42.5307C1.84336 42.5307 0.869904 42.3524 0 42.0537V81.7135C0 82.7157 0.812137 83.5276 1.81457 83.5276H22.9694V56.5809C22.9694 54.4103 24.7357 52.6468 26.9045 52.6468H49.57C51.7412 52.6468 53.5051 54.4127 53.5051 56.5809V83.5276H74.6599C75.6624 83.5276 76.4745 82.7157 76.4745 81.7135V42.1669C75.6962 42.3958 74.8383 42.5307 73.8841 42.5307C69.0695 42.5307 66.6357 39.1458 65.026 36.9076Z" fill="white"/>
    <path d="M2.9473 32.1335C3.90154 32.1335 4.43633 31.5794 5.90625 29.5364C7.51593 27.2959 9.94975 23.9135 14.7716 23.9135C19.591 23.9135 22.0248 27.2983 23.6369 29.5364C25.1068 31.5794 25.6394 32.1335 26.5961 32.1335C27.5527 32.1335 28.0853 31.5794 29.5553 29.5364C31.1649 27.2959 33.5987 23.9135 38.4206 23.9135C43.2424 23.9135 45.6762 27.2983 47.2859 29.5364C48.7558 31.5794 49.2882 32.1335 50.2448 32.1335C51.2015 32.1335 51.7341 31.5794 53.204 29.5364C54.8137 27.2959 57.2475 23.9135 62.0693 23.9135C66.8887 23.9135 69.3226 27.2983 70.9347 29.5364C72.4046 31.5794 72.9372 32.1335 73.8938 32.1335C74.7637 32.1335 75.2866 31.671 76.4843 30.0448L73.3227 1.81411C73.3227 0.811899 72.5106 0 71.5081 0H4.9859C3.98346 0 3.17133 0.811899 3.17133 1.81411L0.00976562 29.5557C1.46041 31.5818 1.99547 32.1335 2.9473 32.1335Z" fill="white"/>
</svg>
