<svg width="95" height="95" viewBox="0 0 95 95" fill="none" xmlns="http://www.w3.org/2000/svg">
    <g clip-path="url(#clip0_470_22449)">
        <path d="M93.7076 43.4501L92.7359 41.5417C91.6646 39.4363 89.5328 38.2246 87.321 38.2246C86.8795 38.2246 86.4337 38.2765 85.9943 38.3761C85.5117 38.4842 85.0334 38.6509 84.5724 38.8867L80.917 40.7454L79.599 41.4162L67.9338 47.3513L67.739 47.4508L61.2008 50.7787L38.762 62.1947C35.7732 63.7158 34.5851 67.3704 36.1044 70.3564L37.0761 72.2649C38.1474 74.3702 40.2792 75.5819 42.491 75.5819C43.4173 75.5819 44.3566 75.3699 45.2396 74.9198L60.6489 67.0805L66.1158 64.2979L72.4938 61.0522L85.0528 54.6627L86.1566 54.1023L87.8166 53.2584L91.0521 51.6118C94.0388 50.0928 95.2269 46.4382 93.7076 43.4501Z" fill="#009373"/>
        <path d="M43.5423 34.0336C50.4397 34.0336 56.783 36.4527 61.7694 40.4859L75.5794 33.6203C75.1357 33.1378 74.6878 32.6639 74.2246 32.203C66.349 24.3724 55.5018 19.5234 43.5423 19.5234C19.5322 19.5234 0 39.0513 0 63.0561C0 64.2894 0.0562659 65.5097 0.157985 66.7171C0.404708 69.6512 0.943621 72.5052 1.74655 75.2467C1.792 75.4025 1.83312 75.5604 1.88073 75.7162H17.4264C17.3507 75.5626 17.2858 75.4025 17.2143 75.2467C15.4873 71.5358 14.5134 67.4095 14.5134 63.0561C14.5134 47.0529 27.5356 34.0336 43.5423 34.0336Z" fill="#009373"/>
        <path d="M69.8121 75.3725C69.758 75.4871 69.7104 75.604 69.6562 75.7165H85.202C85.2366 75.604 85.2669 75.4871 85.2993 75.3725C85.6391 74.2257 85.9291 73.0594 86.1737 71.878C86.6823 69.4178 86.9875 66.8841 87.0632 64.294C87.0697 64.0495 87.0719 63.8051 87.074 63.5605L71.3379 71.3825C70.9245 72.7565 70.4159 74.0894 69.8121 75.3725Z" fill="#009373"/>
    </g>
    <defs>
        <clipPath id="clip0_470_22449">
            <rect width="94.3682" height="94.3682" fill="white"/>
        </clipPath>
    </defs>
</svg>
