<svg width="94" height="88" viewBox="0 0 94 88" fill="none" xmlns="http://www.w3.org/2000/svg">
    <path d="M88.4348 35.4166H76.9192L83.063 0H70.0757L63.9452 35.4166H29.1291L22.9987 0H10.0114L16.1552 35.4166H4.63987C2.07821 35.4166 0 37.534 0 40.1441V50.4346V62.4071V73.7236C0 76.3337 2.07821 78.4511 4.63987 78.4511H21.2518V87.2093H32.2065V78.4511H60.9642V87.2093H71.9189V78.4511H88.4267C90.9884 78.4511 93.0666 76.3337 93.0666 73.7236V62.4071V50.4346V40.1441C93.0746 37.534 90.9964 35.4166 88.4348 35.4166ZM58.0981 62.8371H11.7506V50.6496H58.0981V62.8371ZM81.2706 62.8371H67.8158V50.6496H81.2706V62.8371Z" fill="#009373"/>
</svg>
