<svg width="49" height="49" viewBox="0 0 49 49" fill="none" xmlns="http://www.w3.org/2000/svg">
    <circle cx="24.3746" cy="24.3746" r="24.3746" fill="#009373"/>
    <path d="M21.0231 26.3529H16.5957V20.5446H21.0228C21.0228 20.4588 21.0228 20.3931 21.0228 20.3273C21.0238 19.17 20.9996 18.0117 21.0325 16.8551C21.0769 15.311 21.4857 13.8728 22.502 12.6546C23.5491 11.3995 24.9398 10.7455 26.5449 10.4894C27.6364 10.3154 28.7345 10.375 29.8305 10.4237C30.5167 10.454 31.2015 10.5163 31.8867 10.5654C31.9262 10.5681 31.9647 10.5803 32.0097 10.5892V15.1847C31.9501 15.1881 31.895 15.1939 31.8398 15.1939C30.973 15.1946 30.1065 15.1871 29.2397 15.1986C28.9294 15.2027 28.6145 15.2266 28.3108 15.2858C27.4544 15.4526 27.0414 15.8915 26.9904 16.7499C26.9433 17.5415 26.9554 18.3369 26.946 19.1309C26.9408 19.5902 26.945 20.0492 26.945 20.5361H32.154C32.1124 20.9133 32.0756 21.262 32.0351 21.6103C31.9123 22.6637 31.7878 23.7169 31.6641 24.77C31.6075 25.2487 31.5458 25.7267 31.4976 26.2061C31.4855 26.326 31.4428 26.3549 31.3281 26.3546C30.1783 26.3508 29.0285 26.3519 27.8788 26.3515C27.5785 26.3515 27.2786 26.3515 26.9519 26.3515V39.4152H21.0231V26.3529Z" fill="white"/>
</svg>
