<svg width="49" height="49" viewBox="0 0 49 49" fill="none" xmlns="http://www.w3.org/2000/svg">
    <circle cx="24.3746" cy="24.3746" r="24.3746" fill="#009373"/>
    <g clip-path="url(#clip0_851_3436)">
        <path d="M31.2129 38.378H17.5387C17.252 38.3331 16.9615 38.3041 16.6793 38.2407C13.5065 37.5251 11.4704 35.6045 10.6006 32.4667C10.4874 32.0592 10.4474 31.6314 10.373 31.2129C10.373 26.655 10.373 22.0966 10.373 17.5387C10.4485 17.1114 10.4907 16.6743 10.6055 16.2581C11.4146 13.3341 13.28 11.4463 16.2028 10.6236C16.6371 10.5011 17.0934 10.4546 17.5392 10.373C22.0971 10.373 26.6555 10.373 31.2134 10.373C31.5001 10.4179 31.7906 10.4469 32.0728 10.5104C35.2462 11.2259 37.2812 13.1476 38.1515 16.2843C38.2647 16.6918 38.3047 17.1196 38.3791 17.5381V31.2123C38.3036 31.6396 38.2614 32.0767 38.1466 32.493C37.3375 35.4152 35.4732 37.3047 32.5504 38.1269C32.1161 38.2489 31.6598 38.2959 31.214 38.3774L31.2129 38.378ZM24.3717 35.8939V35.8698C26.5686 35.8698 28.766 35.9158 30.9613 35.8556C32.7304 35.8069 34.0881 34.9278 35.0629 33.4645C35.6729 32.5488 35.8961 31.5203 35.895 30.4312C35.8917 26.5478 35.8944 22.6644 35.8928 18.781C35.8928 18.4533 35.889 18.1245 35.8682 17.7974C35.7533 16.019 34.9229 14.6536 33.4464 13.6782C32.5367 13.077 31.517 12.856 30.4372 12.8571C26.6178 12.8604 22.7979 12.8571 18.9785 12.8593C18.5687 12.8593 18.1579 12.8604 17.7487 12.8867C16.2083 12.9851 14.9621 13.6635 13.9972 14.8549C13.1843 15.8582 12.8544 17.0277 12.856 18.3083C12.861 22.137 12.8571 25.9657 12.8588 29.7944C12.8588 30.1954 12.861 30.5969 12.8856 30.9968C12.9819 32.5378 13.658 33.7856 14.8483 34.7511C15.8505 35.564 17.019 35.9004 18.3001 35.8966C20.3236 35.8906 22.3476 35.895 24.3711 35.895L24.3717 35.8939Z" fill="white"/>
        <path d="M31.5931 24.366C31.6029 28.3238 28.3513 31.5846 24.3848 31.5945C20.4264 31.6043 17.1667 28.3538 17.1563 24.3867C17.1464 20.4284 20.3969 17.1681 24.3646 17.1582C28.3224 17.1484 31.5832 20.4 31.5931 24.3665V24.366ZM29.0991 24.3802C29.1052 21.7752 26.9914 19.6576 24.3788 19.6516C21.7727 19.6456 19.6562 21.7582 19.6502 24.3714C19.6442 26.977 21.7568 29.094 24.37 29.1C26.975 29.106 29.0926 26.9923 29.0986 24.3796L29.0991 24.3802Z" fill="white"/>
        <path d="M31.8837 15.0625C32.8842 15.0554 33.7152 15.8754 33.719 16.8738C33.7223 17.8557 32.9034 18.6823 31.9171 18.6916C30.9122 18.7009 30.0867 17.8978 30.0686 16.8935C30.0511 15.9066 30.8804 15.0697 31.8842 15.0625H31.8837Z" fill="white"/>
    </g>
    <defs>
        <clipPath id="clip0_851_3436">
            <rect width="28.0049" height="28.0049" fill="white" transform="translate(10.373 10.373)"/>
        </clipPath>
    </defs>
</svg>
