<svg width="49" height="49" viewBox="0 0 49 49" fill="none" xmlns="http://www.w3.org/2000/svg">
    <circle cx="24.3746" cy="24.3746" r="24.3746" fill="#009373"/>
    <g clip-path="url(#clip0_343_17599)">
        <path d="M36.3034 13.6003V34.134C36.2829 34.1938 36.2493 34.252 36.2428 34.3126C36.1617 35.0705 35.7741 35.6219 35.1252 36.0045C34.7271 36.2397 34.2879 36.3003 33.8406 36.3011C27.1836 36.3044 20.5259 36.3044 13.8689 36.3019C13.3093 36.3019 12.7776 36.1946 12.3163 35.8431C11.6527 35.3384 11.4102 34.6469 11.4102 33.8456C11.4102 27.3427 11.4102 20.839 11.4118 14.3361C11.4118 14.037 11.4315 13.738 11.4528 13.4398C11.5199 12.4705 12.2622 11.6954 13.2077 11.4849C13.3315 11.457 13.456 11.4357 13.5805 11.4111C20.4251 11.4111 27.2696 11.4111 34.1142 11.4111C34.1814 11.4324 34.2478 11.466 34.3166 11.4726C35.2408 11.5562 36.0994 12.3525 36.2354 13.2538C36.2526 13.3701 36.2813 13.4848 36.3042 13.6012L36.3034 13.6003ZM25.0813 22.0311C25.0813 21.7747 25.0821 21.5256 25.0813 21.2773C25.0796 20.7948 24.8289 20.5408 24.3529 20.5399C23.4606 20.5391 22.5692 20.5399 21.677 20.5399C21.1666 20.5399 20.9118 20.789 20.9118 21.2945C20.9109 25.1461 20.9109 28.9977 20.9118 32.8493C20.9118 33.3475 21.1789 33.6129 21.6778 33.6138C22.5537 33.6154 23.4295 33.6154 24.3054 33.6138C24.8273 33.6138 25.0813 33.3598 25.0813 32.842C25.0813 30.8797 25.0829 28.9174 25.0813 26.9552C25.0813 26.3046 25.2173 25.6885 25.4999 25.1027C25.8989 24.276 26.656 23.8492 27.5793 23.9385C28.456 24.0237 29.0541 24.5218 29.277 25.4296C29.3876 25.8811 29.4564 26.3546 29.4605 26.8184C29.4802 28.8126 29.4679 30.8076 29.4679 32.8026C29.4679 33.3942 29.6924 33.6146 30.2937 33.6146C31.1778 33.6146 32.0618 33.6154 32.945 33.6146C33.4588 33.6146 33.7308 33.3549 33.7291 32.8395C33.7201 30.4799 33.7185 28.1202 33.6824 25.7614C33.6677 24.8135 33.5169 23.877 33.1597 22.9864C32.7165 21.8803 31.9864 21.0537 30.8419 20.6448C29.8742 20.2982 28.8763 20.2769 27.8694 20.4154C26.742 20.5703 25.8121 21.0692 25.1402 22.0073C25.1329 22.0172 25.114 22.0188 25.0821 22.0311H25.0813ZM14.9717 27.0764C14.9717 28.9732 14.9717 30.8699 14.9717 32.7666C14.9717 33.3671 15.2216 33.6138 15.832 33.6146C16.6341 33.6146 17.437 33.6146 18.2392 33.6146C18.8856 33.6146 19.1396 33.3639 19.1396 32.7207C19.1396 28.96 19.1396 25.1994 19.1396 21.4379C19.1396 21.3814 19.1412 21.324 19.1379 21.2675C19.115 20.8079 18.8364 20.5399 18.3743 20.5391C17.5067 20.5375 16.6398 20.5383 15.7722 20.5391C15.2249 20.5391 14.9709 20.7923 14.9709 21.338C14.9709 23.2511 14.9709 25.1633 14.9709 27.0764H14.9717ZM19.7287 16.8162C19.7303 15.3348 18.5202 14.1206 17.0438 14.1214C15.5813 14.1214 14.3589 15.3225 14.3662 16.8006C14.3736 18.3409 15.5706 19.4814 17.0536 19.4945C18.5218 19.5076 19.7278 18.2835 19.7295 16.8162H19.7287Z" fill="white"/>
    </g>
    <defs>
        <clipPath id="clip0_343_17599">
            <rect width="24.8933" height="24.8933" fill="white" transform="translate(11.4102 11.4111)"/>
        </clipPath>
    </defs>
</svg>
