<svg width="27" height="19" viewBox="0 0 27 19" fill="none" xmlns="http://www.w3.org/2000/svg">
    <path d="M11.5416 8.9961C11.5445 8.99899 11.5496 9.0033 11.5532 9.00691C11.582 9.0343 11.6267 9.07106 11.6851 9.11647C11.6873 9.11791 11.6894 9.11936 11.6909 9.1208C11.7219 9.1453 11.7536 9.16837 11.7853 9.19143C11.7976 9.20008 11.8098 9.208 11.8221 9.21665C11.8444 9.23179 11.866 9.24765 11.8884 9.26207C11.9021 9.27144 11.9165 9.27936 11.931 9.28801C11.9519 9.30098 11.9727 9.31468 11.9936 9.32693C12.0088 9.33558 12.0239 9.34424 12.0384 9.35217C12.0593 9.3637 12.0795 9.37595 12.1011 9.38676C12.1169 9.39541 12.1328 9.40263 12.1479 9.41055C12.1688 9.42137 12.189 9.43217 12.2099 9.44154C12.2265 9.44947 12.2424 9.45668 12.259 9.46389C12.2799 9.47326 12.3001 9.48262 12.321 9.49199C12.3375 9.4992 12.3549 9.50569 12.3714 9.5129C12.3923 9.52155 12.4125 9.53019 12.4334 9.53812C12.4507 9.5446 12.4673 9.55037 12.4846 9.55686C12.5055 9.56407 12.5264 9.572 12.5473 9.57921C12.5646 9.58497 12.5827 9.59074 12.6 9.59578C12.6209 9.60227 12.6411 9.60876 12.662 9.61525C12.68 9.62029 12.698 9.62533 12.716 9.62966C12.7369 9.63542 12.7579 9.64119 12.7788 9.64623C12.7968 9.65056 12.8148 9.6549 12.8336 9.6585C12.8545 9.66282 12.8754 9.66787 12.8963 9.67219C12.915 9.67579 12.933 9.67939 12.9518 9.68227C12.9727 9.68588 12.9936 9.68949 13.0138 9.6931C13.0326 9.69598 13.0513 9.69885 13.07 9.70101C13.0909 9.7039 13.1111 9.70679 13.132 9.70895C13.1508 9.71111 13.1695 9.71328 13.189 9.71472C13.2099 9.71689 13.2301 9.71832 13.251 9.72048C13.2705 9.72192 13.2892 9.72264 13.3079 9.72408C13.3288 9.72553 13.349 9.72625 13.37 9.72697C13.3894 9.72769 13.4081 9.72769 13.4276 9.72841C13.4478 9.72841 13.468 9.72913 13.4882 9.72841C13.4939 9.72841 13.5004 9.72841 13.5062 9.72769C13.512 9.72769 13.5184 9.72769 13.5242 9.72841C13.5444 9.72841 13.5646 9.72841 13.5848 9.72841C13.6043 9.72841 13.623 9.72769 13.6425 9.72697C13.6634 9.72625 13.6835 9.72553 13.7044 9.72408C13.7232 9.72336 13.7427 9.72192 13.7614 9.72048C13.7823 9.71904 13.8025 9.71689 13.8234 9.71472C13.8422 9.71256 13.8616 9.71111 13.8804 9.70895C13.9013 9.70679 13.9222 9.7039 13.9424 9.70101C13.9611 9.69813 13.9798 9.69598 13.9986 9.6931C14.0195 9.68949 14.0397 9.68588 14.0606 9.68227C14.0794 9.67867 14.0974 9.67579 14.1161 9.67219C14.137 9.66787 14.1579 9.66354 14.1788 9.6585C14.1969 9.65417 14.2149 9.65056 14.2336 9.64623C14.2545 9.64119 14.2755 9.63542 14.2964 9.62966C14.3144 9.62461 14.3324 9.62029 14.3504 9.61525C14.3713 9.60948 14.3922 9.60299 14.4124 9.59578C14.4297 9.59002 14.4478 9.58497 14.4651 9.57921C14.486 9.572 14.5069 9.56479 14.5278 9.55686C14.5451 9.55037 14.5624 9.5446 14.579 9.53812C14.5999 9.53019 14.6201 9.52155 14.641 9.5129C14.6575 9.50569 14.6749 9.4992 14.6914 9.49199C14.7124 9.48335 14.7325 9.47326 14.7534 9.46389C14.77 9.45668 14.7866 9.44947 14.8024 9.44154C14.8233 9.43145 14.8436 9.42064 14.8645 9.41055C14.8803 9.40263 14.8962 9.39469 14.912 9.38676C14.9329 9.37523 14.9539 9.3637 14.974 9.35217C14.9892 9.34352 15.0043 9.33558 15.0195 9.32693C15.0404 9.31468 15.0613 9.30098 15.0822 9.28801C15.0966 9.27936 15.1103 9.27072 15.1247 9.26207C15.1471 9.24765 15.1694 9.23179 15.191 9.21665C15.2033 9.208 15.2156 9.20008 15.2278 9.19143C15.2595 9.16837 15.2913 9.1453 15.3223 9.1208C15.3244 9.11936 15.3266 9.11791 15.328 9.11647C15.3864 9.07106 15.4311 9.0343 15.4599 9.00691C15.4635 9.0033 15.4686 8.99899 15.4715 8.9961L18.7179 5.75041L24.342 0H2.67188L8.29593 5.75041L11.5416 8.9961Z" fill="#E4E4E4"/>
    <path d="M25.0549 3.63518L19.1562 9.53263C19.0596 9.62922 18.9629 9.72219 18.8663 9.81301C18.4792 10.1756 18.0906 10.492 17.7013 10.7673C17.5679 10.8617 17.4345 10.949 17.3004 11.0333C17.1836 11.1075 17.0669 11.1775 16.9501 11.2445C16.909 11.2683 16.8679 11.2928 16.8268 11.3158C16.7691 11.3526 16.71 11.3879 16.6509 11.4232C16.6321 11.4341 16.6119 11.4449 16.5932 11.4557C16.5521 11.4787 16.5117 11.5025 16.4699 11.5249C16.4461 11.5378 16.4223 11.5494 16.3986 11.5616C16.3603 11.5818 16.3228 11.6013 16.2839 11.6207C16.2587 11.6337 16.232 11.6452 16.2061 11.6575C16.1686 11.6755 16.1311 11.6935 16.0929 11.7108C16.0655 11.7231 16.0381 11.7346 16.01 11.7469C15.9725 11.7627 15.9357 11.7793 15.8975 11.7952C15.8686 11.8067 15.8398 11.8182 15.8103 11.829C15.7728 11.8435 15.736 11.8586 15.6978 11.8723C15.6682 11.8831 15.6379 11.8939 15.6077 11.904C15.5702 11.917 15.5327 11.9307 15.4945 11.9436C15.4635 11.9537 15.4325 11.9631 15.4015 11.9732C15.3633 11.9854 15.3251 11.997 15.2869 12.0085C15.2551 12.0179 15.2227 12.0265 15.191 12.0352C15.1528 12.046 15.1145 12.0561 15.0756 12.0662C15.0425 12.0748 15.0093 12.082 14.9761 12.09C14.9379 12.0993 14.899 12.108 14.8608 12.1166C14.8269 12.1238 14.793 12.1303 14.7591 12.1368C14.7202 12.1447 14.6812 12.152 14.6423 12.1592C14.6077 12.1649 14.5731 12.1707 14.5378 12.1765C14.4989 12.1829 14.4592 12.1887 14.4196 12.1945C14.3842 12.1995 14.3482 12.2038 14.3129 12.2082C14.2732 12.2132 14.2336 12.2176 14.1939 12.2219C14.1579 12.2255 14.1218 12.2284 14.085 12.232C14.0454 12.2356 14.005 12.2384 13.9646 12.2413C13.9279 12.2435 13.8911 12.2457 13.8543 12.2471C13.814 12.2493 13.7736 12.2507 13.7332 12.2521C13.6957 12.2529 13.6582 12.2536 13.6207 12.2543C13.6063 12.2543 13.5912 12.255 13.5768 12.255C13.5696 12.255 13.5624 12.255 13.5552 12.255C13.5379 12.255 13.5205 12.255 13.5032 12.2558C13.4859 12.2558 13.4686 12.2558 13.4513 12.255C13.4441 12.255 13.4369 12.255 13.4297 12.255C13.4153 12.255 13.4009 12.2543 13.3857 12.2543C13.3482 12.2536 13.3108 12.2536 13.2733 12.2521C13.2329 12.2507 13.1925 12.2493 13.1521 12.2471C13.1154 12.2449 13.0786 12.2435 13.0418 12.2413C13.0015 12.2384 12.9618 12.2356 12.9215 12.232C12.8854 12.2291 12.8486 12.2255 12.8126 12.2219C12.7729 12.2176 12.7333 12.2132 12.6936 12.2082C12.6583 12.2038 12.6222 12.1995 12.5869 12.1945C12.5473 12.1887 12.5083 12.1829 12.4687 12.1765C12.4341 12.1707 12.3988 12.1656 12.3642 12.1592C12.3252 12.152 12.2863 12.1447 12.2474 12.1368C12.2135 12.1303 12.1789 12.1238 12.145 12.1166C12.1061 12.108 12.0678 12.0993 12.0296 12.09C11.9965 12.082 11.9633 12.0748 11.9302 12.0662C11.8912 12.0561 11.853 12.046 11.8148 12.0352C11.7824 12.0265 11.7506 12.0179 11.7189 12.0085C11.6807 11.997 11.6425 11.9854 11.6043 11.9732C11.5733 11.9638 11.5423 11.9545 11.5113 11.9436C11.4731 11.9314 11.4356 11.9177 11.3981 11.904C11.3678 11.8932 11.3375 11.8831 11.308 11.8723C11.2705 11.8586 11.233 11.8435 11.1955 11.829C11.1667 11.8175 11.1371 11.8067 11.1083 11.7952C11.0708 11.7793 11.0333 11.7635 10.9958 11.7469C10.9684 11.7346 10.9403 11.7231 10.9129 11.7108C10.8747 11.6935 10.8372 11.6755 10.7997 11.6575C10.7738 11.6452 10.7478 11.633 10.7218 11.6207C10.6829 11.6013 10.6454 11.5818 10.6072 11.5616C10.5834 11.5494 10.5596 11.5371 10.5358 11.5249C10.494 11.5025 10.4536 11.4787 10.4125 11.4557C10.3931 11.4449 10.3736 11.4341 10.3549 11.4232C10.2958 11.3886 10.2367 11.3526 10.179 11.3158C10.1379 11.2935 10.0968 11.2683 10.0557 11.2445C9.93891 11.1775 9.82209 11.1075 9.7053 11.0333C9.57193 10.949 9.43855 10.861 9.30445 10.7673C8.91514 10.4927 8.52658 10.1756 8.13943 9.81301C8.04283 9.72219 7.94622 9.62922 7.84961 9.53263L1.95084 3.63518L0 1.64941V18.4898H27V1.64941L25.0549 3.63518Z" fill="#E4E4E4"/>
</svg>
