<svg width="48" height="49" viewBox="0 0 48 49" fill="none" xmlns="http://www.w3.org/2000/svg">
    <ellipse cx="23.856" cy="24.3746" rx="23.856" ry="24.3746" fill="#009373"/>
    <path d="M21.8575 24.9971C21.3218 24.9626 20.8103 24.8713 20.3086 24.9084C18.7086 25.026 17.516 25.8259 16.8307 27.2563C16.1394 28.699 16.2685 30.1343 17.2007 31.4494C18.1445 32.7808 20.0669 33.4289 21.6633 33.0024C23.3107 32.5624 24.5389 31.1493 24.7216 29.4798C24.736 29.349 24.7312 29.2156 24.7312 29.0836C24.7317 22.6745 24.7315 16.2657 24.7317 9.85659C24.7317 9.51529 24.8988 9.34456 25.233 9.3444C26.1844 9.3444 27.1357 9.3545 28.0869 9.33806C28.3701 9.33313 28.4808 9.43693 28.5412 9.70159C28.9155 11.3453 29.8218 12.6355 31.1428 13.6855C32.2889 14.5964 33.5872 15.0034 35.0205 15.075C35.1796 15.083 35.2667 15.1124 35.2662 15.2941C35.2615 17.1961 35.2619 19.0979 35.2598 20.9999C35.2598 21.0283 35.2433 21.0565 35.2251 21.1147C34.2579 21.0097 33.312 20.8003 32.4229 20.4151C31.5374 20.0316 30.6854 19.5716 29.794 19.1331V19.4412C29.794 22.5949 29.794 25.7486 29.794 28.9021C29.794 33.5809 26.625 37.3461 21.9795 38.049C19.0218 38.4966 16.4311 37.6258 14.2291 35.5864C12.163 33.6729 11.3018 31.2897 11.421 28.5418C11.6095 24.1958 15.0225 20.5292 19.3636 19.9978C20.1065 19.9069 20.8717 19.9983 21.6267 20.0034C21.8006 20.0046 21.8771 20.0685 21.8764 20.258C21.8707 21.8244 21.874 23.391 21.8736 24.9574C21.8736 24.9758 21.8589 24.9941 21.8575 24.9971Z" fill="white"/>
</svg>

