<svg width="1440" height="125" viewBox="0 0 1440 125" fill="none" xmlns="http://www.w3.org/2000/svg">
<path d="M720.5 0C734.684 0 747.765 4.72521 758.255 12.6874C780.292 29.4162 802.723 53 830.391 53H1439C1439.55 53 1440 53.4477 1440 54V124C1440 124.552 1439.55 125 1439 125H1C0.447721 125 4.02672e-09 124.552 0 124V54C2.57704e-07 53.4477 0.447715 53 1 53H610.609C638.277 53 660.708 29.4162 682.745 12.6874C693.235 4.72521 706.316 0 720.5 0Z" fill="#003B2E"/>
<path d="M717.892 22.5102L713.428 29.2794C713.154 29.6948 713 30.2581 713 30.8453C713 31.4326 713.154 31.9957 713.428 32.4109C713.702 32.8261 714.073 33.0592 714.461 33.0591C714.848 33.0589 715.22 32.8255 715.493 32.4102L719.957 25.641C720.002 25.5722 720.056 25.5177 720.115 25.4805C720.174 25.4433 720.238 25.4241 720.302 25.4241C720.366 25.4241 720.429 25.4433 720.488 25.4805C720.548 25.5177 720.601 25.5722 720.646 25.641L725.11 32.4102C725.384 32.8255 725.756 33.0589 726.143 33.0591C726.53 33.0592 726.902 32.8261 727.176 32.4109C727.45 31.9957 727.604 31.4326 727.604 30.8453C727.604 30.2581 727.45 29.6948 727.176 29.2794L722.711 22.5102C722.072 21.5431 721.205 21 720.302 21C719.398 21 718.532 21.5431 717.892 22.5102Z" fill="white"/>
</svg>
