<svg width="50" height="50" viewBox="0 0 50 50" fill="none" xmlns="http://www.w3.org/2000/svg">
    <circle cx="24.9926" cy="24.9926" r="24.9926" fill="#009373"/>
    <path d="M38.1917 38.0516C38.09 37.8948 37.98 37.7437 37.8756 37.5892C36.0195 34.8417 34.1639 32.093 32.3072 29.3461C30.9265 27.3028 29.5469 25.2583 28.1562 23.2218C28.0123 23.0109 28.0207 22.8807 28.1917 22.7019C28.4489 22.433 28.6805 22.1387 28.921 21.8539C31.247 19.1064 33.5724 16.3589 35.8984 13.6113C36.4211 12.9939 36.9442 12.3771 37.513 11.7056C36.7965 11.7056 36.16 11.7135 35.523 11.7011C35.3275 11.6971 35.2025 11.762 35.077 11.9108C32.4466 15.0231 29.8096 18.1293 27.1826 21.2444C27.0054 21.4547 26.9454 21.4288 26.8033 21.2179C24.7288 18.136 22.6439 15.0609 20.5661 11.9813C20.4362 11.789 20.3046 11.6971 20.0546 11.6983C17.7314 11.7112 15.4087 11.7061 13.0855 11.7061H12.7617C13.0455 12.1307 13.2955 12.5079 13.5493 12.8834C16.5484 17.3162 19.5459 21.7507 22.5545 26.1774C22.7194 26.4198 22.6961 26.55 22.5156 26.7626C19.3804 30.4483 16.2541 34.1425 13.1261 37.8356C13.0161 37.9653 12.9128 38.1012 12.7739 38.2743C13.5271 38.2743 14.2185 38.2715 14.91 38.2771C15.0366 38.2782 15.0888 38.1897 15.1516 38.1153C15.9669 37.1562 16.78 36.1954 17.5931 35.2347C19.5931 32.8711 21.5931 30.5081 23.5903 28.1423C23.7058 28.0053 23.768 27.9703 23.8863 28.1491C24.4739 29.0371 25.0743 29.9167 25.6702 30.7985C27.3181 33.2359 28.9665 35.6728 30.6122 38.1119C30.6938 38.2331 30.7849 38.2833 30.9321 38.2799C31.3575 38.2703 31.7835 38.2765 32.2089 38.2765C34.1617 38.2765 36.1145 38.2777 38.0672 38.2754C38.1367 38.2754 38.23 38.3143 38.2733 38.2427C38.32 38.1643 38.23 38.1102 38.1922 38.0516H38.1917ZM35.1797 36.5856C35.1381 36.6567 35.0442 36.62 34.9748 36.62C33.994 36.6223 33.0131 36.6172 32.0323 36.6268C31.8535 36.6285 31.7468 36.5698 31.6469 36.4238C30.1784 34.2829 28.7049 32.1455 27.2331 30.0069C25.4914 27.4758 23.7502 24.9448 22.0091 22.4138C20.4379 20.1292 18.8666 17.844 17.2954 15.5593C16.8617 14.9284 16.4251 14.2992 15.9925 13.6677C15.9519 13.6085 15.8864 13.5617 15.8858 13.436C16.98 13.436 18.0619 13.4388 19.1438 13.4326C19.3065 13.4315 19.3665 13.5358 19.4404 13.6435C21.006 15.9208 22.5722 18.1981 24.1396 20.4748C26.2523 23.5437 28.3667 26.6109 30.4789 29.6804C32.0184 31.9182 33.5558 34.1583 35.092 36.399C35.1309 36.4554 35.2275 36.5039 35.1797 36.5851V36.5856Z" fill="white"/>
</svg>
