<svg width="18" height="18" viewBox="0 0 18 18" fill="none" xmlns="http://www.w3.org/2000/svg">
    <g clip-path="url(#clip0_475_17633)">
        <path d="M0.000273574 17.4306C0.186851 16.7529 0.364674 16.1074 0.541949 15.4613C0.758073 14.6741 0.976384 13.8877 1.18485 13.0983C1.20673 13.0158 1.1947 12.9033 1.15421 12.8288C-0.624569 9.56825 -0.204086 5.6835 2.26984 2.90298C3.77641 1.21003 5.68131 0.237411 7.94786 0.0361693C11.7779 -0.303784 15.2419 1.77608 16.7561 5.28811C18.2009 8.63932 17.2661 12.704 14.5073 15.1028C13.07 16.3526 11.4083 17.083 9.50942 17.2518C7.84144 17.4 6.25636 17.0836 4.76647 16.3174C4.64966 16.2573 4.54926 16.2447 4.42232 16.2783C3.01423 16.6505 1.60478 17.0167 0.195605 17.3845C0.143353 17.3981 0.0905529 17.4093 0 17.4309L0.000273574 17.4306ZM2.08545 15.3753C2.14099 15.3633 2.16917 15.3584 2.1968 15.3513C2.97785 15.1481 3.76054 14.9504 4.53886 14.7375C4.72817 14.6856 4.87508 14.7031 5.04798 14.8019C7.16271 16.011 9.36716 16.189 11.6064 15.2265C14.7221 13.8874 16.4024 10.7296 15.8509 7.38026C15.316 4.13282 12.4137 1.58275 9.10371 1.45851C7.27597 1.38998 5.63124 1.90632 4.21413 3.06217C2.57761 4.39713 1.68275 6.13349 1.55116 8.23656C1.45322 9.7998 1.85264 11.2464 2.70893 12.5631C2.78443 12.6792 2.80139 12.7799 2.76309 12.9156C2.53411 13.7242 2.31553 14.5354 2.08518 15.3756L2.08545 15.3753Z" fill="#E4E4E4"/>
        <path d="M5.93993 4.65778C6.32786 4.55648 6.5024 4.8025 6.63426 5.14273C6.82631 5.63887 7.03532 6.12873 7.24762 6.61668C7.32586 6.7969 7.32121 6.95417 7.20302 7.10982C7.03067 7.33645 6.86598 7.5691 6.68542 7.7889C6.56888 7.93089 6.55547 8.0595 6.64958 8.21787C7.35841 9.41058 8.35176 10.271 9.64686 10.7835C9.81593 10.8504 9.95381 10.8209 10.0684 10.6786C10.2892 10.405 10.5179 10.1377 10.7299 9.85757C10.8473 9.70275 10.986 9.64568 11.1562 9.72459C11.7777 10.0127 12.3976 10.3043 13.0096 10.6112C13.0827 10.6478 13.145 10.7871 13.1434 10.8777C13.1264 11.7911 12.857 12.2351 11.865 12.6476C11.3047 12.8808 10.7253 12.8219 10.1494 12.6618C8.06478 12.0824 6.52894 10.7761 5.29813 9.05697C4.90747 8.51141 4.55483 7.94782 4.4112 7.28403C4.20985 6.35427 4.4454 5.54849 5.13344 4.8795C5.35312 4.6657 5.61931 4.62146 5.93993 4.65778Z" fill="#E4E4E4"/>
    </g>
    <defs>
        <clipPath id="clip0_475_17633">
            <rect width="17.4305" height="17.4305" fill="white"/>
        </clipPath>
    </defs>
</svg>
