<svg width="49" height="49" viewBox="0 0 49 49" fill="none" xmlns="http://www.w3.org/2000/svg">
    <circle cx="24.3746" cy="24.3746" r="24.3746" fill="#009373"/>
    <path d="M24.6562 10.333C32.1837 10.333 38.286 16.4353 38.2861 23.9629C38.2861 31.4904 32.1838 37.5927 24.6562 37.5928C22.2577 37.5928 20.0038 36.9736 18.0459 35.8857L10.6348 38.2666L12.9912 31.0254C11.7363 28.963 11.0264 26.5534 11.0264 23.9629C11.0265 16.4353 17.1286 10.333 24.6562 10.333ZM24.7148 12.5605C18.4351 12.5606 13.344 17.6509 13.3438 23.9307C13.3438 26.3241 14.0837 28.545 15.3467 30.377L14.0654 34.8242L18.4023 33.3906C20.2081 34.598 22.3794 35.3017 24.7148 35.3018C30.9949 35.3018 36.0859 30.2107 36.0859 23.9307C36.0857 17.6508 30.9947 12.5605 24.7148 12.5605Z" fill="white"/>
    <path d="M21.2154 18.2904L22.5333 21.0795C22.6427 21.3109 22.6155 21.5837 22.4627 21.789L21.5389 23.0304C21.4178 23.1932 21.4072 23.4128 21.5118 23.5866C21.9942 24.3871 23.523 26.5984 26.1402 27.4727C26.309 27.5291 26.495 27.4758 26.6069 27.3374L27.7017 25.9834C27.9046 25.7324 28.254 25.6549 28.5441 25.7964L31.1607 27.0728C31.3988 27.1889 31.5498 27.4305 31.5498 27.6954V28.1041C31.5498 28.4262 31.4635 28.743 31.2965 29.0184C30.8039 29.8308 29.5142 31.1947 26.6422 30.2721C26.4076 30.1967 26.172 30.1359 25.9433 30.0441C24.6314 29.5174 20.5982 28.0191 18.1893 22.5593C18.1087 22.3768 18.049 22.1859 18.0119 21.9899C17.8729 21.2561 17.7473 19.5555 19.1637 18.2756C19.4361 18.0295 19.7903 17.8936 20.1574 17.8936H20.589C20.857 17.8936 21.1009 18.0481 21.2154 18.2904Z" fill="white"/>
</svg>
