<svg width="49" height="49" viewBox="0 0 49 49" fill="none" xmlns="http://www.w3.org/2000/svg">
    <circle cx="24.3746" cy="24.3746" r="24.3746" fill="#009373"/>
    <path d="M24.4932 35.2496C21.7613 35.2496 19.0291 35.2293 16.2974 35.2555C13.1956 35.3117 9.85603 33.4858 9.40234 29.1932C9.28117 25.982 9.34097 22.7717 9.46041 19.5635C9.571 16.5937 12.2049 13.9671 15.1403 13.7277C20.9222 13.2563 26.7112 13.6334 32.496 13.533C34.4331 13.4994 36.2799 14.0737 37.6151 15.4551C38.6366 16.5119 39.3881 17.9064 39.3901 19.5297C39.3938 22.5535 39.4259 25.5775 39.4117 28.6012C39.3935 32.4621 36.7631 35.28 32.9105 35.2659C30.1048 35.2556 27.299 35.2639 24.4932 35.2639C24.4932 35.2592 24.4932 35.2544 24.4932 35.2496ZM21.1406 24.5593C21.1406 25.9008 21.1611 27.2427 21.1325 28.5835C21.1164 29.338 21.389 29.4407 21.9776 29.0773C24.1765 27.72 26.374 26.3601 28.5794 25.0134C29.1607 24.6585 29.1757 24.196 28.6563 23.8971C26.4223 22.6115 24.3467 21.0621 22.0324 19.9062C21.1597 19.4703 21.1264 19.8471 21.1337 20.5349C21.148 21.8763 21.1379 23.2178 21.1406 24.5593Z" fill="white"/>
</svg>
