<svg width="38" height="36" viewBox="0 0 38 36" fill="none" xmlns="http://www.w3.org/2000/svg">
<path d="M36.0557 14.7992H31.3689L33.8693 0.645996H28.5834L26.0893 14.7992H11.9183L9.42415 0.645996H4.13832L6.63871 14.7992H1.95191C0.908788 14.7992 0.0639648 15.6453 0.0639648 16.6878V30.1064C0.0639648 31.1498 0.90982 31.995 1.95191 31.995H8.71359V35.4953H13.1721V31.995H24.8768V35.4953H29.3353V31.995H36.0536C37.0967 31.995 37.9416 31.1488 37.9416 30.1064V16.6878C37.9416 15.6443 37.0957 14.7992 36.0536 14.7992H36.0557ZM23.7087 25.7557H4.84372V20.8855H23.7076V25.7557H23.7087ZM33.1401 25.7557H27.6632V20.8855H33.1401V25.7557Z" fill="#009373"/>
</svg>
