<svg width="42" height="42" viewBox="0 0 42 42" fill="none" xmlns="http://www.w3.org/2000/svg">
<rect width="42" height="42" rx="8" fill="#009373"/>
<g clip-path="url(#clip0_3946_537)">
<path d="M32.5582 24.3608C31.8165 24.3608 31.2632 24.1529 30.9093 23.815C32.1308 23.1433 33.3783 22.4575 33.604 22.3337C34.5695 21.8026 34.9914 21.2074 34.9914 20.2204C34.9914 19.7459 34.8098 18.3936 32.2052 18.3936C28.986 18.3936 28.488 21.3398 28.488 22.6918C28.488 22.9076 28.5095 23.1196 28.5501 23.3258C27.8392 23.7299 27.3173 24.0267 27.3173 24.0267C26.8705 24.2806 26.6599 24.3608 26.4797 24.3608C26.0497 24.3608 25.8916 24.013 25.9582 23.6335L26.5797 20.0986H28.6587L28.9556 18.4591H26.8678L27.1562 16.8196H25.1994L24.9117 18.4591H21.0573C19.3278 18.4591 18.4906 19.619 18.4906 20.8026C18.4906 21.4637 18.7763 22.015 19.5384 22.4774L21.261 23.5224C21.4153 23.616 21.4962 23.7951 21.4651 23.9735C21.4259 24.1975 21.232 24.3612 21.0057 24.3612H15.5959C14.8542 24.3612 14.301 24.1533 13.947 23.8154C15.1686 23.1436 16.4161 22.4579 16.6417 22.334C17.6073 21.8029 18.0291 21.2077 18.0291 20.2207C18.0291 19.7463 17.8476 18.3939 15.243 18.3939C12.0237 18.3939 11.5254 21.3401 11.5254 22.6922C11.5254 22.908 11.5469 23.12 11.5875 23.3262C10.8766 23.7303 10.3547 24.027 10.3547 24.027C9.90792 24.2809 9.69733 24.3612 9.51711 24.3612C9.08706 24.3612 8.92903 24.0133 8.99559 23.6339L10.3376 16H8.38054L7.03337 23.6788C6.82074 24.8898 7.62658 26.0003 8.97135 26.0003C9.83556 26.0003 10.4271 25.7502 11.3971 25.2168C11.3971 25.2168 11.7466 25.0247 12.2657 24.7392C12.906 25.5008 13.9337 26.0003 15.2423 26.0003H20.7207C22.6652 26.0003 23.5147 24.755 23.5147 23.7046C23.5147 22.817 23.1342 22.4445 22.372 21.9824L20.6596 20.9436C20.4996 20.8465 20.4153 20.6602 20.4477 20.4749C20.4859 20.2574 20.674 20.0989 20.8934 20.0989H24.6237L23.9956 23.6792C23.783 24.8902 24.5888 26.0007 25.9336 26.0007C26.7978 26.0007 27.3893 25.7506 28.3593 25.2171C28.3593 25.2171 28.7092 25.025 29.228 24.7396C29.8683 25.5012 30.896 26.0007 32.2046 26.0007H34.7115L34.9992 24.3612H32.5578L32.5582 24.3608ZM15.0836 20.0344C15.8911 20.0344 16.0611 20.2821 16.0611 20.4856C16.0611 20.7655 15.9263 20.8599 15.4734 21.1172C15.3174 21.2057 14.4648 21.6904 13.4985 22.2397C13.5668 21.2859 13.8893 20.0344 15.0836 20.0344ZM32.0459 20.0344C32.8534 20.0344 33.0234 20.2821 33.0234 20.4856C33.0234 20.7655 32.8886 20.8599 32.4356 21.1172C32.2797 21.2057 31.4271 21.6904 30.4608 22.2397C30.5291 21.2859 30.8516 20.0344 32.0459 20.0344Z" fill="white"/>
</g>
<defs>
<clipPath id="clip0_3946_537">
<rect width="28" height="10" fill="white" transform="translate(7 16)"/>
</clipPath>
</defs>
</svg>
