<svg preserveAspectRatio="xMidYMid meet" data-bbox="0 0 153.2 45.4" viewBox="0 0 153.2 45.4" xmlns="http://www.w3.org/2000/svg" data-type="color" role="presentation" aria-hidden="true" aria-label="" wixshapeid="407be7_531c744a58a04db19d8db24349ec6f67.svg">
    <g>
        <path d="M147.5 45.4H5.7c-3.1 0-5.7-2.6-5.7-5.7v-34C0 2.6 2.6 0 5.7 0h141.8c3.1 0 5.7 2.6 5.7 5.7v34c0 3.1-2.5 5.7-5.7 5.7" fill="#ffffff" data-color="1"></path>
        <g>
            <g>
                <path d="M32.4 21.9c0-2.3 1.2-4.3 3.1-5.5-1.2-1.7-3.2-2.8-5.3-2.9-2.2-.2-4.4 1.3-5.5 1.3-1.2 0-2.9-1.3-4.8-1.3-2.5.1-4.7 1.5-6 3.6-2.6 4.5-.7 11 1.8 14.6 1.2 1.8 2.7 3.7 4.6 3.7 1.8-.1 2.5-1.2 4.8-1.2s2.9 1.2 4.8 1.1c2 0 3.2-1.8 4.4-3.6.9-1.3 1.6-2.6 2-4.1-2.4-.9-3.9-3.2-3.9-5.7Z" fill="#005542" data-color="2"></path>
                <path d="M28.8 11.1c1.1-1.3 1.6-3 1.5-4.6-1.7.2-3.2 1-4.3 2.2s-1.6 2.8-1.5 4.5c1.6 0 3.2-.8 4.3-2.1Z" fill="#005542" data-color="2"></path>
            </g>
        </g>
        <path d="M54.6 31.1h-6.1L47 35.4h-2.6l5.7-15.9h2.7l5.7 15.9h-2.6l-1.3-4.3Zm-5.5-1.9h4.8l-2.4-7h-.1l-2.3 7Z" fill="#005542" data-color="2"></path>
        <path d="M71 29.6c0 3.6-1.9 5.9-4.8 5.9-1.5.1-2.9-.7-3.6-2h-.1v5.7h-2.4V23.9h2.3v1.9c.8-1.3 2.2-2.1 3.7-2 3-.1 4.9 2.3 4.9 5.8Zm-2.4 0c0-2.3-1.2-3.9-3.1-3.9-1.8 0-3 1.6-3 3.9s1.2 3.9 3 3.9c1.9 0 3.1-1.5 3.1-3.9Z" fill="#005542" data-color="2"></path>
        <path d="M83.8 29.6c0 3.6-1.9 5.9-4.8 5.9-1.5.1-2.9-.7-3.6-2h-.1v5.7h-2.4V23.9h2.3v1.9c.8-1.3 2.2-2.1 3.7-2 2.9-.1 4.9 2.3 4.9 5.8Zm-2.5 0c0-2.3-1.2-3.9-3.1-3.9-1.8 0-3 1.6-3 3.9s1.2 3.9 3 3.9c1.9 0 3.1-1.5 3.1-3.9Z" fill="#005542" data-color="2"></path>
        <path d="M92.2 31c.2 1.6 1.7 2.6 3.8 2.6s3.4-1 3.4-2.5c0-1.2-.9-2-2.9-2.5l-2.1-.5c-2.9-.7-4.3-2.1-4.3-4.3 0-2.7 2.4-4.6 5.8-4.6s5.7 1.9 5.7 4.6h-2.3c-.1-1.6-1.5-2.5-3.4-2.5s-3.2 1-3.2 2.4c0 1.1.8 1.8 2.9 2.3l1.8.4c3.3.8 4.6 2.1 4.6 4.4 0 3-2.4 4.8-6.1 4.8-3.5 0-5.9-1.8-6.1-4.7l2.4.1Z" fill="#005542" data-color="2"></path>
        <path d="M107.1 21.1v2.7h2.2v1.9h-2.2v6.4c0 1 .4 1.5 1.4 1.5.3 0 .5 0 .8-.1v1.9c-.4.1-.9.1-1.3.1-2.3 0-3.3-.9-3.3-3.1v-6.7H103v-1.9h1.7v-2.7h2.4Z" fill="#005542" data-color="2"></path>
        <path d="M110.6 29.6c0-3.6 2.1-5.9 5.5-5.9s5.5 2.3 5.5 5.9-2.1 5.9-5.5 5.9c-3.4.1-5.5-2.2-5.5-5.9Zm8.5 0c0-2.5-1.1-4-3.1-4s-3.1 1.5-3.1 4 1.1 4 3.1 4 3.1-1.4 3.1-4Z" fill="#005542" data-color="2"></path>
        <path d="M123.5 23.9h2.3v2h.1c.3-1.3 1.5-2.1 2.8-2.1.3 0 .5 0 .8.1v2.2c-.3-.1-.7-.2-1.1-.1-1.3-.1-2.4 1-2.5 2.3v7.3h-2.4V23.9Z" fill="#005542" data-color="2"></path>
        <path d="M140.4 32c-.3 2.1-2.4 3.5-5 3.5-3.4 0-5.5-2.3-5.5-5.9s2.1-6 5.4-6 5.2 2.2 5.2 5.7v.8h-8.2v.1c-.1 1.7 1.1 3.1 2.7 3.3h.4c1.2.1 2.2-.6 2.7-1.6l2.3.1Zm-8-3.4h5.8c.1-1.5-1.1-2.9-2.6-2.9h-.2c-1.7-.1-3 1.2-3 2.9Z" fill="#005542" data-color="2"></path>
        <path d="M48.7 9c.5.3.9.7 1.2 1.2.3.5.4 1.1.4 1.8s-.1 1.3-.4 1.8-.7.9-1.2 1.2c-.5.3-1.1.4-1.8.4h-2.3V8.7h2.3c.6-.1 1.2 0 1.8.3Zm-.3 4.5c.4-.4.6-.9.6-1.6s-.2-1.2-.6-1.6-.9-.6-1.6-.6h-.9v4.4h.9c.7 0 1.2-.2 1.6-.6Z" fill="#005542" data-color="2"></path>
        <path d="M52.7 8.6v6.7h-1.4V8.6h1.4Z" fill="#005542" data-color="2"></path>
        <path d="M55 15.1c-.4-.2-.7-.4-.9-.7-.2-.3-.3-.7-.3-1.1h1.4c0 .3.1.5.3.6.2.2.4.2.7.2s.6-.1.7-.2c.2-.1.3-.3.3-.6 0-.2-.1-.4-.2-.5s-.3-.2-.5-.3c-.2-.1-.4-.2-.7-.2-.4-.1-.8-.3-1.1-.4-.3-.1-.5-.3-.7-.6-.2-.3-.3-.6-.3-1s.1-.7.3-1c.2-.3.5-.5.8-.7.4-.2.8-.2 1.2-.2.7 0 1.2.2 1.7.5.4.3.7.8.7 1.4h-1.5c0-.2-.1-.4-.3-.6-.2-.1-.4-.2-.7-.2s-.5.1-.6.2c-.2.1-.2.3-.2.6 0 .2.1.3.2.4s.3.2.4.3c.2.1.4.2.7.3.4.1.8.3 1.1.4.3.1.5.3.7.6.2.3.3.6.3 1s-.1.7-.3 1c-.2.3-.5.5-.8.7-.4.2-.8.3-1.3.3-.3 0-.7-.1-1.1-.2Z" fill="#005542" data-color="2"></path>
        <path d="M64.4 11.7c-.2.3-.4.6-.8.8-.4.2-.8.3-1.4.3h-1.1v2.6h-1.3V8.7h2.5c.5 0 1 .1 1.3.3.4.2.6.4.8.7s.3.7.3 1.1c-.1.2-.1.5-.3.9Zm-1.4-.3c.2-.2.3-.4.3-.7 0-.6-.4-1-1.1-1h-1.1v1.9h1.1c.4 0 .6-.1.8-.2Z" fill="#005542" data-color="2"></path>
        <path d="M67 14.9c-.5-.3-.9-.7-1.2-1.2-.3-.5-.5-1.1-.5-1.8 0-.6.2-1.2.5-1.8.3-.5.7-.9 1.2-1.2.5-.3 1.1-.4 1.7-.4s1.2.1 1.7.4.9.7 1.2 1.2c.3.5.5 1.1.5 1.8s-.2 1.2-.5 1.8c-.3.5-.7.9-1.2 1.2-.5.3-1.1.4-1.7.4-.6 0-1.2-.1-1.7-.4Zm2.7-1c.3-.2.5-.4.7-.8.2-.3.3-.7.3-1.2s-.1-.8-.3-1.2c-.2-.3-.4-.6-.7-.8-.3-.2-.7-.3-1.1-.3s-.8.1-1.1.3c-.3.2-.5.4-.7.8-.2.3-.3.7-.3 1.2s.1.8.3 1.2c.2.3.4.6.7.8.3.2.7.3 1.1.3.5-.1.8-.2 1.1-.3Z" fill="#005542" data-color="2"></path>
        <path d="M78.8 15.3h-1.3l-3-4.6v4.6h-1.3V8.6h1.3l3 4.6V8.6h1.3v6.7Z" fill="#005542" data-color="2"></path>
        <path fill="#005542" d="M81.4 8.6v6.7h-1.3V8.6h1.3z" data-color="2"></path>
        <path d="m88.7 8.6-2.4 6.7h-1.6l-2.4-6.7h1.4l1.8 5.3 1.8-5.3h1.4Z" fill="#005542" data-color="2"></path>
        <path d="M90.9 9.7v1.7h2.2v1.1h-2.2v1.8h2.5v1.1h-3.9V8.7h3.9v1h-2.5Z" fill="#005542" data-color="2"></path>
        <path d="M95.9 14.2h2.2v1.1h-3.5V8.6h1.3v5.6Z" fill="#005542" data-color="2"></path>
        <path d="M107 15.3h-1.3l-3-4.6v4.6h-1.4V8.6h1.3l3 4.6V8.6h1.3v6.7h.1Z" fill="#005542" data-color="2"></path>
        <path d="M112.4 14h-2.7l-.4 1.3h-1.4l2.4-6.7h1.6l2.4 6.7h-1.4l-.5-1.3Zm-.4-1.1-1-2.8-1 2.8h2Z" fill="#005542" data-color="2"></path>
        <path fill="#005542" d="m82.18 6.63-.92 1.42h-.84l.84-1.42h.92z" data-color="2"></path>
    </g>
</svg>