<svg width="64px" height="64px" viewBox="0 0 75.80 75.80" xmlns="http://www.w3.org/2000/svg" fill="#fff" transform="rotate(0)" stroke="#fff" stroke-width="0.00075804"><g id="SVGRepo_bgCarrier" stroke-width="0" transform="translate(0,0), scale(1)"></g><g id="SVGRepo_tracerCarrier" stroke-linecap="round" stroke-linejoin="round" stroke="#ff" stroke-width="5.003064"> <g id="Group_65" data-name="Group 65" transform="translate(-831.568 -384.448)"> <path id="Path_57" data-name="Path 57" d="M833.068,460.252a1.5,1.5,0,0,1-1.061-2.561l33.557-33.56a2.53,2.53,0,0,0,0-3.564l-33.557-33.558a1.5,1.5,0,0,1,2.122-2.121l33.556,33.558a5.53,5.53,0,0,1,0,7.807l-33.557,33.56A1.5,1.5,0,0,1,833.068,460.252Z" fill="#fff"></path> </g> </g><g id="SVGRepo_iconCarrier"> <g id="Group_65" data-name="Group 65" transform="translate(-831.568 -384.448)"> <path id="Path_57" data-name="Path 57" d="M833.068,460.252a1.5,1.5,0,0,1-1.061-2.561l33.557-33.56a2.53,2.53,0,0,0,0-3.564l-33.557-33.558a1.5,1.5,0,0,1,2.122-2.121l33.556,33.558a5.53,5.53,0,0,1,0,7.807l-33.557,33.56A1.5,1.5,0,0,1,833.068,460.252Z" fill="#fff"></path> </g> </g></svg>