<svg width="391" height="399" viewBox="0 0 391 399" fill="none" xmlns="http://www.w3.org/2000/svg">
<g clip-path="url(#clip0_3892_4577)">
<path d="M352.53 155.73C350.89 144.34 349.93 133.28 347.63 122.51C334.01 58.59 281.06 10 216.2 1.41C214.75 1.22 213.37 0.48 211.96 0H178.41C164.53 3.73 149.96 5.84 136.9 11.47C78.5198 36.66 45.7298 81.19 39.4898 144.8C39.1698 148.07 38.8498 151.34 38.4298 155.69C24.1798 156.05 8.26977 152.7 0.00976562 169.27V259.24C5.00977 269.98 13.4098 274.36 25.1598 273.4C31.4698 272.89 37.8498 273.31 44.1998 273.31H78.1298V264.1C78.1298 229.56 78.0198 195.02 78.2198 160.49C78.2698 152.4 78.5498 144.15 80.1298 136.26C93.2898 70.55 149.26 31.33 215.5 41.08C265.28 48.4 309.03 93.95 310.93 144.27C312.93 197.27 312.44 250.38 311.92 303.44C311.68 327.6 296.16 344.99 273.41 349.98C268.53 351.05 263.33 350.9 258.28 350.93C256.29 350.93 254.3 350.94 252.32 350.95C246.77 342.06 236.93 336.12 225.67 336.12H199.01C181.66 336.12 167.59 350.19 167.59 367.54C167.59 384.89 181.66 398.96 199.01 398.96H225.67C234.01 398.96 241.57 395.69 247.19 390.39H276.02C283.43 388.04 291.2 386.45 298.2 383.21C333.85 366.71 350.96 338.11 351.67 299.25C351.82 290.93 351.69 282.6 351.69 273.69C366.45 272.51 382.98 277.35 390.39 259.26V169.29C382.17 152.96 366.77 155.91 352.54 155.75L352.53 155.73Z" fill="#009373"/>
</g>
<defs>
<clipPath id="clip0_3892_4577">
<rect width="390.38" height="398.95" fill="white"/>
</clipPath>
</defs>
</svg>
