<svg width="306" height="397" viewBox="0 0 306 397" fill="none" xmlns="http://www.w3.org/2000/svg">
<g clip-path="url(#clip0_3892_4586)">
<path d="M217.37 269.92H198.38C186.98 269.92 176.24 265.7 168.9 258.53H16.4004V360.51C25.5104 365.91 35.0804 370.78 45.0904 375.07C76.8504 388.66 112.8 396.37 150.94 396.37C189.08 396.37 225.04 388.66 256.8 375.07C268.88 369.9 280.38 363.9 291.13 357.11C291.41 356.93 291.67 356.73 291.95 356.55V258.53H251.3C250.2 259.05 234.16 269.92 217.37 269.92Z" fill="#009373"/>
<path d="M160.31 207.83C162.63 192.1 178.71 180.13 195.13 180.13H206.7C207.2 180.13 207.71 180.16 208.21 180.18C216.33 168.94 221.13 155.14 221.13 140.22C221.13 102.49 190.54 71.9 152.81 71.9C115.08 71.9 84.4902 102.49 84.4902 140.22C84.4902 177.95 115.08 208.54 152.81 208.54C156.13 208.54 157.12 208.29 160.31 207.83Z" fill="#009373"/>
<path d="M295.04 113.25C294.53 113.19 294.01 113.15 293.49 113.12H288.84C281.32 49.59 223.19 0 152.81 0C82.43 0 24.33 49.56 16.78 113.06C15.81 113.06 15.11 113.06 14.85 113.06H14.72C13.22 113.06 11.73 113.11 10.29 113.29C4.35 114.05 0 119.27 0 125.26V164.41C0 168.46 2.07 172.37 5.46 174.61C7.85 176.18 10.47 176.53 13.25 176.53H37.52C38.44 176.53 39.37 176.57 40.3 176.57C40.76 176.57 41.22 176.56 41.68 176.53C42.99 176.44 42.68 175.48 42.68 174.36V141.64C42.68 130.45 42.34 119.28 44.65 108.26C47.87 92.89 55.09 78.52 65.14 66.49C75.46 54.14 88.64 44.29 103.23 37.55C118.72 30.4 135.75 26.8 152.8 26.8H152.81C210.24 26.8 257.54 67.08 262.48 118.26C262.76 121.18 263.49 134.35 263.49 134.35C263.74 153.77 263.57 173.2 263.38 192.62C263.25 205.62 254.9 214.98 242.65 217.67C239.96 218.26 237.09 218.16 234.3 218.18C232.88 217.51 231.09 216.67 229.68 216C228.6 214.76 227.33 213.69 225.93 212.81C223.33 211.17 220.26 210.21 216.96 210.21H203.19C194.18 210.21 186.32 217.01 185.74 226C185.48 229.99 186.62 233.69 188.7 236.7C191.75 241.12 196.83 244.03 202.61 244.03H216.96C221.45 244.03 225.52 242.27 228.54 239.42H244.06C248.05 238.15 252.23 237.3 256 235.55C275.18 226.67 284.39 211.28 284.78 190.36C284.86 185.88 284.79 181.4 284.79 176.6C286.05 176.5 287.32 176.48 288.6 176.48C289.41 176.48 290.22 176.48 291.02 176.48C292.4 176.48 293.77 176.46 295.09 176.33C301.14 175.76 305.61 170.41 305.61 164.33V125.26C305.61 119.17 301.09 113.95 295.04 113.25Z" fill="#009373"/>
</g>
<defs>
<clipPath id="clip0_3892_4586">
<rect width="305.61" height="396.37" fill="white"/>
</clipPath>
</defs>
</svg>
