<svg xmlns="http://www.w3.org/2000/svg" aria-hidden="true" data-bbox="0 0 417.349 519.72" data-type="color" viewBox="0 0 417.349 519.72"><path fill="#009373" d="M320.2 151.81c0 3.92-3.17 7.08-7.08 7.08s-7.09-3.16-7.09-7.08v-35.49c0-3.91 3.17-7.08 7.09-7.08a7.08 7.08 0 0 1 7.08 7.08zM320.2 210.86c0 3.91-3.17 7.09-7.08 7.09a7.09 7.09 0 0 1-7.09-7.09v-35.49c0-3.91 3.17-7.08 7.09-7.08a7.08 7.08 0 0 1 7.08 7.08z" data-color="1"/><path fill="#fff" d="M244.55 94.58c0 6.6-5.4 12-12 12h-41c-6.6 0-12-5.4-12-12v-.49h-52.91v293.78h170.82V94.1h-52.91v.49Z" data-color="2"/><path fill="#009373" d="M288.67 63.06H135.43c-11.86 0-21.47 10.73-21.47 23.98v322.62c0 13.24 9.62 23.98 21.47 23.98h153.24c11.87 0 21.48-10.74 21.48-23.98V87.04c0-13.24-9.61-23.98-21.48-23.98m8.55 324.8H126.88c-.13 0-.24-.11-.24-.24V94.34c0-.13.11-.24.24-.24h52.42c.13 0 .24.11.24.24 0 6.73 5.51 12.24 12.24 12.24h40.51c6.73 0 12.24-5.51 12.24-12.24 0-.13.11-.24.24-.24h52.42c.13 0 .24.11.24.24v293.28c0 .13-.11.24-.24.24Z" data-color="1"/><path fill="#245144" d="M21.21 398.97c1.34-10.78 12.9-47.88 22.2-76.61-.02-.43.02-.85.17-1.27 1.87-5.36 6.82-21.29 11.62-34.49.08-.23.12-.36.12-.36 3.03-8.28 5.98-15.43 8.06-18.11 6.4-8.22 27.84.51 26.22 7.99-.55 2.52-1.69 8.47-3.07 15.65 4.95-11.86 9.86-22.74 12.75-26.48 7.7-9.91 28.57.16 25.86 9.11-1.14 3.78-3.95 13.96-7.16 25.41 5.38-12.94 10.73-24.87 13.78-28.97 6.57-8.81 21.64-3.65 25.35 3.77 11.68-28.76 24.57-59.42 30.49-68.82 12.54-19.88 37.39-6.74 31.65 10.15-4.71 13.85-42.34 130.98-50.43 149.37-4.88 11.12.98 12.29 8.47 6.54 12.46-9.57 18.13-11.08 37.79-23.55s46.57 11.77 23.03 34.83c-9.04 8.84-33.26 22.16-37.58 28.77s-15.14 20.29-25.84 42.38c-7.7 15.91-34.88 29.4-47.01 32.6l-9.13 29.84-95.65-35.33 7.43-27.18s-11.43-36.92-9.15-55.25Z" data-color="3"/><path fill="#009373" d="m16.59 443.87 124.61 45.78-.01 30.07H0z" data-color="1"/><path fill="#045441" d="m16.59 443.87 12.05 4.42-12.05 71.43H0z" data-color="4" opacity=".31"/><path fill="#009373" d="M324.33 188.58h-1.1c-1.07-.17-2.13-.38-3.2-.51-5.69-.72-11.45-1.07-17.05-2.21-10.34-2.1-19.97-6.18-28.87-11.89-1.61-1.03-3-1.14-4.79-.55-10.28 3.38-20.6 6.65-30.91 9.96-.61.2-1.23.34-2.09.57.26-.87.42-1.45.61-2.02 3.23-9.71 6.37-19.45 9.77-29.1.87-2.48.53-4.23-.9-6.35-10.03-14.9-15.4-31.33-15.82-49.34-.02-.83-.32-1.65-.49-2.47v-.74c.16-.83.4-1.65.46-2.49.19-2.75.16-5.52.5-8.25 1.59-12.67 5.26-24.7 11.88-35.64C260.1 18.22 286.02 2.28 320.39.47c.83-.04 1.65-.31 2.47-.47h1.47c1.07.17 2.14.46 3.21.48 6.76.11 13.39 1.19 19.9 2.94 20.3 5.48 37.07 16.44 49.98 33.07 16.48 21.23 22.58 45.36 18.89 71.89-2.07 14.88-7.61 28.54-16.57 40.62-18.16 24.46-42.39 37.73-72.93 39.11-.83.04-1.65.31-2.47.47ZM268.62 70.43c.1 6.1 2.38 12.85 5.91 19.18 5.31 9.53 12.04 18.03 19.35 26.08 14.1 15.54 31.58 25.33 51.79 30.47 6.52 1.66 12.95 1.76 19.21-.98 12.39-5.42 14.87-11.16 15.81-22.21.18-2.1-.5-3.84-2.58-4.83-7.13-3.39-14.21-6.89-21.38-10.2-3.43-1.59-5.73-.83-8.01 2.2-1.84 2.45-3.6 4.96-5.48 7.38-3.03 3.87-4.8 4.26-9.34 2.37-15.47-6.42-26.9-17.4-35.49-31.57-1.22-2.01-1.13-3.39.39-5.24 1.87-2.27 3.88-4.43 5.78-6.67 2.25-2.65 2.83-5.43 1.3-8.82-2.84-6.31-5.35-12.77-8.01-19.17-2.04-4.88-3.02-5.52-8.26-5.53-.86 0-1.72-.03-2.57 0-3.55.16-6.63 1.36-9.22 3.92-6.24 6.15-9.05 13.68-9.19 23.59Z" data-color="1"/><path fill="#64f7d7" d="M324.33 188.58h-1.1c-1.07-.17-2.13-.38-3.2-.51-5.69-.72-11.45-1.07-17.05-2.21-10.34-2.1-19.97-6.18-28.87-11.89-1.61-1.03-3-1.14-4.79-.55-10.28 3.38-20.6 6.65-30.91 9.96-.61.2-1.23.34-2.09.57.26-.87.42-1.45.61-2.02 3.23-9.71 6.37-19.45 9.77-29.1.87-2.48.53-4.23-.9-6.35-10.03-14.9-15.4-31.33-15.82-49.34-.02-.83-.32-1.65-.49-2.47v-.74c.16-.83.4-1.65.46-2.49.19-2.75.16-5.52.5-8.25 1.59-12.67 5.26-24.7 11.88-35.64C260.1 18.22 286.02 2.28 320.39.47c.83-.04 1.65-.31 2.47-.47h1.47c1.07.17 2.14.46 3.21.48 6.76.11 13.39 1.19 19.9 2.94 20.3 5.48 37.07 16.44 49.98 33.07 16.48 21.23 22.58 45.36 18.89 71.89-2.07 14.88-7.61 28.54-16.57 40.62-18.16 24.46-42.39 37.73-72.93 39.11-.83.04-1.65.31-2.47.47ZM268.62 70.43c.1 6.1 2.38 12.85 5.91 19.18 5.31 9.53 12.04 18.03 19.35 26.08 14.1 15.54 31.58 25.33 51.79 30.47 6.52 1.66 12.95 1.76 19.21-.98 12.39-5.42 14.87-11.16 15.81-22.21.18-2.1-.5-3.84-2.58-4.83-7.13-3.39-14.21-6.89-21.38-10.2-3.43-1.59-5.73-.83-8.01 2.2-1.84 2.45-3.6 4.96-5.48 7.38-3.03 3.87-4.8 4.26-9.34 2.37-15.47-6.42-26.9-17.4-35.49-31.57-1.22-2.01-1.13-3.39.39-5.24 1.87-2.27 3.88-4.43 5.78-6.67 2.25-2.65 2.83-5.43 1.3-8.82-2.84-6.31-5.35-12.77-8.01-19.17-2.04-4.88-3.02-5.52-8.26-5.53-.86 0-1.72-.03-2.57 0-3.55.16-6.63 1.36-9.22 3.92-6.24 6.15-9.05 13.68-9.19 23.59Z" data-color="5" opacity=".45"/><path fill="#fff" d="M268.61 70.44c.14-9.92 2.95-17.44 9.19-23.59 2.59-2.55 5.67-3.75 9.22-3.92.86-.04 1.71-.01 2.57 0 5.24.01 6.23.65 8.26 5.53 2.67 6.39 5.17 12.86 8.01 19.17 1.53 3.39.95 6.17-1.3 8.82-1.9 2.24-3.91 4.4-5.78 6.67-1.52 1.84-1.61 3.23-.39 5.24 8.6 14.17 20.02 25.15 35.49 31.57 4.54 1.89 6.32 1.5 9.34-2.37 1.89-2.41 3.64-4.93 5.48-7.38 2.28-3.03 4.58-3.79 8.01-2.2 7.17 3.31 14.25 6.81 21.38 10.2 2.08.99 2.76 2.73 2.58 4.83-.94 11.04-3.42 16.79-15.81 22.21-6.26 2.74-12.68 2.64-19.21.98-20.21-5.15-37.69-14.93-51.79-30.47-7.3-8.05-14.04-16.55-19.35-26.08-3.52-6.33-5.81-13.08-5.91-19.18Z" data-color="2"/></svg>