<svg xmlns="http://www.w3.org/2000/svg" width="342" height="416" fill="none"><g fill="#009373" clip-path="url(#a)"><path d="M207.46 108.8s0 .06.01.09c.06.49.13.97.21 1.45.03.18.07.36.1.54.06.33.12.66.19.98.04.2.09.4.14.6l.21.9c.05.21.12.41.17.62.08.29.15.57.24.85.06.21.13.42.2.63.09.27.17.55.27.82.07.21.16.42.23.63.1.26.19.53.3.79.08.21.17.42.26.63.11.26.21.51.33.76.09.21.19.41.29.62.12.25.23.5.35.74.1.21.21.41.32.61.12.24.25.48.38.71.11.2.23.4.34.6.13.23.27.46.4.69.12.2.25.39.37.59.14.22.28.45.43.67.13.19.26.39.4.58.15.22.3.43.45.64.14.19.28.38.42.56l.47.62c.15.19.3.37.45.55.16.2.33.4.49.59.16.18.31.36.47.53.17.19.34.38.52.57.16.17.33.34.49.51.18.18.35.36.53.54.05.05.11.1.16.16.05.05.1.11.16.16.18.18.35.36.53.53.17.17.34.33.51.49.19.17.38.35.57.52.18.16.35.32.53.47.19.17.39.33.59.5.18.15.36.3.55.45.2.16.41.32.62.47.19.14.37.28.56.42.21.15.43.3.64.45.19.13.38.27.58.4.22.15.44.29.67.43.2.12.39.25.59.37.23.14.46.27.69.4.2.12.4.23.6.34.24.13.48.25.71.38.2.11.4.21.61.32.25.12.49.24.74.35.2.1.41.19.61.29.25.11.51.22.77.33.21.09.41.18.63.26.26.1.52.2.79.3.21.08.42.16.63.23.27.09.54.18.82.27.21.07.42.14.63.2.28.09.57.16.86.24.21.06.41.12.62.17.3.08.6.14.9.21.2.05.4.1.6.14.33.07.66.13.98.19.18.03.36.07.54.1.48.08.97.15 1.45.21.03 0 .06 0 .09.01.91.11 1.63.18 2.12.19h57.23l30.84-.34L207.66 13.66l-.4 35.78v57.23c.01.49.08 1.21.19 2.12z"/><path d="M262.14 183.11c-1.69 0-3.36-.03-5.01-.08-6.58-.21-12.79-.85-18.62-1.85-2-.35-3.95-.75-5.86-1.18-1.68-.38-3.32-.79-4.93-1.22-.57-.16-1.15-.3-1.71-.46q-1.245-.285-2.49-.6c-.27-.07-.53-.15-.8-.22-.56-.15-1.13-.31-1.69-.47-.32-.09-.63-.2-.95-.3-.51-.16-1.02-.32-1.53-.49-.34-.11-.67-.24-1.01-.36-.49-.17-.97-.34-1.46-.52-.35-.13-.69-.27-1.04-.41-.47-.19-.94-.37-1.41-.56-.36-.15-.71-.31-1.07-.46-.46-.2-.91-.4-1.37-.6-.36-.16-.71-.34-1.07-.51-.45-.21-.9-.43-1.34-.65-.36-.18-.72-.37-1.07-.56-.44-.23-.88-.46-1.32-.7-.36-.2-.72-.41-1.08-.61-.43-.24-.86-.49-1.28-.74-.36-.22-.72-.44-1.08-.67-.42-.26-.84-.52-1.25-.78-.36-.23-.72-.48-1.08-.72-.41-.27-.82-.55-1.22-.83-.36-.25-.71-.51-1.07-.77-.4-.29-.8-.58-1.2-.88-.35-.27-.7-.54-1.06-.82-.39-.3-.78-.61-1.17-.92-.35-.28-.69-.58-1.04-.87-.38-.32-.76-.64-1.14-.97-.34-.3-.68-.61-1.02-.92l-1.11-1.02c-.34-.32-.67-.64-1-.97-.13-.13-.26-.25-.39-.38l-.19-.19c-.15-.15-.3-.3-.46-.45-.15-.15-.3-.3-.45-.46l-.19-.19c-.13-.13-.25-.26-.38-.39-.33-.33-.65-.67-.97-1-.35-.37-.68-.74-1.02-1.11-.31-.34-.62-.68-.92-1.02-.33-.38-.65-.76-.97-1.14-.29-.35-.58-.69-.87-1.04-.31-.39-.62-.78-.92-1.17-.27-.35-.55-.7-.82-1.06-.3-.4-.59-.8-.88-1.19-.26-.35-.52-.71-.77-1.07-.28-.41-.56-.81-.83-1.22l-.72-1.08c-.27-.41-.52-.83-.78-1.25-.22-.36-.45-.72-.67-1.08-.25-.43-.5-.85-.74-1.28-.2-.36-.41-.72-.61-1.08-.24-.44-.47-.88-.7-1.32-.19-.36-.38-.71-.56-1.07-.22-.45-.44-.89-.65-1.34-.17-.36-.35-.71-.51-1.07-.21-.45-.4-.91-.6-1.37-.15-.35-.31-.71-.46-1.07-.2-.47-.38-.94-.56-1.41-.14-.35-.28-.69-.41-1.04-.18-.49-.35-.97-.52-1.46-.12-.34-.24-.67-.36-1.01-.17-.51-.33-1.02-.49-1.53-.1-.32-.21-.63-.3-.95-.17-.56-.32-1.12-.47-1.69-.07-.26-.15-.53-.22-.79q-.33-1.245-.6-2.49c-.16-.56-.31-1.14-.46-1.71-.44-1.61-.85-3.25-1.22-4.93-.43-1.91-.83-3.86-1.18-5.86-1-5.83-1.64-12.03-1.85-18.62-.05-1.65-.08-3.32-.08-5.01V0H15.16C6.79 0 0 6.79 0 15.16v385.28c0 8.37 6.79 15.16 15.16 15.16h310.72c8.37 0 15.16-6.79 15.16-15.16V183.11h-78.9M50.97 112.32h76.27v26.18H50.97zm0 68.86h76.27v26.18H50.97zM290.43 347.9H50.97v-26.18h239.46zm0-71.14H50.97v-26.18h239.46z"/></g><defs><clipPath id="a"><path fill="#fff" d="M0 0h341.03v415.59H0z"/></clipPath></defs></svg>