<svg width="342" height="416" viewBox="0 0 342 416" fill="none" xmlns="http://www.w3.org/2000/svg">
<g clip-path="url(#clip0_3892_4569)">
<path d="M207.46 108.8C207.46 108.8 207.46 108.86 207.47 108.89C207.53 109.38 207.6 109.86 207.68 110.34C207.71 110.52 207.75 110.7 207.78 110.88C207.84 111.21 207.9 111.54 207.97 111.86C208.01 112.06 208.06 112.26 208.11 112.46C208.18 112.76 208.25 113.06 208.32 113.36C208.37 113.57 208.44 113.77 208.49 113.98C208.57 114.27 208.64 114.55 208.73 114.83C208.79 115.04 208.86 115.25 208.93 115.46C209.02 115.73 209.1 116.01 209.2 116.28C209.27 116.49 209.36 116.7 209.43 116.91C209.53 117.17 209.62 117.44 209.73 117.7C209.81 117.91 209.9 118.12 209.99 118.33C210.1 118.59 210.2 118.84 210.32 119.09C210.41 119.3 210.51 119.5 210.61 119.71C210.73 119.96 210.84 120.21 210.96 120.45C211.06 120.66 211.17 120.86 211.28 121.06C211.4 121.3 211.53 121.54 211.66 121.77C211.77 121.97 211.89 122.17 212 122.37C212.13 122.6 212.27 122.83 212.4 123.06C212.52 123.26 212.65 123.45 212.77 123.65C212.91 123.87 213.05 124.1 213.2 124.32C213.33 124.51 213.46 124.71 213.6 124.9C213.75 125.12 213.9 125.33 214.05 125.54C214.19 125.73 214.33 125.92 214.47 126.1C214.63 126.31 214.78 126.51 214.94 126.72C215.09 126.91 215.24 127.09 215.39 127.27C215.55 127.47 215.72 127.67 215.88 127.86C216.04 128.04 216.19 128.22 216.35 128.39C216.52 128.58 216.69 128.77 216.87 128.96C217.03 129.13 217.2 129.3 217.36 129.47C217.54 129.65 217.71 129.83 217.89 130.01C217.94 130.06 218 130.11 218.05 130.17C218.1 130.22 218.15 130.28 218.21 130.33C218.39 130.51 218.56 130.69 218.74 130.86C218.91 131.03 219.08 131.19 219.25 131.35C219.44 131.52 219.63 131.7 219.82 131.87C220 132.03 220.17 132.19 220.35 132.34C220.54 132.51 220.74 132.67 220.94 132.84C221.12 132.99 221.3 133.14 221.49 133.29C221.69 133.45 221.9 133.61 222.11 133.76C222.3 133.9 222.48 134.04 222.67 134.18C222.88 134.33 223.1 134.48 223.31 134.63C223.5 134.76 223.69 134.9 223.89 135.03C224.11 135.18 224.33 135.32 224.56 135.46C224.76 135.58 224.95 135.71 225.15 135.83C225.38 135.97 225.61 136.1 225.84 136.23C226.04 136.35 226.24 136.46 226.44 136.57C226.68 136.7 226.92 136.82 227.15 136.95C227.35 137.06 227.55 137.16 227.76 137.27C228.01 137.39 228.25 137.51 228.5 137.62C228.7 137.72 228.91 137.81 229.11 137.91C229.36 138.02 229.62 138.13 229.88 138.24C230.09 138.33 230.29 138.42 230.51 138.5C230.77 138.6 231.03 138.7 231.3 138.8C231.51 138.88 231.72 138.96 231.93 139.03C232.2 139.12 232.47 139.21 232.75 139.3C232.96 139.37 233.17 139.44 233.38 139.5C233.66 139.59 233.95 139.66 234.24 139.74C234.45 139.8 234.65 139.86 234.86 139.91C235.16 139.99 235.46 140.05 235.76 140.12C235.96 140.17 236.16 140.22 236.36 140.26C236.69 140.33 237.02 140.39 237.34 140.45C237.52 140.48 237.7 140.52 237.88 140.55C238.36 140.63 238.85 140.7 239.33 140.76C239.36 140.76 239.39 140.76 239.42 140.77C240.33 140.88 241.05 140.95 241.54 140.96C241.61 140.96 241.68 140.96 241.74 140.96H298.77L329.61 140.62L207.66 13.66L207.26 49.44V106.47C207.26 106.53 207.26 106.6 207.26 106.67C207.27 107.16 207.34 107.88 207.45 108.79L207.46 108.8Z" fill="#009373"/>
<path d="M262.14 183.11C260.45 183.11 258.78 183.08 257.13 183.03C250.55 182.82 244.34 182.18 238.51 181.18C236.51 180.83 234.56 180.43 232.65 180C230.97 179.62 229.33 179.21 227.72 178.78C227.15 178.62 226.57 178.48 226.01 178.32C225.18 178.13 224.35 177.93 223.52 177.72C223.25 177.65 222.99 177.57 222.72 177.5C222.16 177.35 221.59 177.19 221.03 177.03C220.71 176.94 220.4 176.83 220.08 176.73C219.57 176.57 219.06 176.41 218.55 176.24C218.21 176.13 217.88 176 217.54 175.88C217.05 175.71 216.57 175.54 216.08 175.36C215.73 175.23 215.39 175.09 215.04 174.95C214.57 174.76 214.1 174.58 213.63 174.39C213.27 174.24 212.92 174.08 212.56 173.93C212.1 173.73 211.65 173.53 211.19 173.33C210.83 173.17 210.48 172.99 210.12 172.82C209.67 172.61 209.22 172.39 208.78 172.17C208.42 171.99 208.06 171.8 207.71 171.61C207.27 171.38 206.83 171.15 206.39 170.91C206.03 170.71 205.67 170.5 205.31 170.3C204.88 170.06 204.45 169.81 204.03 169.56C203.67 169.34 203.31 169.12 202.95 168.89C202.53 168.63 202.11 168.37 201.7 168.11C201.34 167.88 200.98 167.63 200.62 167.39C200.21 167.12 199.8 166.84 199.4 166.56C199.04 166.31 198.69 166.05 198.33 165.79C197.93 165.5 197.53 165.21 197.13 164.91C196.78 164.64 196.43 164.37 196.07 164.09C195.68 163.79 195.29 163.48 194.9 163.17C194.55 162.89 194.21 162.59 193.86 162.3C193.48 161.98 193.1 161.66 192.72 161.33C192.38 161.03 192.04 160.72 191.7 160.41C191.33 160.07 190.96 159.73 190.59 159.39C190.25 159.07 189.92 158.75 189.59 158.42C189.46 158.29 189.33 158.17 189.2 158.04C189.14 157.98 189.07 157.91 189.01 157.85C188.86 157.7 188.71 157.55 188.55 157.4C188.4 157.25 188.25 157.1 188.1 156.94C188.04 156.88 187.97 156.81 187.91 156.75C187.78 156.62 187.66 156.49 187.53 156.36C187.2 156.03 186.88 155.69 186.56 155.36C186.21 154.99 185.88 154.62 185.54 154.25C185.23 153.91 184.92 153.57 184.62 153.23C184.29 152.85 183.97 152.47 183.65 152.09C183.36 151.74 183.07 151.4 182.78 151.05C182.47 150.66 182.16 150.27 181.86 149.88C181.59 149.53 181.31 149.18 181.04 148.82C180.74 148.42 180.45 148.02 180.16 147.63C179.9 147.28 179.64 146.92 179.39 146.56C179.11 146.15 178.83 145.75 178.56 145.34C178.32 144.98 178.08 144.62 177.84 144.26C177.57 143.85 177.32 143.43 177.06 143.01C176.84 142.65 176.61 142.29 176.39 141.93C176.14 141.5 175.89 141.08 175.65 140.65C175.45 140.29 175.24 139.93 175.04 139.57C174.8 139.13 174.57 138.69 174.34 138.25C174.15 137.89 173.96 137.54 173.78 137.18C173.56 136.73 173.34 136.29 173.13 135.84C172.96 135.48 172.78 135.13 172.62 134.77C172.41 134.32 172.22 133.86 172.02 133.4C171.87 133.05 171.71 132.69 171.56 132.33C171.36 131.86 171.18 131.39 171 130.92C170.86 130.57 170.72 130.23 170.59 129.88C170.41 129.39 170.24 128.91 170.07 128.42C169.95 128.08 169.83 127.75 169.71 127.41C169.54 126.9 169.38 126.39 169.22 125.88C169.12 125.56 169.01 125.25 168.92 124.93C168.75 124.37 168.6 123.81 168.45 123.24C168.38 122.98 168.3 122.71 168.23 122.45C168.01 121.62 167.81 120.79 167.63 119.96C167.47 119.4 167.32 118.82 167.17 118.25C166.73 116.64 166.32 115 165.95 113.32C165.52 111.41 165.12 109.46 164.77 107.46C163.77 101.63 163.13 95.43 162.92 88.84C162.87 87.19 162.84 85.52 162.84 83.83V0H15.16C6.79 0 0 6.79 0 15.16V400.44C0 408.81 6.79 415.6 15.16 415.6H325.88C334.25 415.6 341.04 408.81 341.04 400.44V183.11H262.15H262.14ZM50.97 112.32H127.24V138.5H50.97V112.32ZM50.97 181.18H127.24V207.36H50.97V181.18ZM290.43 347.9H50.97V321.72H290.43V347.9ZM290.43 276.76H50.97V250.58H290.43V276.76Z" fill="#009373"/>
</g>
<defs>
<clipPath id="clip0_3892_4569">
<rect width="341.03" height="415.59" fill="white"/>
</clipPath>
</defs>
</svg>
