<svg preserveAspectRatio="xMidYMid meet" data-bbox="-0.01 0.005 330.068 290.007" viewBox="-0.01 0.005 330.068 290.007" xmlns="http://www.w3.org/2000/svg" data-type="color" role="presentation" aria-hidden="true" aria-label="">
    <g>
        <path d="M0 201.62c.49-.89.57-1.76 1.1-2.69 2.46-4.24 8.52-4.41 12.75-3.36.78.19 3.78 1.1 3.99 1.81.2 18.57-.16 37.15.04 55.72.06 5.43.35 10.1 4.02 14.49 8.64 10.32 25.27 6.44 28.49-6.61 3.87-15.7-9.43-28.39-24.42-21.04l-2.95 2.12V224.9c7.05-3.72 16.1-3.93 23.64-1.57 31.44 9.81 29.57 58.59-2.83 65.56l-5.51 1.02h-7.41c-1.1-.34-2.28-.34-3.41-.53-13.58-2.36-23.32-11.41-26.33-24.89-.54-2.41-.7-4.87-1.18-7.28v-55.58Z" fill="#333333" data-color="1"></path>
        <path d="M287.99.08c14.29 1.22 22.42 18.7 14.56 30.6l-46.21 71.22c-.23-.15-.22-.31-.25-.55-1.49-14.53-5.52-27.41-13.13-39.87-1.25-2.04-2.71-3.98-3.9-6.03l31.06-47.87c3.09-3.89 8.53-7.06 13.53-7.5 1.16-.1 3.19-.1 4.35 0Z" fill="#ed3d5e" data-color="2"></path>
        <path d="M246.75 289.9c-17.21-.99-30.74-11.48-32.53-29.24-2.51-24.98 16.41-42.11 40.96-38.56 13.88 2.01 24.61 12.42 20.84 27.23-3.56 13.96-24.04 15.23-35.78 15.28-2.28 0-4.56-.3-6.85-.17.72 2.71 2.96 5.22 5.26 6.74 5.91 3.9 16.33 3.61 22.8 1.28 2.42-.87 4.6-2.42 7.03-3.17l6.55 12.55c.12.23.07.37-.08.57-.39.51-3.74 2.34-4.52 2.73-5.8 2.94-13.85 4.44-20.3 4.75-1.05.05-2.34.06-3.38 0Zm-14.49-38.82c3.44.18 7.1.3 10.56.17 5.68-.21 19.18-1.03 16.35-9.92-1.1-3.44-6.03-4.86-9.27-5.06-9.43-.59-16.78 5.36-17.63 14.82Z" fill="#333333" data-color="1"></path>
        <path d="M180.88 289.9c-1.27.06-2.76.05-4.03 0-8.28-.35-21.1-2.73-28.24-7.12-.53-.33-2.65-1.67-2.5-2.27l6.74-12.2c.21-.15 1.92 1.25 2.31 1.48 6.95 4.1 26.95 8.09 33.76 3.27 1.96-1.39 2.31-4.87.49-6.43-3.13-2.68-14.64-3.05-19.06-3.65-10.63-1.46-21.21-5.32-22.65-17.46-1.93-16.35 12.12-23.12 26.16-23.77 7.92-.37 26.37.36 30.72 8.28 2.74 4.99-.77 10.93-5.75 12.62-.69-.65-1.36-1.28-2.15-1.82-6.23-4.25-20.52-6.06-27.6-3.72-2.7.9-4.96 3.04-3.6 6.08 1.1 2.45 6.31 3.14 8.73 3.51 13.14 2.04 33.9 2 34.85 19.92.87 16.58-14.18 22.65-28.18 23.28" fill="#333333" data-color="1"></path>
        <path d="M104.85 289.9c-16.2-1.21-27.36-11.05-28.03-27.62-.43-10.58.33-21.45.02-32.06.47-1.07.6-2.11 1.19-3.16 2.92-5.11 12.16-4.12 16.52-1.5v33.81c.4 8.66 3.77 13.9 12.95 14.26s14.04-3.88 14.59-12.81c.59-9.59-.68-19.94 0-29.49.68-9.52 11.41-9.06 17.88-5.77v37.51c-.85 16.14-12.41 25.66-28.03 26.83-1.97.15-5.12.15-7.09 0" fill="#333333" data-color="1"></path>
        <path d="M330.02 231.26c.05.57.05 1.53 0 2.09-.12 1.3-.56 2.45-1.16 3.59-.85 1.61-2.02 3-3.45 4.12-5.13-2.35-11.11-3.96-16.75-2.57s-7.47 5.8-7.8 11.05v38.75h-17.71v-43.58c.83-12.48 9.1-20.57 21.23-22.43 7.18-1.1 24.68-1.04 25.64 8.97Z" fill="#333333" data-color="1"></path>
        <path d="M38.78.28c7.05-.66 13.47 1.78 18.07 7.13 26.67 40.65 52.91 81.6 79.6 122.24 10.96 15.13 32.19 18.74 47.31 7.43 18.1-13.55 18.06-41.14-.35-54.39-15.77-11.36-37.8-7.04-48.19 9.22l-22.56-34.79c11.28-10.97 26.23-18.19 41.91-20.12 63.95-7.88 106.38 65.1 67.94 116.93-29.98 40.42-91.22 39.07-119.45-2.29-24.94-39.06-50.88-77.5-75.73-116.61-3.79-5.96-6.25-9.25-5.74-16.83.58-8.91 8.26-17.08 17.19-17.92" fill="#ed3d5e" data-color="2"></path>
    </g>
</svg>