<svg preserveAspectRatio="xMidYMid meet" data-bbox="-0.004 0 401.744 469.183" viewBox="-0.004 0 401.744 469.183" xmlns="http://www.w3.org/2000/svg" data-type="color" role="presentation" aria-hidden="true" aria-label="" wixshapeid="407be7_3327bcfb1ee0451291aea3557757a6c2.svg">
    <g>
        <path fill="#245144" d="M260 32.43v51.26h-47.85V32.43H260z" data-color="1"></path>
        <path fill="#007c5e" d="M395.71 236.22v.01c0 77.673-62.967 140.64-140.64 140.64h-20.94c-77.673 0-140.64-62.967-140.64-140.64v-.01c0-77.673 62.967-140.64 140.64-140.64h20.94c77.673 0 140.64 62.967 140.64 140.64z" data-color="2"></path>
        <path fill="#009373" d="M277.83 15.02v6.37c0 8.295-6.725 15.02-15.02 15.02H209.1c-8.295 0-15.02-6.725-15.02-15.02v-6.37C194.08 6.725 200.805 0 209.1 0h53.71c8.295 0 15.02 6.725 15.02 15.02z" data-color="3"></path>
        <path d="M264.16 0h-15.82c1.65 5.54 2.56 11.32 2.81 17.02.28 6.31-1.07 13.03-3.51 19.39h16.52c7.55 0 13.67-6.12 13.67-13.67v-9.07c0-7.55-6.12-13.67-13.67-13.67Z" fill="#045441" opacity=".31" data-color="4"></path>
        <g opacity=".43">
            <path fill="#64f7d7" d="M277.83 15.02v6.37c0 8.295-6.725 15.02-15.02 15.02H209.1c-8.295 0-15.02-6.725-15.02-15.02v-6.37C194.08 6.725 200.805 0 209.1 0h53.71c8.295 0 15.02 6.725 15.02 15.02z" data-color="5"></path>
            <path d="M264.16 0h-15.82c1.65 5.54 2.56 11.32 2.81 17.02.28 6.31-1.07 13.03-3.51 19.39h16.52c7.55 0 13.67-6.12 13.67-13.67v-9.07c0-7.55-6.12-13.67-13.67-13.67Z" fill="#64f7d7" opacity=".31" data-color="5"></path>
        </g>
        <path fill="#eff2fa" d="M370.78 232.77c0 78.43-63.58 142.01-142.01 142.01-78.43 0-142.01-63.58-142.01-142.01 0-78.43 63.58-142.01 142.01-142.01 78.43 0 142.01 63.58 142.01 142.01z" data-color="6"></path>
        <path fill="#ffffff" d="M370.78 232.77c0 78.43-63.58 142.01-142.01 142.01-78.43 0-142.01-63.58-142.01-142.01 0-78.43 63.58-142.01 142.01-142.01 78.43 0 142.01 63.58 142.01 142.01z" data-color="7"></path>
        <path d="M175.9 259.42c8.98-5.16 17.98-10.3 26.98-15.44 3.66-2.09 7.32-4.18 10.98-6.28 4.69-2.69 8.89-6.02 11.48-10.86 4.78-8.94 6.84-18.58 6.09-28.67-.43-5.76-3.61-9.8-9.42-11.17-2.36-.56-4.83-.89-7.25-.89h-.5c-3.79.07-7.59.18-11.38.26-12.59.29-25.17.62-37.76.94l-1.26.03c-.75 4-1.49 7.95-2.24 11.93-.42 2.26-.85 4.53-1.28 6.82.67-.02 1.22-.03 1.77-.05l16.67-.42c6-.15 12.01-.31 18.01-.46.45-.01.9-.02 1.35-.02.96 0 1.91.03 2.86.08.7.04 1.32.16 1.88.31 2.62.69 3.85 2.55 3.66 5.71-.24 4.1-1.34 7.62-3.66 10.49-1.29 1.59-2.94 2.98-5.05 4.15-6.38 3.56-12.72 7.19-19.06 10.83-2.02 1.16-4.04 2.32-6.05 3.48-6.1 3.52-12.2 7.05-18.32 10.54-5.64 3.22-8.92 7.68-10.43 13.02-.77 2.72-1.08 5.68-1 8.82.14 5.21 3.71 8.34 8.84 8.34h.28c3.7-.08 7.39-.19 11.09-.28 16.85-.43 43.46-.87 60.3-1.27 1.06-.03 1.53-.25 1.71-1.41.54-3.46 1.25-6.89 1.9-10.33.43-2.28.86-4.56 1.34-7.07-.79.02-1.39.04-1.98.05-6.77.17-16.01.35-25.23.52-9.09.17-18.16.33-24.83.49h-.06c-.71 0-1.43-.29-2.14-.43.56-.61 1.02-1.41 1.7-1.8Z" fill="#16443a" data-color="8"></path>
        <path d="m330.64 238.16-.43-16.87-.05-1.99-1.99.05-19.43.45 4.51-33.74.3-2.26h-22.02l-.23 1.73-4.65 34.78-25.29.59h-.19c-1.36 0-1.84-.25-1.92-1.76l7.67-32.74.59-2.53-2.6.07c-2.81.08-5.9.16-8.96.24-3 .08-5.97.15-8.62.23l-1.56.04-.33 1.53-8.54 38.95-.05.24v.24c.25 9.25 7.68 16.5 16.94 16.5h.46l29.61-.67-4.89 36.61-.3 2.26h22.02l.23-1.74 5.03-37.64 22.75-.52 2.01-.05-.05-2Z" fill="#16443a" data-color="8"></path>
        <path d="M395.36 219.12c0 78.43-71.29 153.84-112.19 153.84-19.32 0 50.84-32.77 53.47-131.09 3.22-120.24-106.61-148.38-85.02-148.38 40.9 0 143.75 47.19 143.75 125.62Z" opacity=".28" fill="#ffffff" data-color="7"></path>
        <path d="M236.06 103.51c35.74 0 69.35 13.92 94.62 39.19 25.27 25.27 39.19 58.88 39.19 94.62s-13.92 69.35-39.19 94.62c-25.27 25.27-58.88 39.19-94.62 39.19s-69.35-13.92-94.62-39.19c-25.27-25.27-39.19-58.88-39.19-94.62s13.92-69.35 39.19-94.62c25.27-25.27 58.88-39.19 94.62-39.19m0-31.86c-91.5 0-165.68 74.18-165.68 165.68s74.18 165.68 165.68 165.68 165.68-74.18 165.68-165.68S327.56 71.65 236.06 71.65Z" fill="#009373" data-color="3"></path>
        <path d="M356.35 226.21c0 74.76-60.6 135.37-135.37 135.37-35.13 0-67.13-13.39-91.2-35.33 24.81 30.93 62.9 50.76 105.64 50.76 74.77 0 135.37-60.6 135.37-135.37 0-39.63-17.03-75.29-44.17-100.04 18.59 23.17 29.74 52.58 29.74 84.62Z" opacity=".13" fill="#045441" data-color="4"></path>
        <path d="M177.11 463.83c-32.74-11.92-87.7-67.78-115.15-105.92C34.51 319.78.94 252.62.03 217.79c-1.32-50.69 36.63-70.27 49.06-79.21 12.43-8.96 78.15 73.45 64.76 89.98-15.16 18.7-23.66 11.32-35.7 21.79-12.12 10.54 3.21 46.4 27.54 80.2 24.33 33.81 51.52 57.02 65.36 48.88 13.75-8.08 9.44-18.51 32-26.93 19.92-7.44 77.18 81.04 64.75 89.99-12.42 8.94-43.05 38.71-90.69 21.36Z" fill="#245144" data-color="1"></path>
    </g>
</svg>