<svg preserveAspectRatio="xMidYMid meet" data-bbox="-0.006 -0.013 47.616 34.97" viewBox="-0.006 -0.013 47.616 34.97" xmlns="http://www.w3.org/2000/svg" data-type="color" role="presentation" aria-hidden="true" aria-label="" wixshapeid="407be7_833525e8822c4a2f952c5b05f10aea04.svg"><defs><style>#comp-lx9b7me82 svg [data-color="1"] {fill: #F2F2F2;}</style></defs>
    <g>
            <path d="M47.61 6.23c-.35.48-.66 1-1.07 1.42-8.83 8.85-17.67 17.69-26.51 26.53-.6.6-1.26.97-2.12.67-.31-.11-.62-.3-.85-.54C11.58 28.83 6.11 23.32.64 17.81c-.87-.88-.86-1.95.02-2.84 1.23-1.25 2.47-2.48 3.71-3.71.94-.94 1.99-.93 2.93.01 3.58 3.6 7.16 7.21 10.74 10.82.13.13.24.28.46.54.16-.23.26-.41.4-.56C26 14.97 33.1 7.87 40.19.77c.61-.62 1.29-.98 2.16-.67.31.11.6.32.84.55 1.25 1.22 2.5 2.46 3.72 3.71.28.29.46.67.69 1.02v.84Z" fill="#f2f2f2" data-color="1"></path>
    </g>
</svg>