<svg preserveAspectRatio="xMidYMid meet" data-bbox="-0.002 0.004 212.012 255.988" viewBox="-0.002 0.004 212.012 255.988" xmlns="http://www.w3.org/2000/svg" data-type="color" role="presentation" aria-hidden="true" aria-label="">
    <g>
        <path d="M177.25 28.17c12.72 11.77 22.9 27.68 28.22 44.24 19.83 61.8-20.99 126.86-85.04 135.7-49.13 6.78-96.38-21.99-112.86-68.65C-11.86 84.47 17.52 24.24 72.38 5.6c36.84-12.52 76.56-3.62 104.87 22.57m-41.17 50.71c1.52 1.65 2.93 3.84 4.24 5.69l.69.22 16.24-11.89c-13.81-20.54-38.78-30.89-63.13-24.72-32.41 8.21-51.73 42.7-40.84 74.7 9.01 26.47 34.93 42.87 62.88 39.27 16.84-2.17 31.34-11.81 40.79-25.71l-16.14-12.18c-6.43 9.53-16.24 16.5-27.88 17.83-28.3 3.22-50.28-25.18-39.43-51.73 10.31-25.23 43.94-31.67 62.57-11.47Z" fill="#df0000" data-color="1"></path>
        <path d="M101.38 226.73c1.04 1.18 6.69 9.89 7.29 10.05.36.09.54-.32.73-.52l6.8-9.52h5.4v28.63h-5.53v-18.33l-7.16 9.54-7.41-9.29v18.08h-5.53v-28.63h5.4Z" fill="#df0000" data-color="1"></path>
        <path d="m48.64 226.73 12.18 17.83V227.1s.35-.38.38-.38h5.4v28.63h-5.4c-.56 0-5.52-8.14-6.3-9.28-1.97-2.89-4.04-5.76-6.14-8.56v17.83h-5.4s-.38-.35-.38-.38v-27.88s.35-.38.38-.38h5.27Z" fill="#df0000" data-color="1"></path>
        <path d="M169.19 226.73c1.15.21 3.32 2.05 4 3.03 2.48 3.54 1.42 8.06-1.99 10.53-.76.55-1.74.8-2.57 1.2-.24.12-.41-.07-.29.41l9.52 13.46h-6.66c-3.01-3.97-5.94-8.01-8.91-12-1.19-1.59-.68-2.16-3.27-1.82v13.81h-5.53v-28.63h15.7Zm-10.17 5.52c.13.74-.28 3.3.24 3.66.33.23 7.31.19 8.06 0 2.77-.72 1.31-4-.61-3.89-.23.01-.44.24-.53.24h-7.16Z" fill="#df0000" data-color="1"></path>
        <path d="M185.89 226.73v10.05c1.73-1.55 3.59-3.04 5.28-4.64.85-.8 5.04-5.41 5.64-5.41h7.91l-10.06 9.91 7.05 10.25c1.78 2.31 3.69 4.77 5.28 7.28.19.3.77.23.49 1.19h-7.03c-3.07-5.01-6.94-9.55-10.05-14.57-.35-.25-3.82 3.55-4.52 3.89v10.67h-5.78v-28.63h5.78Z" fill="#df0000" data-color="1"></path>
        <path d="M91.46 226.73v5.15s-.35.38-.38.38H77.89v3.77h11.8v5.4s-.35.38-.38.38H77.88v8.04h13.06v5.53H72.48s-.38-.35-.38-.38v-28.26h19.34Z" fill="#df0000" data-color="1"></path>
        <path d="M4.39 230.08c6.88-6.67 18.58-5.7 23.41 2.68-.17.38-3.95 3.19-4.32 3.23-1.07-.67-1.76-2.03-2.86-2.84-10.06-7.32-21.06 8.42-10.87 15.39 4.83 3.31 10.43 1.51 13.77-2.93.64.69 3.92 2.48 4.12 3.14.24.8-1.81 2.88-2.48 3.47-8.27 7.29-21.23 3.49-24.49-6.91-1.64-5.23-.23-11.4 3.72-15.23" fill="#df0000" data-color="1"></path>
        <path d="M151.23 255.36h-6.28l-2.55-7.12c-.12-.19-.26-.44-.47-.54-.47-.23-8.05-.23-8.54 0-.9.43-2.48 6.54-3.39 7.66h-5.9l11.16-28.65c1.13.24 4.53-.44 5.14.42l10.82 28.23Zm-15.82-13.31h4.52c-.68-1.65-1.17-3.4-1.89-5.03-.13-.28 0-.63-.49-.5-.38.1-1.84 4.79-2.14 5.53" fill="#df0000" data-color="1"></path>
        <path fill="#df0000" d="M37.46 226.73v28.63h-5.4l-.13-28.63z" data-color="1"></path>
        <path d="M209.46 226.77c.11.09.16 1.19.79 1.21.12-1.12.68-1.41 1.76-1.26v3.02c-1.1-.39-2.46.51-2.64-1.01-1.26 2.88-1.08-1.23-1.26-1.25-1.28-.18-.83.3-.88 1.38-.02.39.24.99-.37.88-.71-.34-.23-2.12-.38-2.26-.22-.21-1.36.49-1.01-.75.16-.16 3.78-.13 3.98.04Z" fill="#df0000" data-color="1"></path>
    </g>
</svg>