<svg xmlns="http://www.w3.org/2000/svg" width="37" height="47" fill="none"><path fill="#009373" d="M36.233 12.667c0-.174 0-.358-.05-.519-.34-1.105-.96-1.856-1.972-2.157a4.8 4.8 0 0 1-1.257-.592C27.852 6.027 25.018 4.214 19.92.833c-.26-.172-.53-.324-.846-.517 0 1.44-.023 2.805.02 4.17.008.25.24.55.437.721.343.298 3.982 2.59 6.544 4.294.171.113.329.252.494.379l-.036.113h-.405c-2.09-.002-2.598-.006-4.687-.005-1.027 0 .204-.018-.822.017-1.199.04-2.026.796-2.302 2.073-.07.325-.092.669-.098 1.006q-.009.603-.007 1.214l-.142-.08H9.79q-.272 0-.538.013h-.414v.027c-5.72.466-8.494 5.153-8.494 9.931 0 2.813 1.052 5.16 3.857 7.128l6.34 4.447c.567.398.866 1.161.75 1.92-.144.954-.857 1.65-1.69 1.65H.181v6.976h8.372c7.156 0 10.284-5.3 10.284-9.771 0-3.777-1.401-5.363-4.206-7.33l-6.303-4.421c-.59-.414-.9-1.207-.78-1.995.131-.863.74-1.506 1.477-1.59h9.199v2.433q0 .113.003.227c.035 1.662.683 2.648 1.935 2.957.282.07.578.1.869.1 5.382.01 6.922.02 12.304.001a3.2 3.2 0 0 0 1.425-.339c.928-.477 1.482-1.299 1.478-2.56-.013-3.786-.004-7.571-.006-11.357z"/></svg>