<svg xmlns="http://www.w3.org/2000/svg" width="446" height="334" fill="none"><path fill="#009373" d="M104.054 1.363C90.588 4.515 71.352 16.53 60.509 28.743 38.824 52.378 19.587 94.531 8.919 141.213 1.399 173.715 0 187.7 0 227.883c.175 68.743 9.094 96.714 33.227 104.199 11.018 3.348 15.565 2.56 26.932-4.334 14.515-8.667 34.976-28.955 56.312-55.743 12.417-15.561 19.762-23.046 24.483-25.213 10.318-4.727 153.721-4.727 164.039 0 4.722 2.167 12.067 9.652 24.483 25.213 21.336 26.788 41.797 47.076 56.312 55.743 11.367 6.894 15.914 7.682 26.932 4.334 15.914-4.925 24.833-19.304 29.905-48.062 4.022-22.061 4.546-86.668 1.049-109.32-12.592-80.76-43.546-143.594-81.145-164.276-30.604-16.94-60.334-13.394-99.682 11.818l-18.013 11.622h-43.721l-18.012-11.622c-9.794-6.303-23.959-13.59-31.304-16.349-15.04-5.318-35.851-7.288-47.743-4.53m216.503 57.91c15.74 9.258 18.013 31.122 4.722 44.319-15.04 14.773-39.348 2.364-39.348-20.091 0-20.288 18.887-33.485 34.626-24.228M136.582 77.592c1.574.59 2.449 6.106 2.798 17.924l.525 17.137 14.865.985c13.641.985 15.04 1.379 16.963 5.909 2.799 6.106 2.799 13.197.35 21.47l-1.924 6.106h-31.128v16.546c0 19.304-1.05 21.076-13.991 22.455-6.296.591-9.968 0-13.116-2.363-4.022-2.955-4.372-4.334-4.372-19.895v-16.743H92.687c-17.138 0-18.362-1.181-18.362-17.136 0-14.576 1.748-16.152 19.236-16.743l14.865-.591.875-17.728c.874-16.742 1.049-17.727 5.246-18.909 4.197-1.576 17.313-.59 22.035 1.576m246.758 23.243c7.52 5.515 11.367 14.576 10.493 25.212-2.099 26.395-33.578 34.077-44.245 10.834-6.471-14.182-1.924-30.925 10.318-37.228 8.219-4.334 16.439-3.94 23.434 1.182m-62.433 33.485c18.013 10.44 16.614 41.168-2.448 49.244-21.161 9.06-40.048-15.758-29.38-38.213 5.946-12.41 20.811-17.531 31.828-11.031"/></svg>