<svg width="446" height="334" viewBox="0 0 446 334" fill="none" xmlns="http://www.w3.org/2000/svg">
<path d="M104.054 1.36304C90.5885 4.51461 71.3516 16.53 60.5089 28.7424C38.8236 52.3792 19.5867 94.5315 8.91895 141.214C1.39905 173.715 0 187.7 0 227.883C0.174881 296.626 9.09383 324.597 33.2274 332.082C44.245 335.43 48.7919 334.642 60.1592 327.748C74.6743 319.081 95.1354 298.793 116.471 272.005C128.888 256.444 136.233 248.959 140.954 246.792C151.272 242.065 294.675 242.065 304.993 246.792C309.715 248.959 317.06 256.444 329.476 272.005C350.812 298.793 371.273 319.081 385.788 327.748C397.155 334.642 401.702 335.43 412.72 332.082C428.634 327.157 437.553 312.778 442.625 284.02C446.647 261.959 447.171 197.352 443.674 174.7C431.082 93.9406 400.128 31.106 362.529 10.4238C331.925 -6.51591 302.195 -2.97038 262.847 22.2422L244.834 33.8637H222.974H201.113L183.101 22.2422C173.307 15.9391 159.142 8.65106 151.797 5.89343C136.757 0.575141 115.946 -1.39459 104.054 1.36304ZM320.557 59.2733C336.297 68.531 338.57 90.3951 325.279 103.592C310.239 118.365 285.931 105.956 285.931 83.501C285.931 63.2127 304.818 50.0155 320.557 59.2733ZM136.582 77.5918C138.156 78.1827 139.031 83.698 139.38 95.5164L139.905 112.653L154.77 113.638C168.411 114.623 169.81 115.017 171.733 119.547C174.532 125.653 174.532 132.744 172.083 141.017L170.159 147.123H154.595H139.031V163.669C139.031 182.973 137.981 184.745 125.04 186.124C118.744 186.715 115.072 186.124 111.924 183.761C107.902 180.806 107.552 179.427 107.552 163.866V147.123H92.6871C75.5487 147.123 74.3246 145.942 74.3246 129.987C74.3246 115.411 76.0734 113.835 93.5615 113.244L108.426 112.653L109.301 94.9255C110.175 78.1827 110.35 77.1979 114.547 76.016C118.744 74.4402 131.86 75.4251 136.582 77.5918ZM383.34 100.835C390.86 106.35 394.707 115.411 393.833 126.047C391.734 152.442 360.255 160.124 349.588 136.881C343.117 122.699 347.664 105.956 359.906 99.6529C368.125 95.3194 376.345 95.7134 383.34 100.835ZM320.907 134.32C338.92 144.76 337.521 175.488 318.459 183.564C297.298 192.624 278.411 167.806 289.079 145.351C295.025 132.941 309.89 127.82 320.907 134.32Z" fill="#009373"/>
</svg>
