<svg preserveAspectRatio="xMidYMid meet" data-bbox="0 -0.01 292.192 362.387" viewBox="0 -0.01 292.192 362.387" xmlns="http://www.w3.org/2000/svg" data-type="color" role="presentation" aria-hidden="true" aria-label="">
    <g>
        <path d="m111.75 75.95 2.53-4.34 63.94-63.93.09-.08c1.37-1.22 3.49-2.89 6.17-3.37.83-.15 1.63-.23 2.4-.23 2.72 0 5.17.96 7.28 2.84l.16.15 61.29 61.29.1.12c4.05 4.75 3.72 10.09-.97 15.88l-.13.16-67.04 66.92-75.82-75.42Z" fill="#dd052b" data-color="1"></path>
        <path d="M186.87 8c1.71 0 3.2.56 4.61 1.82L252.66 71c3.26 3.83 1.78 7.3-1.03 10.77l-64.07 63.95-70.8-70.43.71-1.22 63.49-63.48c1.18-1.05 2.64-2.14 4.22-2.43.59-.11 1.15-.16 1.68-.16m.01-8c-1 0-2.05.1-3.11.29-3.67.67-6.39 2.79-8.11 4.32l-.17.15-.16.16-63.49 63.48-.73.73-.52.89-.71 1.22-3.12 5.34 4.38 4.36 70.8 70.43 5.65 5.62 5.64-5.63 64.07-63.95.3-.3.27-.33c7.97-9.84 3.99-17.37.9-20.99l-.21-.24-.23-.23-61.18-61.16-.16-.16-.17-.15c-2.86-2.56-6.21-3.86-9.94-3.86Z" fill="#ffffff" data-color="2"></path>
        <path d="M112.32 221.76c-1.51 0-2.98-.31-4.38-.92l-.63-.28-.5-.47c-13.02-12.28-25.85-25.22-38.26-37.74-8.17-8.24-16.62-16.76-25.04-25l-.3-.29-.23-.34c-3.43-5.12-2.5-11.46 2.35-16.14l66.6-65.93 76.49 75.98-67.98 68.02-.16.13c-2.42 1.96-5.18 3-7.96 3Z" fill="#0073ab" data-color="3"></path>
        <path d="m111.93 80.26 70.83 70.36-65 65.03c-1.59 1.29-3.49 2.11-5.44 2.11-.92 0-1.85-.18-2.76-.58-21.54-20.32-42.05-41.93-63.25-62.69-2.59-3.87-1.35-8 1.8-11.04l63.82-63.18m.01-11.27-5.64 5.58-63.79 63.14c-6.28 6.09-7.4 14.41-2.86 21.21l.46.69.59.58c8.39 8.22 16.83 16.73 24.99 24.96 12.43 12.54 25.29 25.5 38.36 37.83l1 .94 1.26.56c1.9.84 3.92 1.26 5.99 1.26 3.65 0 7.37-1.38 10.47-3.89l.33-.27.3-.3 65-65.03 5.67-5.68-5.69-5.66-70.83-70.36-5.63-5.59Z" fill="#ffffff" data-color="2"></path>
        <path d="M92.15 260.44c.47-.73 12.16-.84 12.73.07.43.69-.6 3.55.83 2.99.73-.29 2.18-1.79 3.32-2.32 5.75-2.7 15.05-3.31 17.43 3.86 2.41-1.02 3.69-3.3 6.51-4.49 4.74-1.99 12.3-1.98 15.42 2.78.29.45 1.62 3.27 1.62 3.5v28.93c-4.04.82-8.76.82-12.8 0v-20.73c0-3.73-4.33-4.66-7.31-3.21-.49.24-2.42 1.99-2.42 2.19v21.76c-4.04.82-8.76.82-12.8 0v-21.25c0-.36-1.09-2.28-1.49-2.61-2.28-1.91-8.24.52-8.24 2.1v21.76c-4.04.82-8.76.82-12.8 0v-35.32Z" fill="#0073ab" data-color="3"></path>
        <path d="M210.93 295.76c-.51.79-11.12.74-12.8 0v-19.2c0-.26-.86-3.14-1.08-3.53-2.03-3.66-9.67-1.13-9.67.46v21.5c0 1.92-11.68 1.46-13.31.77v-35.32c3.9-.22 13.8-2.79 13.56 3.07 5.56-5.31 18.44-6.43 22.19 1.37.23.49 1.11 2.72 1.11 2.99v27.9Z" fill="#0073ab" data-color="3"></path>
        <path d="M271.92 269.72c-.24.39-.26 1.7.23 2.03 1.24.86 9.77 1.55 12.64 2.62 11.02 4.1 9.05 18-1.39 21.41-6.21 2.03-16.34 1.14-22.13-1.99-1.74-.94-3.24-1.43-2.45-3.64.31-.87 4.13-7.01 4.69-7.15 4.34 1.81 8.74 4.58 13.68 4.01 3.74-.43 5.28-2.81.93-3.91-7.08-1.8-17.92-1.21-19.02-11.19-1.57-14.2 19.91-14.64 28.66-9.71 1.32.74 2.95 1.62 2.28 3.32-.33.84-3.65 6.5-4.17 6.66-2.52-.65-4.43-2.62-7.14-3-1.13-.16-6.33-.21-6.79.54Z" fill="#0073ab" data-color="3"></path>
        <path d="M140.79 350.03h12.03c.05 0 .77.71.77.77v9.73c0 .05-.71.77-.77.77h-29.44c-3.55-10.54 7.88-16.41 12.8-24.06h-12.03c-1.74 0-1.63-9.42-1.02-10.74.11-.24.93-1.03 1.02-1.03h28.67c.05 0 .77.71.77.77v8.19c0 .93-10.5 12.05-12.03 14.08-.39.51-.99.64-.77 1.54Z" fill="#0073ab" data-color="3"></path>
        <path d="M176.11 350.03h12.29v10.5c0 .05-.71.77-.77.77h-28.67c-.05 0-.77-.71-.77-.77v-8.19c0-.99 11.83-12.69 12.8-15.1h-12.03c-.05 0-.77-.71-.77-.77v-10.24c0-.05.71-.77.77-.77h28.67c.05 0 .77.71.77.77v8.19c0 .87-9.89 11.44-11.26 13.32-.5.69-1.14 1.35-1.03 2.3Z" fill="#0073ab" data-color="3"></path>
        <path d="M105.46 326.73c.3-1.07 1.87-1.22 2.79-1.31 1.65-.17 10.53-.43 10.53 1.31v33.79c0 .05-.71.77-.77.77h-11.77c-.05 0-.77-.71-.77-.77v-33.79Z" fill="#0073ab" data-color="3"></path>
        <path d="M168.43 260.44v35.32c-4.04.82-8.76.82-12.8 0v-35.32c1.3-.84 12.8-.65 12.8 0" fill="#0073ab" data-color="3"></path>
        <path d="M252.48 262.41c-.1-.06-1.1-1.91-1.06-2.16.1-.6 2.46-2.21 2.51-3.39-11.69-1.97-6.13-17.89 3.93-13.41 6.4 2.85 4.89 11.52.67 15.7-.82.82-5.06 3.84-6.05 3.26" fill="#0073ab" data-color="3"></path>
        <path d="M160.62 242.63c9.72-1.97 12.08 12.76 3.87 14.62-10.9 2.47-12.53-12.87-3.87-14.62" fill="#0073ab" data-color="3"></path>
        <path d="M110.44 308.17c10.92-2.24 12.21 15.56.92 14.74-8.08-.58-8.7-13.14-.92-14.74" fill="#0073ab" data-color="3"></path>
        <path d="M183.67 58.35c25.62-3.69 27.59 33.66 3.94 34.69-21.46.93-24.53-31.72-3.94-34.69" fill="#ffffff" data-color="2"></path>
        <path d="M83.84 132.58c24.21-3.31 27.69 32.11 4.93 34.62-22.8 2.52-26.13-31.72-4.93-34.62" fill="#ffffff" data-color="2"></path>
        <path d="M150.33 162.98c-16.33 16.05-40.87-8.64-24.67-24.93s41.09 8.78 24.67 24.93" fill="#ffffff" data-color="2"></path>
        <path d="M47.89 265.53c-1.88-9.24-11.2-18.92-21.02-18.92H.77c-.17.26-.77.63-.77.77v47.61c0 .92 2.03 1.23 2.79 1.31 21.52 2.15 51.04-1.62 45.11-30.77Zm-18.75 15.08c-.77.59-4.14 2.35-4.82 2.35h-9.47v-23.55h8.45c.43 0 3.7 1 4.35 1.28 7.46 3.16 7.59 15.27 1.49 19.92" fill="#0073ab" data-color="3"></path>
        <path d="M89.47 313.03c-5.6-1.64-17.9-2.14-23.71-1.43-.57.07-1.11.08-1.56.49l-.21 49.2h13.57c.05 0 .77-.71.77-.77v-12.03c7.33-.23 14.89-.35 19.72-6.64 7.56-9.83 3.54-25.27-8.58-28.81Zm-11.14 22.66v-10.5c0-1.5 7.98-.91 9.34 2.44 2.76 6.83-3.82 8.98-9.34 8.06" fill="#0073ab" data-color="3"></path>
        <path d="M230.12 325.45h-12.03c-.16 0-.56 2.59-.52 3.07-14.67-11.6-30.22 3.89-26.39 19.99 2.91 12.21 16.4 18.62 26.39 9.7-.07.53.38 2.98.52 3.07.51.32 10.31 0 12.03 0 .05 0 .77-.71.77-.77v-34.3c0-.05-.71-.77-.77-.77Zm-22.13 24.18c-5.97-1.95-5.45-12.02.75-13.31 12.48-2.59 11.46 17.3-.75 13.31" fill="#0073ab" data-color="3"></path>
        <path d="M68.51 259.03c-22.33 1.32-22.74 34.7-2.59 37.62 28.69 4.16 28.87-39.17 2.59-37.62m3.31 24.85c-10.23 2.32-10.96-11.16-3.35-12.59 7.99-1.51 9.8 11.13 3.35 12.59" fill="#0073ab" data-color="3"></path>
        <path d="M229.75 259.54c-20.59 2.98-19.51 37.3 3.54 37.55 25.57.28 24.74-41.65-3.54-37.55m6.63 24.04c-9.28 4.59-13.16-11.22-3.56-12.3 6.87-.77 9.42 9.4 3.56 12.3" fill="#0073ab" data-color="3"></path>
    </g>
</svg>