<svg xmlns="http://www.w3.org/2000/svg" width="47" height="47" fill="none"><circle cx="23.5" cy="23.5" r="23.5" fill="#fff"/><path fill="#045441" d="M20.269 25.406H16v-5.6h4.268v-.209c.001-1.116-.022-2.232.01-3.347.042-1.49.437-2.876 1.416-4.05 1.01-1.21 2.35-1.84 3.898-2.088 1.053-.168 2.111-.11 3.168-.063.662.03 1.322.09 1.982.136.038.003.075.015.119.023v4.431c-.058.003-.11.009-.164.009-.836 0-1.671-.007-2.507.004-.299.004-.602.027-.895.085-.826.16-1.224.583-1.273 1.411-.046.763-.034 1.53-.043 2.296-.005.442-.001.885-.001 1.354H31c-.04.364-.076.7-.115 1.036q-.178 1.524-.357 3.046c-.055.462-.114.923-.16 1.385-.012.116-.054.143-.164.143q-1.663-.005-3.326-.003h-.893V38h-5.716z"/></svg>