<svg width="393" height="368" viewBox="0 0 393 368" fill="none" xmlns="http://www.w3.org/2000/svg">
<path d="M392.35 44.45C392.31 17.02 375.01 0.130029 347.34 0.0700287C291.66 -0.0499713 235.98 0.0300287 180.3 0.0300287C124.62 0.0300287 100.76 -0.0299713 45.0799 0.0600287C24.3799 0.100029 9.19993 9.80003 2.91993 27.55C0.949934 33.14 0.379934 39.49 0.359934 45.49C0.189934 114.2 0.739934 182.93 -6.63351e-05 251.64C-0.270066 276.75 18.5799 297.44 45.8399 297.22C138.37 296.47 199.08 297.03 291.62 296.81C302.41 296.78 310.88 299.88 318.46 307.79C335.89 325.97 353.98 343.51 371.69 361.42C375.68 365.45 379.94 368.43 385.73 366.33C391.75 364.14 392.46 358.93 392.46 353.27C392.41 250.33 392.51 147.38 392.36 44.44L392.35 44.45ZM198.29 245.57H151.43V207.26H198.29V245.57ZM243.37 144.26L202.91 168.68C199.8 170.56 197.97 173.92 197.97 177.47C197.84 178.15 197.98 185.36 198.06 187.97H151.13C150.1 182.59 149.97 177.86 149.97 172.94C149.97 152.2 158.91 143.5 176.81 132.69L217.03 108.41C220.79 106.14 222.77 101.79 222.01 97.46C221.11 92.38 216.7 88.67 211.54 88.67H124.47V50.36H207.69C248.31 50.36 267.97 77.47 267.97 105.12C267.97 120.56 261.26 133.46 243.36 144.26H243.37Z" fill="#009373"/>
</svg>
