<svg preserveAspectRatio="xMidYMid meet" data-bbox="0 0 153.2 45.4" viewBox="0 0 153.2 45.4" xmlns="http://www.w3.org/2000/svg" data-type="ugc" role="presentation" aria-hidden="true" aria-label="" wixshapeid="407be7_eb28b72d1288456ca051f1048d1afb14.svg">
    <g>
        <defs>
            <linearGradient gradientUnits="userSpaceOnUse" gradientTransform="scale(-31.65 31.65) rotate(45 115.952 276.382)" y2="163.74" x2="-160.98" y1="163.74" x1="-161.83" id="3b633c7d-8230-4d90-873a-d86eb82b9f18_comp-lxag8uk7">
                <stop stop-color="#00a0ff" offset="0"></stop>
                <stop stop-color="#00a1ff" offset="0"></stop>
                <stop stop-color="#00beff" offset=".26"></stop>
                <stop stop-color="#00d2ff" offset=".51"></stop>
                <stop stop-color="#00dfff" offset=".76"></stop>
                <stop stop-color="#00e3ff" offset="1"></stop>
            </linearGradient>
            <linearGradient gradientUnits="userSpaceOnUse" gradientTransform="matrix(-32.26 0 0 32.26 -5654.18 -5313.51)" y2="165.4" x2="-175.6" y1="165.4" x1="-176.45" id="7d6daa5f-5581-4646-8ea4-0d0998a70290_comp-lxag8uk7">
                <stop stop-color="#ffe000" offset="0"></stop>
                <stop stop-color="#ffbd00" offset=".41"></stop>
                <stop stop-color="#ffa500" offset=".78"></stop>
                <stop stop-color="#ff9c00" offset="1"></stop>
            </linearGradient>
            <linearGradient gradientUnits="userSpaceOnUse" gradientTransform="scale(-42.91 42.91) rotate(45 108.997 277.689)" y2="159.28" x2="-163.61" y1="159.28" x1="-164.47" id="664f34c1-0dc5-4dc7-a8fb-de2cbe7bbf6f_comp-lxag8uk7">
                <stop stop-color="#ff3a44" offset="0"></stop>
                <stop stop-color="#c31162" offset="1"></stop>
            </linearGradient>
            <linearGradient gradientUnits="userSpaceOnUse" gradientTransform="scale(19.16 -19.16) rotate(-45 -229.394 -108.855)" y2="130.6" x2="-142.97" y1="130.6" x1="-143.82" id="640ce992-e647-436d-bc85-11bca96d2cbc_comp-lxag8uk7">
                <stop stop-color="#32a071" offset="0"></stop>
                <stop stop-color="#2da771" offset=".07"></stop>
                <stop stop-color="#15cf74" offset=".48"></stop>
                <stop stop-color="#06e775" offset=".8"></stop>
                <stop stop-color="#00f076" offset="1"></stop>
            </linearGradient>
        </defs>
        <path d="M147.5 45.4H5.7c-3.1 0-5.7-2.6-5.7-5.7v-34C0 2.6 2.6 0 5.7 0h141.8c3.1 0 5.7 2.6 5.7 5.7v34c0 3.1-2.5 5.7-5.7 5.7" fill="#ffffff"></path>
        <path d="M121.3 34h2.1V19.9h-2.1V34Zm19.1-9-2.4 6.1h-.1l-2.5-6.1h-2.3l3.8 8.6-2.2 4.8h2.2l5.8-13.4h-2.3Zm-12 7.4c-.7 0-1.7-.3-1.7-1.2 0-1.1 1.2-1.5 2.2-1.5.9 0 1.4.2 1.9.5 0 1.3-1.2 2.2-2.4 2.2m.3-7.7c-1.5 0-3.1.7-3.8 2.2l1.9.8c.4-.8 1.1-1 1.9-1 1.1 0 2.2.7 2.2 1.8v.1c-.4-.2-1.2-.5-2.2-.5-2 0-4.1 1.1-4.1 3.2 0 1.9 1.7 3.1 3.5 3.1 1.4 0 2.2-.6 2.7-1.4h.1v1.1h2v-5.4c.1-2.6-1.8-4-4.2-4m-13.1 2h-3v-4.9h3c1.6 0 2.5 1.3 2.5 2.4 0 1.2-.9 2.5-2.5 2.5m-.1-6.8h-5.1v14.2h2.1v-5.4h3c2.3 0 4.7-1.7 4.7-4.4s-2.3-4.4-4.7-4.4M87.9 32.4c-1.5 0-2.7-1.2-2.7-2.9s1.2-2.9 2.7-2.9c1.4 0 2.6 1.2 2.6 2.9-.1 1.7-1.2 2.9-2.6 2.9m2.4-6.6c-.5-.6-1.5-1.1-2.6-1.1-2.4 0-4.6 2.1-4.6 4.8s2.2 4.8 4.6 4.8c1.2 0 2.1-.5 2.5-1.1h.1v.7c0 1.8-1 2.8-2.6 2.8-1.3 0-2.1-.9-2.4-1.7l-1.8.8c.5 1.3 1.9 2.9 4.3 2.9s4.6-1.5 4.6-5V25h-2v.8h-.1Zm3.5 8.2h2.1V19.9h-2.1V34Zm5.2-4.6c-.1-1.9 1.4-2.8 2.5-2.8.8 0 1.6.4 1.8 1L99 29.4Zm6.6-1.6c-.4-1.1-1.6-3.1-4.1-3.1s-4.6 2-4.6 4.8 2 4.8 4.8 4.8c2.2 0 3.5-1.4 4-2.1l-1.6-1.1c-.5.8-1.3 1.3-2.4 1.3s-1.8-.5-2.3-1.5l6.5-2.7-.3-.4Zm-51.4-1.6v2h4.9c-.1 1.2-.5 2-1.1 2.6-.7.7-1.8 1.5-3.8 1.5-3 0-5.4-2.4-5.4-5.4s2.4-5.4 5.4-5.4c1.6 0 2.8.6 3.7 1.5l1.4-1.4c-1.2-1.2-2.9-2.1-5.1-2.1-4.1 0-7.6 3.4-7.6 7.5s3.5 7.5 7.6 7.5c2.2 0 3.9-.7 5.2-2.1 1.4-1.4 1.8-3.3 1.8-4.8 0-.5 0-.9-.1-1.3l-6.9-.1Zm12.6 6.2c-1.5 0-2.7-1.2-2.7-2.9s1.3-2.9 2.7-2.9c1.5 0 2.7 1.2 2.7 2.9s-1.3 2.9-2.7 2.9m0-7.7c-2.7 0-4.8 2-4.8 4.8s2.2 4.8 4.8 4.8 4.8-2 4.8-4.8-2.2-4.8-4.8-4.8m10.5 7.7c-1.5 0-2.7-1.2-2.7-2.9s1.3-2.9 2.7-2.9c1.5 0 2.7 1.2 2.7 2.9s-1.2 2.9-2.7 2.9m0-7.7c-2.7 0-4.8 2-4.8 4.8s2.2 4.8 4.8 4.8 4.8-2 4.8-4.8c.1-2.8-2.1-4.8-4.8-4.8" fill="#005542"></path>
        <path d="M11.9 8.6c-.3.3-.5.9-.5 1.6v25.1c0 .7.2 1.2.5 1.6l.1.1 14.1-14.1v-.4L11.9 8.6Z" fill="url(#3b633c7d-8230-4d90-873a-d86eb82b9f18_comp-lxag8uk7)"></path>
        <path d="M26 22.5v.4l4.7 4.7.1-.1 5.6-3.2c1.6-.9 1.6-2.4 0-3.3l-5.63-3.12-.14-.08-4.64 4.69Z" fill="url(#7d6daa5f-5581-4646-8ea4-0d0998a70290_comp-lxag8uk7)"></path>
        <path d="M11.9 36.8c.5.6 1.4.6 2.4.1l16.6-9.4-4.9-4.8-14.1 14.1Z" fill="url(#664f34c1-0dc5-4dc7-a8fb-de2cbe7bbf6f_comp-lxag8uk7)"></path>
        <path d="M11.9 8.6 26 22.7l4.8-4.8-16.6-9.4c-.5-.3-.9-.4-1.3-.4s-.7.2-1 .5" fill="url(#640ce992-e647-436d-bc85-11bca96d2cbc_comp-lxag8uk7)"></path>
        <path d="M51.4 8.6c.5.3.9.7 1.2 1.2.3.5.4 1.1.4 1.8s-.1 1.3-.4 1.8-.7.9-1.2 1.2-1.1.4-1.8.4h-2.3V8.3h2.3c.7-.1 1.3 0 1.8.3Zm-.3 4.5c.4-.4.6-.9.6-1.6s-.2-1.2-.6-1.6-.9-.6-1.6-.6h-.9v4.4h.9c.7 0 1.3-.2 1.6-.6Z" fill="#005542"></path>
        <path d="M55.4 8.2v6.7h-1.3V8.2h1.3Z" fill="#005542"></path>
        <path d="M57.8 14.7c-.4-.2-.7-.4-.9-.7-.2-.3-.3-.7-.3-1.1H58c0 .3.1.5.3.6.2.2.4.2.7.2s.6-.1.7-.2c.2-.1.3-.3.3-.6 0-.2-.1-.4-.2-.5s-.3-.2-.5-.3c-.2-.1-.4-.2-.7-.2-.4-.1-.8-.3-1.1-.4-.3-.1-.5-.3-.7-.6-.2-.3-.3-.6-.3-1s.1-.7.3-1c.2-.3.5-.5.8-.7.4-.2.8-.2 1.2-.2.7 0 1.2.2 1.7.5.4.3.7.8.7 1.4h-1.5c0-.2-.1-.4-.3-.6-.2-.1-.4-.2-.7-.2s-.5.1-.6.2c-.2.1-.2.3-.2.6 0 .2.1.3.2.4s.3.2.4.3c.2.1.4.2.7.3.4.1.8.3 1.1.4.3.1.5.3.7.6.2.3.3.6.3 1s-.1.7-.3 1-.5.5-.8.7c-.4.2-.8.3-1.3.3-.3 0-.7-.1-1.1-.2Z" fill="#005542"></path>
        <path d="M67.2 11.2c-.2.3-.4.6-.8.8-.4.2-.8.3-1.4.3h-1.1v2.6h-1.3V8.2h2.5c.5 0 1 .1 1.3.3.4.2.6.4.8.7.2.3.3.7.3 1.1l-.3.9Zm-1.4-.2c.2-.2.3-.4.3-.7 0-.6-.4-1-1.1-1h-1.1v1.9H65c.3 0 .6-.1.8-.2Z" fill="#005542"></path>
        <path d="M69.7 14.5c-.5-.3-.9-.7-1.2-1.2-.3-.5-.5-1.1-.5-1.8 0-.6.2-1.2.5-1.8.3-.5.7-.9 1.2-1.2.5-.3 1.1-.4 1.7-.4s1.2.1 1.7.4.9.7 1.2 1.2c.3.5.5 1.1.5 1.8s-.2 1.2-.5 1.8c-.3.5-.7.9-1.2 1.2-.5.3-1.1.4-1.7.4s-1.1-.1-1.7-.4Zm2.8-1.1c.3-.2.5-.4.7-.8.2-.3.3-.7.3-1.2s-.1-.8-.3-1.2c-.2-.3-.4-.6-.7-.8-.3-.2-.7-.3-1.1-.3s-.8.1-1.1.3c-.3.2-.5.4-.7.8-.2.3-.3.7-.3 1.2s.1.8.3 1.2c.2.3.4.6.7.8.3.2.7.3 1.1.3s.8-.1 1.1-.3Z" fill="#005542"></path>
        <path d="M81.5 14.8h-1.3l-3-4.6v4.6h-1.3V8.1h1.3l3 4.6V8.1h1.3v6.7Z" fill="#005542"></path>
        <path fill="#005542" d="m84.9 6.27-.92 1.42h-.84l.84-1.42h.92z"></path>
        <path fill="#005542" d="M84.2 8.2v6.7h-1.3V8.2h1.3z"></path>
        <path d="m91.5 8.2-2.4 6.7h-1.6l-2.4-6.7h1.4l1.8 5.3 1.8-5.3h1.4Z" fill="#005542"></path>
        <path d="M93.6 9.3V11h2.2v1.1h-2.2v1.8h2.5V15h-3.8V8.3h3.9v1.1h-2.6v-.1Z" fill="#005542"></path>
        <path d="M98.7 13.8h2.2v1.1h-3.5V8.2h1.3v5.6Z" fill="#005542"></path>
        <path d="M109.7 14.8h-1.3l-3-4.6v4.6h-1.3V8.1h1.3l3 4.6V8.1h1.3v6.7Z" fill="#005542"></path>
        <path d="M112.4 14.5c-.5-.3-.9-.7-1.2-1.2s-.5-1.1-.5-1.8c0-.6.2-1.2.5-1.8.3-.5.7-.9 1.2-1.2.5-.3 1.1-.4 1.7-.4s1.2.1 1.7.4.9.7 1.2 1.2.5 1.1.5 1.8-.2 1.2-.5 1.8c-.3.5-.7.9-1.2 1.2-.5.3-1.1.4-1.7.4s-1.2-.1-1.7-.4Zm2.8-1.1c.3-.2.5-.4.7-.8.2-.3.3-.7.3-1.2s-.1-.8-.3-1.2c-.2-.3-.4-.6-.7-.8-.3-.2-.7-.3-1.1-.3s-.8.1-1.1.3c-.3.2-.5.4-.7.8s-.3.7-.3 1.2.1.8.3 1.2c.2.3.4.6.7.8.3.2.7.3 1.1.3s.8-.1 1.1-.3Z" fill="#005542"></path>
    </g>
</svg>