<svg preserveAspectRatio="xMidYMid meet" data-bbox="-0.004 0.004 265.734 299.206" viewBox="-0.004 0.004 265.734 299.206" xmlns="http://www.w3.org/2000/svg" data-type="color" role="presentation" aria-hidden="true" aria-label="">
    <g>
        <path d="M265.31 83.93c.56 4.68.56 16.25 0 20.93-6.93 57.93-89.09 85.73-138.97 83.71C78.4 186.62 5.97 158.71.42 103.24-6.94 29.63 83.18-3 143.26.22c46.11 2.46 115.75 31.16 122.05 83.71m-41.85 36.87h-24.41c-4.54 0-16.29-5.84-20.33-8.56-2.5-1.68-16.49-13.95-16.03-15.82 14.18-9.47 51.94-39.58 52.8-56.96.17-3.47-2.65-4.06-5.45-4.39-13.87-1.63-36.04 8.84-48.36 15.44-9.44 5.06-18.75 10.84-26.38 18.44-15.81-13.52-39.15-27.22-59.49-32.16-4.44-1.08-19.82-4.42-20.75 1.81-2.22 14.8 40.09 50.48 52.85 57.81.5 2.02-13.73 13.99-16.21 15.65-3.89 2.61-15.95 8.74-20.16 8.74H47.13c5.97 7.21 15.66 11.86 24.89 12.97-1.75 9.82-.96 19.9 3.5 28.88 3.9-7.27 5.06-15.4 9.3-22.59 6.8-11.52 17.58-17.99 29.39-23.43 5.29-2.43 18.51-8.37 23.63-7.39 4.47.86 16.6 6.45 21.23 8.7 12.78 6.19 22.34 13 28.55 26.26 2.82 6.04 3.51 13.76 7.95 18.45 3.46-9.66 3.26-18.69 3.04-28.86 9.35-.98 18.5-6.12 24.86-13Z" fill="#0054a6" data-color="1"></path>
        <path d="M236.42 299.21c-7.36-4.65-12.74-9.23-10.96-18.94h11.97c-.06 4.13-1.38 16.68 5.42 16 1.08-.11 3.54-1.92 3.54-2.54v-17.44c-4.43 1.61-18.28 1.58-20.26-3.23-3.1-7.53.77-29.78-.45-38.92 2.38-8.21 30.44-3.17 37.64-4.69 1.39 4.2-3.71 3.43-4.05 4.59l-.16 53.48c-2.02 5.68-5.3 9.22-10.73 11.69zm9.96-65.78c-5.62-1.69-8.38-2.03-9.02 4.43-.52 5.21-.71 29.52.53 33.51s8.49 1.63 8.49.43z" fill="#0054a6" data-color="1"></path>
        <path d="M28.2 206.52c.14.14.15 3.84 0 3.98-.27.27-3.99-.2-3.99 0v25.91h13.95V210.5c0-.25-4.16.19-4.99 0 .14-.71-.19-3.98 0-3.98h24.91c.2 0-.13 3.27 0 3.98-.83.2-4.99-.24-4.99 0v60.8c0 .25 4.16-.19 4.99 0v2.99H33.17v-2.99c.83-.2 4.98.25 4.98 0v-30.9H24.2v30.9c0 .35 5.67-1.58 3.99 2.99H3.29v-2.99h4.99l.05-60.24c-4.18.55-6.67-4.55-3.54-4.55s22.6-.84 23.41 0Z" fill="#0054a6" data-color="1"></path>
        <path d="M173.65 277.28c-1.31-4.96 3.15-2.18 3.99-2.98 1.43-1.36-1.16-34.52.06-39.44-.26-2.77-5.17-.63-4.05-5.42 9.51.73 20.07-.67 29.43-.04 4.36.29 9.48 1.08 10.97 5.97 1.85 6.08-.98 37.59.44 38.93.84.8 5.3-1.98 3.99 2.98h-17.93v-43.36c0-2.65-8.97-.97-8.97-.5v40.86c0 .35 5.67-1.58 3.99 2.99h-21.92Z" fill="#0054a6" data-color="1"></path>
        <path d="M78.01 272.8c.99 3.2 16.31 1.63 17.74-3.18 1.3-4.37-2.47-8.51 4.17-7.29 5.24 18.64-29.75 19.93-34.34 8.95-1.03-2.46-1.02-28.31-.54-32.39 1.28-10.95 19.16-10.92 27.21-8.24 2.55.85 7.69 4.47 7.69 7.27v16.45H78.02c.9 4.72-1.23 14.48 0 18.44Zm8.97-39.37c-1.51-.78-8.97-1.95-8.97.5v17.44h8.97z" fill="#0054a6" data-color="1"></path>
        <path d="M106.9 277.28c-1.61-4.82 3.89-2.1 4-3.5-1.46-11.52-1.41-24.21-1.07-35.92.05-1.68 1.24-4.26 1.07-4.41-.71-.61-5.17.57-3.99-3.99 7.9 1.45 22.92-1.76 29.94.44 6.08 1.9 5 9.54 4.93 14.51-1.89-.32-11.54.42-11.97 0-.83-.82 1.99-10.75-2.69-11.83-.73-.17-4.28.64-4.28.86v40.86c0 .3 4.36-1.41 2.99 2.99H106.9Z" fill="#0054a6" data-color="1"></path>
        <path d="M161.7 229.44v44.85c0 .35 5.67-1.58 3.99 2.99h-20.92c-1.53-4.9 3.71-1.97 4.01-3.56-1.16-5.01 1.45-38.91-.01-40.3-.3-.29-3.06.22-4 0 .14-.71-.19-3.98 0-3.98h16.94Z" fill="#0054a6" data-color="1"></path>
        <path d="M152.44 212.71c9.54-2.86 12.14 9.16 6.03 12-10.07 4.68-13.58-9.74-6.03-12" fill="#0054a6" data-color="1"></path>
        <path d="M72.3 47.3c5.53-5.84 14.57 1.52 9.77 8.29-5.06 7.14-15.28-2.46-9.77-8.29" fill="#0054a6" data-color="1"></path>
        <path d="M192.31 45.22c4.53-.69 9.36 5.52 5.82 9.88-7.89 9.72-17.27-8.13-5.82-9.88" fill="#0054a6" data-color="1"></path>
    </g>
</svg>