<svg width="47" height="47" viewBox="0 0 47 47" fill="none" xmlns="http://www.w3.org/2000/svg">
<circle cx="23.5" cy="23.5" r="23.5" fill="white"/>
<g clip-path="url(#clip0_3946_482)">
<path d="M30.0916 37H16.908C16.6316 36.9568 16.3516 36.9288 16.0794 36.8676C13.0205 36.1778 11.0575 34.3261 10.2189 31.3009C10.1097 30.9079 10.0712 30.4955 9.99951 30.092C9.99951 25.6977 9.99951 21.3028 9.99951 16.9085C10.0723 16.4966 10.1129 16.0752 10.2237 15.6738C11.0037 12.8548 12.8021 11.0348 15.6201 10.2416C16.0388 10.1234 16.4787 10.0786 16.9085 10C21.3029 10 25.6977 10 30.0921 10C30.3684 10.0432 30.6485 10.0712 30.9206 10.1324C33.9801 10.8222 35.9421 12.675 36.7812 15.6991C36.8903 16.0921 36.9288 16.5045 37.0006 16.908V30.0915C36.9278 30.5034 36.8872 30.9248 36.7764 31.3262C35.9964 34.1436 34.199 35.9652 31.3811 36.7579C30.9623 36.8755 30.5224 36.9209 30.0926 36.9995L30.0916 37ZM23.4958 34.6051V34.5818C25.6139 34.5818 27.7325 34.6261 29.8489 34.5681C31.5546 34.5212 32.8636 33.6737 33.8034 32.2628C34.3915 31.38 34.6067 30.3884 34.6056 29.3384C34.6025 25.5943 34.6051 21.8503 34.6035 18.1062C34.6035 17.7903 34.5998 17.4733 34.5798 17.1579C34.469 15.4434 33.6684 14.1269 32.245 13.1866C31.3679 12.607 30.3848 12.3939 29.3437 12.3949C25.6613 12.3981 21.9785 12.3949 18.2961 12.3971C17.9011 12.3971 17.505 12.3981 17.1105 12.4234C15.6253 12.5184 14.4239 13.1723 13.4936 14.321C12.7098 15.2883 12.3918 16.4159 12.3934 17.6505C12.3982 21.3419 12.3945 25.0332 12.396 28.7245C12.396 29.1111 12.3982 29.4982 12.4219 29.8837C12.5147 31.3694 13.1666 32.5724 14.3142 33.5033C15.2804 34.287 16.407 34.6114 17.6421 34.6077C19.593 34.6019 21.5444 34.6061 23.4953 34.6061L23.4958 34.6051Z" fill="#009373"/>
<path d="M30.4593 23.49C30.4688 27.3058 27.3339 30.4497 23.5097 30.4591C19.6934 30.4686 16.5506 27.3348 16.5405 23.5101C16.5311 19.6937 19.6649 16.5504 23.4902 16.5409C27.306 16.5314 30.4498 19.6663 30.4593 23.4905V23.49ZM28.0549 23.5037C28.0607 20.9922 26.0228 18.9506 23.5039 18.9448C20.9913 18.939 18.9508 20.9759 18.945 23.4953C18.9392 26.0073 20.976 28.0484 23.4954 28.0542C26.007 28.06 28.0485 26.0221 28.0543 23.5032L28.0549 23.5037Z" fill="#009373"/>
<path d="M30.7404 14.5193C31.7051 14.5125 32.5062 15.3031 32.5099 16.2656C32.513 17.2123 31.7235 18.0092 30.7726 18.0181C29.8038 18.0271 29.0079 17.2529 28.9905 16.2846C28.9736 15.3331 29.7732 14.5262 30.741 14.5193H30.7404Z" fill="#045441"/>
</g>
<defs>
<clipPath id="clip0_3946_482">
<rect width="27" height="27" fill="white" transform="translate(10 10)"/>
</clipPath>
</defs>
</svg>
