<svg width="47" height="47" viewBox="0 0 47 47" fill="none" xmlns="http://www.w3.org/2000/svg">
<circle cx="23.5" cy="23.5" r="23.5" fill="white"/>
<g clip-path="url(#clip0_3946_499)">
<path d="M35 13.1107V32.9075C34.9803 32.9652 34.9479 33.0213 34.9415 33.0797C34.8633 33.8104 34.4897 34.342 33.8641 34.7109C33.4802 34.9376 33.0568 34.9961 32.6255 34.9968C26.2075 35 19.7886 35 13.3705 34.9976C12.831 34.9976 12.3184 34.8942 11.8736 34.5553C11.2338 34.0687 11 33.402 11 32.6295C11 26.3599 11 20.0896 11.0016 13.82C11.0016 13.5317 11.0205 13.2434 11.0411 12.9558C11.1058 12.0214 11.8215 11.2741 12.7331 11.0711C12.8524 11.0442 12.9724 11.0237 13.0925 11C19.6914 11 26.2904 11 32.8893 11C32.9541 11.0205 33.0181 11.0529 33.0845 11.0592C33.9755 11.1398 34.8033 11.9076 34.9344 12.7765C34.951 12.8887 34.9787 12.9993 35.0008 13.1114L35 13.1107ZM24.1805 21.2389C24.1805 20.9916 24.1813 20.7515 24.1805 20.5122C24.1789 20.0469 23.9372 19.802 23.4783 19.8012C22.6181 19.8004 21.7586 19.8012 20.8984 19.8012C20.4063 19.8012 20.1607 20.0414 20.1607 20.5288C20.1599 24.2421 20.1599 27.9555 20.1607 31.6689C20.1607 32.1492 20.4182 32.4051 20.8992 32.4059C21.7436 32.4075 22.5881 32.4075 23.4325 32.4059C23.9357 32.4059 24.1805 32.161 24.1805 31.6618C24.1805 29.77 24.1821 27.8781 24.1805 25.9863C24.1805 25.3591 24.3117 24.7651 24.5842 24.2003C24.9689 23.4033 25.6987 22.9917 26.589 23.0778C27.4342 23.16 28.0108 23.6402 28.2257 24.5155C28.3323 24.9507 28.3987 25.4073 28.4026 25.8544C28.4216 27.777 28.4097 29.7005 28.4097 31.6239C28.4097 32.1942 28.6262 32.4067 29.206 32.4067C30.0583 32.4067 30.9106 32.4075 31.7621 32.4067C32.2574 32.4067 32.5197 32.1563 32.5181 31.6595C32.5094 29.3845 32.5078 27.1095 32.4731 24.8354C32.4588 23.9214 32.3135 23.0186 31.9691 22.1599C31.5418 21.0935 30.8379 20.2965 29.7344 19.9023C28.8015 19.5682 27.8394 19.5477 26.8686 19.6812C25.7817 19.8305 24.8851 20.3115 24.2374 21.216C24.2303 21.2255 24.2121 21.227 24.1813 21.2389H24.1805ZM14.4338 26.1032C14.4338 27.9318 14.4338 29.7605 14.4338 31.5891C14.4338 32.1682 14.6747 32.4059 15.2632 32.4067C16.0365 32.4067 16.8106 32.4067 17.5839 32.4067C18.2072 32.4067 18.4521 32.165 18.4521 31.5449C18.4521 27.9192 18.4521 24.2935 18.4521 20.667C18.4521 20.6125 18.4536 20.5572 18.4505 20.5027C18.4284 20.0595 18.1598 19.8012 17.7143 19.8004C16.8778 19.7989 16.042 19.7997 15.2055 19.8004C14.6778 19.8004 14.433 20.0445 14.433 20.5706C14.433 22.4151 14.433 24.2587 14.433 26.1032H14.4338ZM19.02 16.2111C19.0216 14.7829 17.8549 13.6123 16.4315 13.613C15.0215 13.613 13.8429 14.7711 13.85 16.1961C13.8571 17.6811 15.0112 18.7807 16.4409 18.7933C17.8565 18.8059 19.0192 17.6258 19.0208 16.2111H19.02Z" fill="#009373"/>
</g>
<defs>
<clipPath id="clip0_3946_499">
<rect width="24" height="24" fill="white" transform="translate(11 11)"/>
</clipPath>
</defs>
</svg>
