<svg width="285" height="363" viewBox="0 0 285 363" fill="none" xmlns="http://www.w3.org/2000/svg">
<g clip-path="url(#clip0_3892_4566)">
<path d="M282.4 121.64C272.63 51.42 213.52 0.45 142.43 0C134.34 0.65 126.14 0.63 118.19 2.06C49.7003 14.35 3.69025 68.29 0.20025 137.4C-1.72975 175.66 10.1202 210.05 34.4602 239.8C65.7502 278.04 137.62 362.65 142.01 362.67C146.4 362.69 218.31 278.24 249.48 239.9C277.57 205.35 288.52 165.65 282.4 121.63V121.64ZM141.78 195.35C111.18 195.19 86.2302 170.01 86.3402 139.38C86.4502 108.82 111.65 83.85 142.28 83.94C172.85 84.04 197.81 109.22 197.73 139.88C197.65 170.38 172.31 195.5 141.78 195.34V195.35Z" fill="#009373"/>
</g>
<defs>
<clipPath id="clip0_3892_4566">
<rect width="284.05" height="362.68" fill="white"/>
</clipPath>
</defs>
</svg>
