<svg xmlns="http://www.w3.org/2000/svg" aria-hidden="true" data-bbox="0.001 0 1717.039 361.76" data-type="color" viewBox="0.001 0 1717.039 361.76"><g fill="#FFF"><path d="M869.34 282.69c44.42-24.3 89.78-49.11 97.97-53.59 35.11-19.2 50.45-40.75 50.45-76.44 0-17.16-6.6-66.09-101.31-66.09-117.05 0-135.16 106.58-135.16 155.49 0 7.81.78 15.48 2.26 22.93-25.86 14.62-44.83 25.35-44.83 25.35-16.25 9.19-23.91 12.09-30.46 12.09-15.63 0-21.39-12.59-18.96-26.31l22.6-127.88h75.59l10.8-59.3h-75.91l10.48-59.3h-71.15l-10.46 59.3H511.11c-62.88 0-93.32 41.96-93.32 84.77 0 23.91 10.39 43.86 38.1 60.59l62.63 37.8c5.61 3.38 8.55 9.87 7.42 16.32a16.97 16.97 0 0 1-16.71 14.02H312.54c-26.97 0-47.08-7.52-59.96-19.75 44.42-24.3 89.78-49.11 97.97-53.59 35.11-19.2 50.45-40.75 50.45-76.44 0-17.16-6.6-66.09-101.31-66.09-117.05 0-135.16 106.58-135.16 155.49 0 7.81.78 15.48 2.26 22.93-25.85 14.62-44.83 25.35-44.83 25.35-16.25 9.19-23.91 12.09-30.46 12.09-15.63 0-21.39-12.59-18.96-26.31L121.37 0H50.21L1.23 277.77c-7.72 43.81 21.56 83.98 70.46 83.98 31.43 0 52.92-9.05 88.2-28.35l31.58-17.27c23.28 27.55 60.65 45.62 108.23 45.62h199.19c70.7 0 101.59-45.05 101.59-83.05 0-32.1-13.84-45.58-41.55-62.3l-62.27-37.58a16.456 16.456 0 0 1 8.5-30.55h135.63l-22.84 129.51c-7.73 43.81 21.56 83.98 70.46 83.98 31.43 0 52.92-9.05 88.2-28.35l31.58-17.27c23.28 27.55 60.65 45.62 108.23 45.62h91.15l10.46-59.3h-88.77c-26.97 0-47.08-7.52-59.96-19.75ZM293.93 145.94c29.36 0 35.54 8.96 35.54 16.32 0 10.13-4.9 13.54-21.37 22.85-5.67 3.2-36.67 20.74-71.8 40.6 2.49-34.5 14.21-79.77 57.63-79.77m616.75 0c29.36 0 35.54 8.96 35.54 16.32 0 10.13-4.9 13.54-21.37 22.85-5.67 3.2-36.67 20.74-71.8 40.6 2.49-34.5 14.2-79.77 57.63-79.77M1215.11 163.08l-33.67 64.87h-.76l-34.05-64.87h-28.34v132.78h23.78v-95.3h.76l10.27 21.11 27.21 50.23 27.2-50.23 10.27-21.11h.76v95.3h23.78V163.08zM1325.61 160.8c-34.81 0-57.83 23.78-57.83 68.68s23.02 68.67 57.83 68.67 57.83-23.78 57.83-68.67-22.83-68.68-57.83-68.68m31.19 78.95c0 22.64-12.17 36.15-31.19 36.15s-31.2-13.51-31.2-36.15v-20.54c0-22.63 12.17-36.14 31.2-36.14s31.19 13.51 31.19 36.14zM1352.06 121.8l-20.55-10.27-18.07 35.57 14.65 7.23zM1461.61 227.76l-11.6 44.14h-.58l-11.79-44.14-20.35-64.68h-25.69l43.38 132.78h28.53l43.37-132.78h-24.92zM1525.51 295.86h87.5v-22.25h-62.39v-33.87h55.17v-22.25h-55.17v-32.15h62.39v-22.26h-87.5zM1664.73 273.61V163.08h-25.11v132.78h77.42v-22.25z" data-color="1"/></g></svg>