<svg preserveAspectRatio="xMidYMid meet" data-bbox="0 0 390 326" viewBox="0 0 390 326" xmlns="http://www.w3.org/2000/svg" data-type="color" role="presentation" aria-hidden="true" aria-label="" wixshapeid="407be7_d1bed83494d2421a8b66cb867968bd6b.svg">
    <g>
        <path fill="#009373" d="M374 8.22v292.56a8.22 8.22 0 0 1-8.22 8.22H24.22a8.22 8.22 0 0 1-8.22-8.22V8.22A8.22 8.22 0 0 1 24.22 0h341.56A8.22 8.22 0 0 1 374 8.22z" data-color="1"></path>
        <path d="M336.17 145h-69.35a7.83 7.83 0 0 0-7.83 7.83v161.13c0 2.23 1.81 4.04 4.04 4.04h76.91c2.23 0 4.04-1.81 4.04-4.04V152.83c0-4.32-3.5-7.83-7.83-7.83Z" fill="#ffffff" data-color="2"></path>
        <path fill="#ffffff" d="M225 145.98v115.04H46V145.98h179z" data-color="2"></path>
        <path fill="#045441" opacity=".31" d="M371.17 289v21h-358v-21h358z" data-color="3"></path>
        <path fill="#245144" d="M390 296v23a7 7 0 0 1-7 7H7a7 7 0 0 1-7-7v-23a7 7 0 0 1 7-7h376a7 7 0 0 1 7 7z" data-color="4"></path>
        <path d="M386.88 82 373 30H16L3.11 82H3v17.5c0 9.67 7.83 17.5 17.5 17.5S38 109.17 38 99.5V82.43h35V99.5c0 9.67 7.83 17.5 17.5 17.5s17.5-7.83 17.5-17.5V82.43h35V99.5c0 9.67 7.83 17.5 17.5 17.5s17.5-7.83 17.5-17.5V82.43h34V99.5c0 9.67 7.83 17.5 17.5 17.5s17.5-7.83 17.5-17.5V82.43h35V99.5c0 9.67 7.83 17.5 17.5 17.5s17.5-7.83 17.5-17.5V82.43h35V99.5c0 9.67 7.83 17.5 17.5 17.5s17.5-7.83 17.5-17.5V82h-.12Z" fill="#009373" data-color="1"></path>
        <path d="M386.88 82 373 30H16L3.11 82H3v17.5c0 9.67 7.83 17.5 17.5 17.5S38 109.17 38 99.5V82.43h35V99.5c0 9.67 7.83 17.5 17.5 17.5s17.5-7.83 17.5-17.5V82.43h35V99.5c0 9.67 7.83 17.5 17.5 17.5s17.5-7.83 17.5-17.5V82.43h34V99.5c0 9.67 7.83 17.5 17.5 17.5s17.5-7.83 17.5-17.5V82.43h35V99.5c0 9.67 7.83 17.5 17.5 17.5s17.5-7.83 17.5-17.5V82.43h35V99.5c0 9.67 7.83 17.5 17.5 17.5s17.5-7.83 17.5-17.5V82h-.12Z" fill="#64f7d7" opacity=".44" data-color="5"></path>
        <path d="M352.17 82.43 341.6 30h-32.48l7.83 52.43h.04V99.5c0 9.67 7.83 17.5 17.5 17.5s17.5-7.83 17.5-17.5l.17-17.07Z" fill="#ffffff" data-color="2"></path>
        <path d="M276.26 30h-32.09L247 82v17.5c0 9.67 7.83 17.5 17.5 17.5s17.5-7.83 17.5-17.5V82.43h.13L276.26 30Z" fill="#ffffff" data-color="2"></path>
        <path d="M211.3 30h-33.26v52H178v17.5c0 9.67 7.83 17.5 17.5 17.5s17.5-7.83 17.5-17.5l.26-17.07L211.3 30Z" fill="#ffffff" data-color="2"></path>
        <path d="m113.87 30-5.82 52H108v17.5c0 9.67 7.83 17.5 17.5 17.5s17.5-7.83 17.5-17.5V82l2.96-52h-32.09Z" fill="#ffffff" data-color="2"></path>
        <path d="M49.3 30 38 82v17.5c0 9.67 7.83 17.5 17.5 17.5h1c9.67 0 17.5-7.83 17.5-17.5V82.16L82.17 30H49.3Z" fill="#ffffff" data-color="2"></path>
        <path d="M3.11 84 3 104v12.5c0 6.9 7.83 12.5 17.5 12.5S38 123.4 38 116.5c0 6.9 7.83 12.5 17.5 12.5h1c8.25 0 15.16-4.09 17-9.58 1.84 5.49 8.75 9.58 17 9.58 9.67 0 17.5-5.6 17.5-12.5 0 6.9 7.83 12.5 17.5 12.5s17.5-5.6 17.5-12.5c0 6.9 7.83 12.5 17.5 12.5s17.5-5.6 17.5-12.5c0 6.9 7.83 12.5 17.5 12.5 8.25 0 15.16-4.09 17-9.58 1.84 5.49 8.75 9.58 17 9.58 9.67 0 17.5-5.6 17.5-12.5 0 6.9 7.83 12.5 17.5 12.5s17.5-5.6 17.5-12.5c0 6.9 7.83 12.5 17.5 12.5s17.5-5.6 17.5-12.5c0 6.9 7.83 12.5 17.5 12.5s17.5-5.6 17.5-12.5c0 6.9 7.83 12.5 17.5 12.5s17.5-5.6 17.5-12.5V84H3.11Z" opacity=".23" fill="#045441" data-color="3"></path>
    </g>
</svg>