<svg width="43" height="43" viewBox="0 0 43 43" fill="none" xmlns="http://www.w3.org/2000/svg">
<path d="M34.0947 0H8.34467C3.73603 0 0 3.73603 0 8.34467V33.8858C0 38.4944 3.73603 42.2305 8.34467 42.2305H34.0947C38.7033 42.2305 42.4393 38.4944 42.4393 33.8858V8.34467C42.4393 3.73603 38.7033 0 34.0947 0Z" fill="#87DF3C"/>
<path d="M17.4995 41.9834C15.2162 41.5126 13.0267 40.7751 11.0061 39.5995C5.42 36.3502 1.89796 31.5799 0.629313 25.231C-1.54421 14.3502 5.16124 3.85362 15.564 0.863484C26.9831 -2.41896 39.0858 4.59037 41.8527 16.1552C44.2055 25.9885 39.4871 35.9165 30.4129 40.2723C28.6207 41.1325 26.7395 41.6684 24.798 42.031C24.659 42.0705 24.52 42.1028 24.3839 42.021C24.1914 41.628 24.183 41.1888 24.1623 40.7759C24.0944 39.421 23.9267 38.0757 23.8029 36.7271C23.63 34.8447 23.4563 32.9623 23.269 31.0815C23.1408 29.7961 23.0426 28.5075 22.9212 27.2216C22.8517 26.4849 22.7874 25.7469 22.7035 25.0114C22.662 24.6452 22.4887 24.4943 22.1101 24.5202C21.5754 24.557 21.0375 24.5889 20.5025 24.5657C20.0812 24.5478 19.9146 24.7271 19.8667 25.1316C19.6411 27.0268 19.3959 28.9196 19.1559 30.8132C18.7035 34.3807 18.2798 37.9519 17.8022 41.5158C17.7759 41.7135 17.7711 41.9379 17.4999 41.9834H17.4995Z" fill="#87DF3C"/>
<path d="M17.5269 42.2292C17.6011 41.7017 17.7217 40.9857 17.8028 40.4866C18.3922 35.9187 18.9576 31.3481 19.5279 26.7778C19.6117 26.1065 19.6916 25.4345 19.7567 24.7612C19.779 24.5292 19.8757 24.4146 20.1061 24.4118C20.9247 24.4014 21.7437 24.3946 22.5619 24.3771C22.7644 24.3727 22.7863 24.4857 22.8019 24.6422C22.8806 25.4425 22.9752 26.2411 23.0475 27.0422C23.2236 28.9893 23.3817 30.9384 23.5638 32.8851C23.8489 35.9307 24.1205 39.182 24.4575 42.23" fill="#F4F5F4"/>
<path d="M4.10929 22.0403C4.02663 17.7699 5.28529 13.9532 7.97634 10.618C10.4625 7.53686 13.6587 5.5654 17.4918 4.66772C21.2251 3.7936 24.8921 4.13183 28.3882 5.70676C32.3291 7.48175 35.2489 10.3429 37.0802 14.2818C37.8905 16.0245 38.3597 17.8514 38.5653 19.7645C38.9754 23.5837 38.154 27.1285 36.2045 30.4017C34.5569 33.1686 32.2792 35.309 29.4188 36.8157C29.1465 36.959 29.0235 36.969 28.9368 36.6188C28.722 35.7491 28.4772 34.8861 28.2137 34.0304C28.1254 33.7441 28.1905 33.6095 28.4453 33.4769C29.7187 32.8136 30.8053 31.8924 31.7644 30.8474C33.4891 28.9682 34.6635 26.7831 35.2082 24.2697C35.5213 22.8258 35.6559 21.3706 35.5029 19.9075C35.1922 16.9349 34.1236 14.2671 32.155 11.9885C29.8621 9.33462 26.9933 7.70857 23.5204 7.16389C20.0459 6.61882 16.8034 7.29288 13.834 9.13975C10.7065 11.0853 8.60088 13.8653 7.66047 17.4281C6.39102 22.2376 7.39812 26.5866 10.5695 30.4281C11.5016 31.557 12.6161 32.4754 13.8476 33.2521C14.1099 33.4174 14.175 33.5444 14.0668 33.8511C13.7733 34.6821 13.5209 35.5282 13.2714 36.374C13.1971 36.6264 13.1456 36.7162 12.8692 36.5549C8.99062 34.2907 6.32194 31.051 4.9295 26.7711C4.42954 25.2345 4.15241 23.6615 4.10889 22.0419L4.10929 22.0403Z" fill="#009874"/>
<path d="M10.6618 21.9492C10.4853 16.681 14.0677 12.0776 19.1275 11.0265C22.4934 10.3273 25.5378 11.0601 28.2025 13.2432C30.4811 15.11 31.7745 17.5235 32.0364 20.4622C32.3994 24.5393 30.848 27.7634 27.6275 30.2316C27.3488 30.4453 27.2146 30.4964 27.1088 30.0687C26.864 29.0768 26.5837 28.0924 26.2774 27.1177C26.1576 26.7359 26.2195 26.4872 26.5022 26.204C27.5337 25.1722 28.153 23.9167 28.4417 22.4879C29.2432 18.5239 26.277 14.5106 22.2542 14.0347C18.3947 13.5778 14.9354 16.1571 14.2629 19.878C13.8285 22.2827 14.4818 24.4007 16.1605 26.1837C16.3362 26.3706 16.3897 26.5175 16.3103 26.7595C15.9704 27.7918 15.6322 28.8252 15.3247 29.8674C15.2113 30.2516 15.0987 30.2168 14.8248 30.0028C12.6956 28.342 11.4102 26.1665 10.8371 23.5481C10.8236 23.4866 10.8128 23.424 10.8076 23.3617C10.7677 22.8601 10.6187 22.3689 10.6614 21.9492H10.6618Z" fill="#009874"/>
<path d="M23.2385 21.1549C23.2621 22.2985 22.3792 23.2545 21.2734 23.2817C20.1621 23.3092 19.2045 22.3968 19.1718 21.2798C19.1387 20.1378 20.022 19.1554 21.1117 19.1227C22.2366 19.0892 23.2146 20.0236 23.2381 21.1545L23.2385 21.1549Z" fill="#F4F5F4"/>
</svg>
