<svg preserveAspectRatio="xMidYMid meet" data-bbox="-0.005 -0.01 442.188 295.452" viewBox="-0.005 -0.01 442.188 295.452" xmlns="http://www.w3.org/2000/svg" data-type="color" role="presentation" aria-hidden="true" aria-label="">
    <g>
        <path d="m242.58 0 88.64 89.64c6.86 8.63.4 14.03-5.37 20.26-26.25 28.36-55.94 54.78-82.48 83l-1.23.71c-6.82-8.52-25.34-17.94-15.2-30.46 7.53-9.29 20.42-20.79 29.2-29.72 12.02-12.22 24.36-24.14 36.38-36.36l-63.53-64.03C215.36 19.2 234.61 9.7 242.58-.01Z" fill="#1066a5" data-color="1"></path>
        <path d="m199.54 0 16.05 16.73c3.2 4.84 2.39 10.57-1.44 14.78l-64.53 65.12c18.28 20.88 39.47 39.09 58.38 59.35 5.35 5.74 12.34 11.11 8.47 19.76-1.15 2.57-13.48 15.1-16.15 17.15-.38.29-.6.83-1.23.71l-88.2-89.1c-6.49-8.63-1.13-13.73 4.61-19.99z" fill="#1066a5" data-color="1"></path>
        <path d="M115.27 249.5c5.98-9.83 19.45-12.42 27.92-4.09 1.31 1.29 1.91 3.14 2.79 4.29.33.43.8.52 1.05.31.18-.15 1.74-3.04 2.55-3.86 8.87-9.09 25.17-7.21 30.86 4.54.7 1.44 2.47 6.92 2.47 8.29v35.61h-10.76v-34.07c0-2.5-2.08-6.15-4.09-7.7-6.07-4.67-14.26-1.29-17.29 5.27-.29.62-1.67 4.66-1.67 4.99v31.51h-10.76v-34.58c0-.2-1.06-3.37-1.28-3.84-3.04-6.77-12.52-6.98-17.37-1.99-1.68 1.73-4.41 7.12-4.41 9.42v31h-10.76v-53.28h10.76v8.2Z" fill="#1066a5" data-color="1"></path>
        <path d="M399.61 220.29v30.74l5.89-6.66c24.06-13.23 42.56 11.12 34.95 34.43-5.13 15.72-24.2 22.09-36.99 11.16l-3.85-5.12v9.73h-10.76v-72.24l10.76-2.05Zm12.16 30.86c-17.03 2.88-16.63 37.54 6.93 33.57 17.28-2.91 15.88-37.42-6.93-33.57" fill="#1066a5" data-color="1"></path>
        <path d="M84.53 251.03v-9.73h9.99c.05 0 .77.71.77.77v51.75c0 .05-.71.77-.77.77h-9.99v-9.73c-6.11 9.33-15.71 12.73-26.4 9.24-25.04-8.18-21.34-56.56 11.29-53.3 6.71.67 11.41 5.04 15.12 10.24Zm-19.09.13c-17.4 2.75-16.59 37.53 6.93 33.57 16.75-2.83 16.3-37.24-6.93-33.57" fill="#1066a5" data-color="1"></path>
        <path d="M379.12 241.3v36.63c0 4.39-5.3 11.74-9.06 14-14.35 8.62-35.51.66-35.51-17.58v-32.28c0-.05.71-.77.77-.77h9.73c.05 0 .77.71.77.77v34.84c0 .67 1.96 3.93 2.56 4.61 4.6 5.12 15.37 4.44 18.65-1.84.23-.44 1.33-3.1 1.33-3.28v-34.33c0-.05.71-.77.77-.77z" fill="#1066a5" data-color="1"></path>
        <path d="M4.1 279.72c5.46 3.17 10.53 5.89 17.15 5.12 5.08-.59 7.63-6.15 3.3-9.45-6.73-5.13-19.09-3.26-22.37-14.52-5.19-17.84 15.06-23.45 28.68-18.43 1.43.53 6.75 2.66 6.15 4.31-.34.95-4.07 7.69-4.56 7.83-2.34-.74-4.35-2.19-6.74-2.9-5.01-1.48-14.71-1.93-12.17 6.03 1.08 3.4 13.72 6.23 17.54 8.58 10.44 6.44 9.47 21.13-1.27 26.59-6.68 3.4-15.72 2.7-22.66.41-1.4-.46-6.75-2.43-7.12-3.68-.46-1.55 3.8-7.89 4.06-9.91Z" fill="#1066a5" data-color="1"></path>
        <path d="M211.47 240.93c7.46-.89 15.67.27 21.51 5.23l-4.81 8.43c-4.98-2.23-11.77-5.71-17.13-2.83-4.01 2.16-2.19 6.91 1.47 8.85 9 4.79 22.39 4.61 21.62 19.35-.65 12.59-13.12 16.08-23.81 15.12-2.44-.22-13.91-3.24-14.57-5.45-.25-.84 3.91-9.86 4.82-9.86 4.22 5.06 24.1 9.03 21.67-1.74-.94-4.15-13.22-6.56-17.27-8.86-13.3-7.57-8.69-26.44 6.51-28.25Z" fill="#1066a5" data-color="1"></path>
        <path d="M281.66 240.93c9.12-1.09 18.05.57 24.61 7.28l-6.38 7.91c-9.87-8.85-27.58-6.54-28.89 8.47-1.7 19.45 14.77 26.58 28.91 14.64.93 1.25 6.67 7.19 6.22 8.18-1.33 2.97-11.21 7.13-14.5 7.55-40.26 5.11-42.53-50.12-9.97-54.03" fill="#1066a5" data-color="1"></path>
        <path d="M330.96 284.33v9.99c0 .05-.71.77-.77.77h-7.68c-5.92 0-11.66-8.44-11.55-14.07v-58.38c2.58-.23 7.32-2.32 9.62-2.25.48.01 1.16.36 1.16.67v58.92c0 .15 1.27 2.31 1.52 2.58 1.81 1.92 5.25 1.88 7.7 1.78Z" fill="#1066a5" data-color="1"></path>
        <path fill="#1066a5" d="m199.29 226.44-6.15 21.01h-9.22l4.35-21.01z" data-color="1"></path>
    </g>
</svg>