<svg width="39" height="44" viewBox="0 0 39 44" fill="none" xmlns="http://www.w3.org/2000/svg">
<path d="M24.8043 33.4221C25.4421 33.0496 26.0882 32.6728 26.7383 32.294C26.6733 32.2961 26.6083 32.2972 26.5433 32.2993L24.9271 32.341L24.7279 32.3462L24.5741 32.3504L20.5481 32.4548L20.9661 30.2018L21.2912 28.4528L21.4346 27.6795L21.6958 26.2739L21.9951 24.6585L22.0353 24.4425L22.4811 22.0424L25.1129 21.9745L25.3657 21.9683C25.9757 21.9526 26.5856 21.9359 27.1955 21.9203C27.3968 21.915 27.598 21.9098 27.7993 21.9046C29.5073 21.8597 31.2556 21.8128 33.0049 21.7721V18.3222H25.4844C25.3224 18.3222 25.1634 18.319 25.0066 18.3149C24.3791 18.294 23.7877 18.2335 23.2314 18.1364C23.0405 18.103 22.8558 18.0644 22.6731 18.0227C22.5131 17.9861 22.3563 17.9475 22.2035 17.9047C22.1499 17.8901 22.0941 17.8755 22.0405 17.8599C21.961 17.8421 21.8826 17.8223 21.8031 17.8014C21.7773 17.7952 21.7525 17.7868 21.7278 17.7806C21.6741 17.766 21.6204 17.7513 21.5667 17.7346C21.5368 17.7253 21.5069 17.7148 21.4759 17.7054C21.4274 17.6898 21.3789 17.6752 21.3304 17.6585C21.2984 17.648 21.2664 17.6355 21.2344 17.624C21.188 17.6073 21.1415 17.5917 21.0951 17.5739C21.0621 17.5614 21.0291 17.5479 20.996 17.5343C20.9516 17.5165 20.9062 17.4988 20.8619 17.48C20.8278 17.4654 20.7937 17.4498 20.7607 17.4352C20.7174 17.4164 20.674 17.3976 20.6307 17.3767C20.5966 17.3611 20.5626 17.3433 20.5285 17.3277C20.4862 17.3068 20.4429 17.287 20.4005 17.2651C20.3665 17.2473 20.3324 17.2296 20.2984 17.2108C20.256 17.1889 20.2148 17.167 20.1725 17.144C20.1384 17.1252 20.1043 17.1044 20.0692 17.0856C20.028 17.0616 19.9877 17.0386 19.9475 17.0146C19.9134 16.9937 19.8783 16.9718 19.8443 16.951C19.804 16.9259 19.7648 16.9009 19.7256 16.8758C19.6915 16.8529 19.6575 16.8299 19.6234 16.8069C19.5842 16.7809 19.545 16.7537 19.5068 16.7266C19.4727 16.7026 19.4387 16.6775 19.4046 16.6525C19.3664 16.6243 19.3282 16.5972 19.2911 16.568C19.257 16.5419 19.224 16.5158 19.1899 16.4887C19.1528 16.4594 19.1156 16.4302 19.0785 16.4C19.0455 16.3728 19.0124 16.3447 18.9794 16.3165C18.9433 16.2852 18.9072 16.2549 18.871 16.2226C18.838 16.1933 18.806 16.1641 18.773 16.1339C18.7379 16.1015 18.7028 16.0692 18.6667 16.0358C18.6347 16.0055 18.6027 15.9742 18.5707 15.9429C18.5583 15.9304 18.5459 15.9189 18.5336 15.9064C18.5274 15.9001 18.5212 15.8939 18.515 15.8876C18.5005 15.873 18.4861 15.8584 18.4716 15.8438C18.4572 15.8292 18.4427 15.8145 18.4283 15.7999C18.4221 15.7937 18.4159 15.7874 18.4097 15.7811C18.3973 15.7686 18.386 15.7561 18.3736 15.7436C18.3426 15.7112 18.3117 15.6789 18.2817 15.6465C18.2487 15.6111 18.2167 15.5756 18.1847 15.5391C18.1548 15.5067 18.1259 15.4733 18.097 15.441C18.065 15.4044 18.0351 15.3679 18.0041 15.3314C17.9763 15.298 17.9484 15.2646 17.9216 15.2312C17.8916 15.1936 17.8627 15.1561 17.8338 15.1185C17.808 15.0851 17.7812 15.0507 17.7554 15.0162C17.7265 14.9776 17.6997 14.9401 17.6718 14.9015C17.647 14.867 17.6223 14.8336 17.5985 14.7992C17.5717 14.7606 17.5459 14.7209 17.5191 14.6813C17.4964 14.6468 17.4736 14.6124 17.4509 14.578C17.4251 14.5383 17.4014 14.4976 17.3766 14.4579C17.355 14.4235 17.3343 14.3891 17.3137 14.3536C17.2899 14.3129 17.2662 14.2712 17.2435 14.2305C17.2239 14.196 17.2043 14.1616 17.1857 14.1271C17.163 14.0854 17.1413 14.0426 17.1197 13.9998C17.1021 13.9654 17.0835 13.931 17.066 13.8965C17.0443 13.8537 17.0247 13.8099 17.0041 13.7671C16.9876 13.7327 16.971 13.6983 16.9556 13.6638C16.9359 13.62 16.9174 13.5762 16.8978 13.5323C16.8833 13.4979 16.8678 13.4645 16.8534 13.4301C16.8348 13.3852 16.8173 13.3393 16.7997 13.2944C16.7863 13.261 16.7729 13.2276 16.7605 13.1942C16.743 13.1473 16.7275 13.1003 16.711 13.0533C16.6996 13.021 16.6883 12.9887 16.6769 12.9563C16.6604 12.9073 16.6459 12.8582 16.6305 12.8092C16.6212 12.7789 16.6109 12.7486 16.6016 12.7173C16.5851 12.6631 16.5706 12.6088 16.5562 12.5545C16.5489 12.5295 16.5417 12.5034 16.5355 12.4784C16.5149 12.398 16.4953 12.3187 16.4777 12.2383C16.4622 12.1841 16.4488 12.1288 16.4344 12.0735C16.3921 11.918 16.3539 11.7604 16.3178 11.5987C16.2765 11.414 16.2383 11.2272 16.2053 11.0341C16.1093 10.4716 16.0494 9.8737 16.0288 9.23923C16.0236 9.08061 16.0216 8.91991 16.0216 8.75607V0.672852H1.93925C1.14148 0.672852 0.494385 1.32715 0.494385 2.1338V39.268C0.494385 40.0746 1.14148 40.7289 1.93925 40.7289H17.8896C18.2157 38.7859 19.1549 37.1527 20.6348 35.96C20.9609 35.697 21.3108 35.4528 21.6896 35.2347C22.7185 34.6399 23.766 34.0294 24.7785 33.4378C24.7878 33.4325 24.7971 33.4273 24.8053 33.4221H24.8043ZM5.28515 10.0167H13.1566V12.7486H5.28515V10.0167ZM5.28515 17.2024H13.1566V19.9344H5.28515V17.2024ZM16.0711 34.6003H5.28515V31.8683H16.6078L16.0721 34.6003H16.0711ZM17.5283 27.1765H5.28515V24.4446H18.064L17.5283 27.1765Z" fill="#009373"/>
<path d="M20.4154 10.7918C20.4154 10.7918 20.4154 10.798 20.4164 10.8001C20.4226 10.8471 20.4288 10.8941 20.436 10.94C20.4391 10.9577 20.4422 10.9744 20.4453 10.9921C20.4515 11.0235 20.4566 11.0558 20.4628 11.0871C20.467 11.1069 20.4721 11.1257 20.4763 11.1455C20.4824 11.1748 20.4886 11.2029 20.4959 11.2322C20.501 11.252 20.5072 11.2718 20.5124 11.2916C20.5196 11.3188 20.5268 11.3469 20.5351 11.3741C20.5413 11.3939 20.5475 11.4148 20.5547 11.4346C20.5629 11.4607 20.5712 11.4878 20.5805 11.5139C20.5877 11.5348 20.5949 11.5546 20.6022 11.5744C20.6115 11.5995 20.6207 11.6256 20.6311 11.6506C20.6393 11.6704 20.6476 11.6913 20.6558 11.7111C20.6661 11.7362 20.6765 11.7602 20.6868 11.7852C20.695 11.8051 20.7054 11.8249 20.7147 11.8447C20.726 11.8687 20.7363 11.8927 20.7487 11.9167C20.759 11.9365 20.7683 11.9564 20.7786 11.9752C20.79 11.9981 20.8024 12.0211 20.8148 12.044C20.8251 12.0639 20.8364 12.0826 20.8478 12.1025C20.8602 12.1244 20.8736 12.1473 20.886 12.1693C20.8973 12.188 20.9097 12.2068 20.9211 12.2256C20.9345 12.2475 20.9479 12.2684 20.9623 12.2903C20.9747 12.3091 20.9871 12.3279 21.0005 12.3456C21.015 12.3665 21.0294 12.3874 21.0439 12.4072C21.0573 12.426 21.0707 12.4437 21.0841 12.4614C21.0986 12.4813 21.1141 12.5011 21.1295 12.5209C21.144 12.5387 21.1574 12.5564 21.1719 12.5741C21.1873 12.5929 21.2028 12.6128 21.2193 12.6315C21.2338 12.6493 21.2493 12.666 21.2647 12.6827C21.2812 12.7015 21.2978 12.7192 21.3143 12.7369C21.3298 12.7536 21.3452 12.7703 21.3617 12.787C21.3783 12.8048 21.3958 12.8215 21.4123 12.8382C21.4175 12.8434 21.4226 12.8486 21.4278 12.8538C21.433 12.859 21.4381 12.8642 21.4433 12.8695C21.4598 12.8872 21.4773 12.9039 21.4939 12.9206C21.5104 12.9363 21.5269 12.9529 21.5424 12.9686C21.5599 12.9853 21.5785 13.002 21.5971 13.0187C21.6136 13.0343 21.6311 13.049 21.6476 13.0646C21.6662 13.0813 21.6848 13.097 21.7044 13.1126C21.7219 13.1272 21.7395 13.1418 21.757 13.1554C21.7766 13.171 21.7962 13.1857 21.8159 13.2013C21.8334 13.2149 21.8509 13.2284 21.8695 13.242C21.8891 13.2566 21.9098 13.2712 21.9304 13.2858C21.949 13.2984 21.9665 13.3119 21.9851 13.3244C22.0057 13.338 22.0274 13.3526 22.0491 13.3662C22.0677 13.3777 22.0862 13.3902 22.1048 13.4017C22.1265 13.4152 22.1482 13.4278 22.1709 13.4403C22.1905 13.4518 22.2091 13.4622 22.2287 13.4737C22.2514 13.4862 22.2741 13.4977 22.2968 13.5102C22.3164 13.5206 22.335 13.5311 22.3546 13.5405C22.3783 13.5519 22.4021 13.5634 22.4258 13.5749C22.4454 13.5843 22.465 13.5937 22.4846 13.6031C22.5084 13.6135 22.5331 13.6239 22.5579 13.6344C22.5775 13.6427 22.5971 13.6511 22.6178 13.6594C22.6425 13.6699 22.6673 13.6782 22.6931 13.6876C22.7127 13.6949 22.7323 13.7032 22.753 13.7106C22.7788 13.7199 22.8046 13.7283 22.8314 13.7366C22.851 13.7429 22.8706 13.7502 22.8912 13.7565C22.9181 13.7648 22.9449 13.7721 22.9728 13.7794C22.9924 13.7846 23.012 13.7909 23.0316 13.7961C23.0595 13.8034 23.0884 13.8097 23.1173 13.817C23.1369 13.8212 23.1554 13.8264 23.174 13.8306C23.205 13.8368 23.237 13.8431 23.2679 13.8483C23.2855 13.8514 23.302 13.8556 23.3195 13.8577C23.365 13.865 23.4114 13.8723 23.4578 13.8786C23.4609 13.8786 23.464 13.8786 23.4661 13.8796C23.5528 13.89 23.6219 13.8973 23.6684 13.8984C23.6746 13.8984 23.6818 13.8984 23.687 13.8984H29.1238L32.0641 13.865L20.4339 1.62329L20.3958 5.07217V10.5695C20.3958 10.5747 20.3958 10.582 20.3958 10.5883C20.3968 10.6353 20.403 10.7052 20.4143 10.7928L20.4154 10.7918Z" fill="#009373"/>
<path d="M33.2642 39.3693C31.5737 39.4006 29.8852 39.4319 28.6457 39.4611C28.6416 39.4611 28.6385 39.4611 28.6344 39.4611C28.5023 39.4611 28.3691 39.4068 28.236 39.3797C28.3403 39.2649 28.4249 39.1147 28.5529 39.0406C30.2237 38.069 31.8988 37.1038 33.5717 36.1364C34.2529 35.743 34.934 35.3506 35.6141 34.9551C36.4862 34.449 37.2685 33.8239 37.7505 32.9119C38.6401 31.2297 39.024 29.4171 38.8837 27.5189C38.8042 26.4357 38.2128 25.676 37.1323 25.4183C36.6936 25.3139 36.2344 25.2502 35.7834 25.2502C35.7524 25.2502 35.7204 25.2502 35.6895 25.2502C34.9835 25.2638 34.2787 25.2836 33.5727 25.2993C31.231 25.3536 28.8893 25.4162 26.5486 25.4767C26.4722 25.4788 26.3948 25.4809 26.3133 25.483C26.174 26.2343 26.0357 26.9773 25.8974 27.7266C25.819 28.1513 25.7395 28.5781 25.659 29.0101C25.7839 29.007 25.886 29.0038 25.9882 29.0018C27.0213 28.9746 28.0554 28.9485 29.0885 28.9224C30.2052 28.8932 31.3218 28.864 32.4395 28.8369C32.5231 28.8348 32.6067 28.8337 32.6903 28.8337C32.8678 28.8337 33.0454 28.839 33.2229 28.8484C33.3539 28.8557 33.4675 28.8776 33.5738 28.9057C34.0609 29.0362 34.29 29.3858 34.256 29.9795C34.2116 30.7507 34.0072 31.4123 33.5738 31.9518C33.3343 32.2503 33.0268 32.5122 32.6346 32.7324C31.4477 33.4013 30.2681 34.0848 29.0895 34.7704C28.7139 34.9885 28.3382 35.2066 27.9636 35.4258C26.8283 36.0884 25.6941 36.7521 24.5557 37.4095C23.5072 38.0148 22.8952 38.8538 22.6144 39.8597C22.472 40.3721 22.4132 40.9273 22.4287 41.519C22.4555 42.4988 23.1181 43.0874 24.0727 43.0874C24.0903 43.0874 24.1078 43.0874 24.1254 43.0874C24.8127 43.0717 25.5011 43.0519 26.1884 43.0342C29.3228 42.9528 34.2735 42.8703 37.4068 42.7952C37.6049 42.79 37.6906 42.7493 37.7247 42.5312C37.8258 41.8811 37.9569 41.2351 38.0776 40.5881C38.1571 40.1592 38.2386 39.7293 38.3263 39.2587C38.1788 39.2628 38.0683 39.2649 37.9579 39.2681C36.6998 39.3004 34.9805 39.3338 33.2642 39.3661V39.3693Z" fill="#009373"/>
</svg>
