<svg width="46" height="47" viewBox="0 0 46 47" fill="none" xmlns="http://www.w3.org/2000/svg">
<ellipse cx="23" cy="23.5" rx="23" ry="23.5" fill="white"/>
<path d="M21.0725 24.0973C20.5559 24.064 20.0629 23.976 19.5791 24.0117C18.0366 24.1252 16.8868 24.8964 16.226 26.2754C15.5595 27.6663 15.684 29.0502 16.5828 30.3181C17.4927 31.6017 19.3461 32.2266 20.8852 31.8154C22.4735 31.3911 23.6576 30.0287 23.8337 28.4192C23.8476 28.293 23.8431 28.1644 23.8431 28.0372C23.8435 21.8581 23.8433 15.6792 23.8435 9.50009C23.8435 9.17103 24.0046 9.00643 24.3268 9.00627C25.2441 9.00627 26.1613 9.01601 27.0783 9.00016C27.3514 8.99541 27.4581 9.09548 27.5163 9.35065C27.8772 10.9353 28.751 12.1793 30.0246 13.1916C31.1295 14.0698 32.3812 14.4622 33.7631 14.5313C33.9165 14.539 34.0005 14.5673 34 14.7425C33.9954 16.5763 33.9959 18.4098 33.9939 20.2435C33.9939 20.2709 33.9779 20.2981 33.9604 20.3542C33.0279 20.253 32.1159 20.0511 31.2588 19.6797C30.405 19.31 29.5836 18.8664 28.7241 18.4437V18.7408C28.7241 21.7813 28.7241 24.8219 28.7241 27.8622C28.7241 32.3731 25.6689 36.0032 21.1901 36.6808C18.3385 37.1124 15.8408 36.2728 13.7178 34.3066C11.7258 32.4618 10.8955 30.1641 11.0104 27.5148C11.1922 23.3248 14.4828 19.7898 18.668 19.2774C19.3843 19.1898 20.122 19.2778 20.8499 19.2828C21.0176 19.284 21.0914 19.3455 21.0907 19.5283C21.0852 21.0385 21.0884 22.5489 21.0879 24.0591C21.0879 24.0767 21.0738 24.0944 21.0725 24.0973Z" fill="#009373"/>
</svg>
