<svg width="47" height="47" viewBox="0 0 47 47" fill="none" xmlns="http://www.w3.org/2000/svg">
<circle cx="23.5" cy="23.5" r="23.5" fill="white"/>
<g clip-path="url(#clip0_3946_493)">
<path d="M35.9112 35.7795C35.8157 35.6321 35.7123 35.49 35.6141 35.3447C33.8688 32.7613 32.124 30.1768 30.3782 27.5939C29.08 25.6726 27.7828 23.7502 26.4751 21.8353C26.3398 21.637 26.3477 21.5146 26.5085 21.3465C26.7503 21.0936 26.9681 20.8169 27.1942 20.5492C29.3813 17.9657 31.5679 15.3823 33.7549 12.7988C34.2464 12.2183 34.7383 11.6383 35.2731 11.0069C34.5994 11.0069 34.0009 11.0143 33.4019 11.0027C33.2181 10.9989 33.1006 11.0599 32.9826 11.1999C30.5093 14.1263 28.0298 17.047 25.5596 19.9761C25.393 20.1738 25.3366 20.1494 25.203 19.9511C23.2524 17.0533 21.292 14.1619 19.3383 11.2661C19.2161 11.0854 19.0924 10.9989 18.8574 11C16.6729 11.0122 14.4889 11.0074 12.3045 11.0074H12C12.2669 11.4066 12.5019 11.7613 12.7405 12.1144C15.5605 16.2825 18.379 20.4521 21.2079 24.6144C21.363 24.8424 21.3411 24.9648 21.1714 25.1647C18.2234 28.6303 15.2838 32.1039 12.3426 35.5764C12.2392 35.6984 12.142 35.8261 12.0115 35.9889C12.7196 35.9889 13.3698 35.9862 14.02 35.9915C14.139 35.9926 14.1881 35.9094 14.2471 35.8394C15.0138 34.9376 15.7783 34.0342 16.5429 33.1308C18.4234 30.9084 20.3039 28.6865 22.1819 26.462C22.2905 26.3332 22.349 26.3003 22.4602 26.4683C23.0127 27.3033 23.5773 28.1304 24.1376 28.9595C25.6871 31.2514 27.237 33.5427 28.7844 35.8362C28.8612 35.9502 28.9468 35.9974 29.0852 35.9942C29.4852 35.9852 29.8858 35.991 30.2858 35.991C32.1219 35.991 33.9581 35.9921 35.7942 35.9899C35.8595 35.9899 35.9473 36.0265 35.988 35.9592C36.0319 35.8855 35.9473 35.8346 35.9117 35.7795H35.9112ZM33.0792 34.4011C33.04 34.4679 32.9518 34.4334 32.8865 34.4334C31.9642 34.4355 31.042 34.4307 30.1197 34.4398C29.9516 34.4414 29.8513 34.3862 29.7573 34.2489C28.3765 32.2359 26.9911 30.2261 25.6072 28.2152C23.9694 25.8353 22.3323 23.4555 20.6951 21.0756C19.2177 18.9274 17.7403 16.7787 16.2629 14.6305C15.8551 14.0373 15.4446 13.4456 15.0378 12.8518C14.9997 12.7962 14.9381 12.7522 14.9375 12.6339C15.9663 12.6339 16.9836 12.6366 18.0009 12.6308C18.1539 12.6297 18.2103 12.7278 18.2798 12.829C19.7519 14.9703 21.2246 17.1116 22.6983 19.2524C24.6849 22.138 26.673 25.0221 28.659 27.9083C30.1067 30.0124 31.5522 32.1187 32.9967 34.2256C33.0332 34.2786 33.1241 34.3242 33.0792 34.4005V34.4011Z" fill="#009373"/>
</g>
<defs>
<clipPath id="clip0_3946_493">
<rect width="24" height="25" fill="white" transform="translate(12 11)"/>
</clipPath>
</defs>
</svg>
