<svg width="459" height="274" viewBox="0 0 459 274" fill="none" xmlns="http://www.w3.org/2000/svg">
<g clip-path="url(#clip0_3892_4560)">
<path d="M455.78 116.41L451.05 107.12C445.84 96.88 435.47 90.98 424.71 90.98C422.56 90.98 420.4 91.23 418.26 91.72C415.91 92.25 413.59 93.06 411.35 94.2L393.57 103.25L387.15 106.52L330.42 135.39L329.47 135.87L297.66 152.06L188.52 207.6C173.99 215 168.2 232.77 175.6 247.31L180.33 256.6C185.54 266.84 195.91 272.74 206.67 272.74C211.18 272.74 215.75 271.71 220.04 269.52L294.99 231.38L321.58 217.85L352.61 202.06L413.7 170.97L419.07 168.24L427.14 164.13L442.87 156.12C457.4 148.72 463.19 130.95 455.79 116.41H455.78Z" fill="#009373"/>
<path d="M211.78 70.59C245.33 70.59 276.18 82.36 300.43 101.98L367.6 68.58C365.45 66.24 363.26 63.92 361.01 61.68C322.71 23.59 269.95 0 211.78 0C95.01 0 0 95.01 0 211.78C0 217.78 0.28 223.72 0.77 229.59C1.97 243.87 4.59 257.74 8.49 271.09C8.71 271.85 8.91 272.62 9.14 273.37H84.76C84.4 272.62 84.08 271.85 83.73 271.09C75.33 253.04 70.6 232.96 70.6 211.78C70.6 133.93 133.94 70.59 211.79 70.59H211.78Z" fill="#009373"/>
<path d="M339.57 271.7C339.31 272.25 339.08 272.82 338.81 273.37H414.43C414.6 272.82 414.74 272.25 414.91 271.7C416.56 266.12 417.97 260.45 419.16 254.69C421.64 242.72 423.12 230.4 423.48 217.8C423.51 216.61 423.52 215.42 423.53 214.23L346.99 252.29C344.97 258.98 342.5 265.47 339.56 271.7H339.57Z" fill="#009373"/>
</g>
<defs>
<clipPath id="clip0_3892_4560">
<rect width="459" height="273.37" fill="white"/>
</clipPath>
</defs>
</svg>
