<svg width="18" height="18" viewBox="0 0 18 18" fill="#009373" xmlns="http://www.w3.org/2000/svg">
<g clip-path="url(#clip0_3944_466)">
<path d="M-0.000207772 17.8723C0.1911 17.1774 0.373431 16.5155 0.555201 15.8531C0.776803 15.0459 1.00065 14.2396 1.2144 13.4301C1.23684 13.3456 1.2245 13.2302 1.18298 13.1538C-0.640891 9.81058 -0.209748 5.82734 2.3269 2.97633C3.87166 1.24047 5.82485 0.243186 8.14887 0.0368421C12.076 -0.31173 15.6278 1.82086 17.1804 5.42193C18.6618 8.8581 17.7033 13.0258 14.8746 15.4855C13.4008 16.7669 11.697 17.5159 9.75002 17.6889C8.03975 17.8409 6.41448 17.5164 4.88683 16.7308C4.76705 16.6692 4.6641 16.6563 4.53395 16.6908C3.09016 17.0724 1.64498 17.4478 0.200076 17.8249C0.146499 17.8389 0.0923603 17.8504 -0.000488281 17.8725L-0.000207772 17.8723ZM2.13783 15.7649C2.19478 15.7526 2.22367 15.7475 2.252 15.7402C3.05286 15.5319 3.85539 15.3292 4.65344 15.1108C4.84755 15.0576 4.99819 15.0756 5.17547 15.1769C7.34381 16.4167 9.60415 16.5992 11.9001 15.6123C15.0948 14.2393 16.8177 11.0013 16.2522 7.56712C15.7038 4.23735 12.7279 1.62264 9.33402 1.49525C7.45994 1.42497 5.77352 1.95441 4.32048 3.13955C2.64247 4.50837 1.72492 6.28874 1.59 8.44513C1.48958 10.048 1.89912 11.5313 2.77712 12.8814C2.85454 13.0004 2.87193 13.1037 2.83266 13.2428C2.59787 14.0718 2.37374 14.9037 2.13755 15.7652L2.13783 15.7649Z" fill="#009373"/>
<path d="M6.0908 4.77445C6.48856 4.67058 6.66753 4.92284 6.80273 5.27169C6.99965 5.78041 7.21396 6.28269 7.43164 6.78301C7.51186 6.9678 7.50709 7.12907 7.38591 7.28865C7.20919 7.52103 7.04033 7.75958 6.85519 7.98496C6.73569 8.13055 6.72195 8.26242 6.81844 8.4248C7.54524 9.64774 8.56377 10.53 9.8917 11.0555C10.0651 11.1241 10.2064 11.0938 10.324 10.948C10.5503 10.6674 10.7848 10.3933 11.0022 10.1061C11.1226 9.94732 11.2648 9.88881 11.4393 9.96972C12.0766 10.2651 12.7122 10.5641 13.3397 10.8788C13.4146 10.9163 13.4786 11.0591 13.4769 11.1521C13.4595 12.0886 13.1832 12.5438 12.1661 12.9669C11.5916 13.206 10.9975 13.1455 10.407 12.9814C8.26952 12.3873 6.69474 11.0479 5.43273 9.28517C5.03216 8.72578 4.67058 8.1479 4.52331 7.46728C4.31686 6.51395 4.55838 5.68774 5.26386 5.0018C5.48911 4.78257 5.76204 4.73722 6.0908 4.77445Z" fill="#009373"/>
</g>
<defs>
<clipPath id="clip0_3944_466">
<rect width="17.8724" height="17.8724" fill="#009373"/>
</clipPath>
</defs>
</svg>
