<svg width="94" height="44" viewBox="0 0 94 44" fill="none" xmlns="http://www.w3.org/2000/svg">
<path d="M4.6242 43.7655L0 24.7779H2.42078L4.46118 33.9176L6.0388 41.0169H6.09314L7.86184 33.9176L10.2563 24.7779H12.8682L15.1803 33.9176L16.949 40.9906H17.0314L18.6633 33.9176L20.8124 24.7779H23.1525L18.2829 43.7655H15.7535L13.2784 34.2997L11.5377 27.3354H11.4834L9.68838 34.2997L7.15892 43.7655H4.62946H4.6242Z" fill="white"/>
<path d="M23.9658 43.7657V41.862H26.632V26.6835H23.9658V24.7798H31.5823V26.6835H28.9161V41.862H31.5823V43.7657H23.9658Z" fill="white"/>
<path d="M32.916 36.6664V34.328H40.0153V36.6664H32.916Z" fill="white"/>
<path d="M43.062 43.7657V24.778H54.3789V26.7904H45.3478V33.1552H53.59V35.1676H45.3478V43.7639H43.062V43.7657Z" fill="white"/>
<path d="M56.0117 43.7657V41.862H58.6779V26.6835H56.0117V24.7798H63.6282V26.6835H60.962V41.862H63.6282V43.7657H56.0117Z" fill="white"/>
<path d="M87.8261 25.5509H77.8643L77.3927 32.4959H77.6434C78.5234 30.4222 79.5611 29.0076 82.357 29.0076C86.096 29.0076 89.1127 31.5844 89.1127 35.9842C89.1127 40.3841 86.096 43.7462 80.6917 43.7462C76.4497 43.7462 74.1866 41.7671 72.8667 39.5357L76.2919 36.8327C77.235 38.5295 78.4603 39.9125 80.7233 39.9125C82.9863 39.9125 84.1485 38.4979 84.1485 36.3611V36.1104C84.1485 34.0999 82.8916 32.843 80.8495 32.843C79.1527 32.843 78.022 33.723 77.4558 34.3838L73.5907 33.8492L74.4075 21.4368H87.8261V25.5544V25.5509Z" fill="white"/>
<path d="M80.2906 0.0091321C84.9428 -0.138113 89.411 1.49911 92.8152 4.64209C92.994 4.80687 93.1728 4.97515 93.3323 5.15745L90.8432 7.64835C89.2164 5.9971 87.1533 4.76655 84.9253 4.10745C80.0014 2.65253 74.5848 4.00403 70.9948 7.64835L68.5215 5.15745C68.709 4.94535 68.9194 4.74201 69.1298 4.55094C72.1518 1.7936 76.1817 0.138848 80.2923 0.0091321H80.2906Z" fill="white"/>
<path d="M80.7325 7.01558C83.1218 6.96475 85.5127 7.76758 87.3901 9.22776C87.5093 9.32067 88.3928 10.0569 88.3805 10.1218L85.9036 12.5969C85.5531 12.2849 85.2025 11.9746 84.8098 11.7152C83.1744 10.6319 81.1532 10.2848 79.2426 10.7475C78.0015 11.0473 76.8376 11.7064 75.9453 12.6126L73.4614 10.1007C74.429 9.14713 75.5667 8.36708 76.8218 7.83945C78.0558 7.32059 79.3898 7.04187 80.7325 7.01383V7.01558Z" fill="white"/>
<path d="M80.8688 14.0045C81.8329 13.9904 82.7847 14.3796 83.4613 15.058L80.9249 17.6085L78.3901 15.0702C79.0054 14.3971 79.959 14.0167 80.8688 14.0027V14.0045Z" fill="white"/>
</svg>
