<svg width="606" height="619" viewBox="0 0 606 619" fill="none" xmlns="http://www.w3.org/2000/svg">
<foreignObject x="-6.51662" y="6.78758" width="618.692" height="618.692"><div xmlns="http://www.w3.org/1999/xhtml" style="backdrop-filter:blur(6.82px);clip-path:url(#bgblur_0_687_1606_clip_path);height:100%;width:100%"></div></foreignObject><path data-figma-bg-blur-radius="13.648" d="M285.126 26.1994C295.677 18.514 309.982 18.514 320.532 26.1994C329.107 32.445 340.338 33.7104 350.087 29.5293C362.083 24.3844 376.029 27.5674 384.605 37.4079C391.575 45.4049 402.242 49.1377 412.677 47.2308C425.518 44.8843 438.406 51.0908 444.577 62.5929C449.592 71.9403 459.162 77.9533 469.76 78.4162C482.8 78.9859 493.984 87.9045 497.441 100.492C500.251 110.721 508.242 118.712 518.471 121.522C531.058 124.979 539.977 136.163 540.547 149.203C541.01 159.801 547.023 169.371 556.37 174.386C567.872 180.557 574.079 193.445 571.732 206.286C569.825 216.721 573.558 227.388 581.555 234.358C591.396 242.934 594.579 256.88 589.434 268.876C585.253 278.625 586.518 289.856 592.764 298.431C600.449 308.981 600.449 323.286 592.764 333.837C586.518 342.411 585.253 353.642 589.434 363.391C594.579 375.387 591.396 389.333 581.555 397.909C573.558 404.879 569.825 415.546 571.732 425.981C574.079 438.822 567.872 451.71 556.37 457.881C547.023 462.897 541.01 472.466 540.547 483.064C539.977 496.105 531.058 507.288 518.471 510.745C508.242 513.555 500.251 521.547 497.441 531.776C493.984 544.363 482.8 553.281 469.76 553.851C459.162 554.314 449.592 560.327 444.577 569.674C438.406 581.176 425.518 587.383 412.677 585.036C402.242 583.13 391.575 586.862 384.605 594.859C376.029 604.7 362.083 607.883 350.087 602.738C340.338 598.557 329.107 599.822 320.532 606.068C309.982 613.753 295.677 613.753 285.126 606.068C276.552 599.822 265.321 598.557 255.572 602.738C243.576 607.883 229.63 604.7 221.054 594.859C214.084 586.862 203.417 583.13 192.982 585.036C180.141 587.383 167.253 581.176 161.082 569.674C156.066 560.327 146.497 554.314 135.899 553.851C122.858 553.281 111.675 544.363 108.218 531.776C105.408 521.547 97.4164 513.555 87.1874 510.745C74.6003 507.288 65.6817 496.105 65.112 483.064C64.6491 472.466 58.6361 462.897 49.2887 457.881C37.7866 451.71 31.5801 438.822 33.9266 425.981C35.8335 415.546 32.1007 404.879 24.1037 397.909C14.2632 389.333 11.0802 375.387 16.2251 363.391C20.4062 353.642 19.1408 342.411 12.8952 333.837C5.20977 323.286 5.20976 308.981 12.8952 298.431C19.1408 289.856 20.4062 278.625 16.2251 268.876C11.0802 256.88 14.2632 242.934 24.1037 234.358C32.1007 227.388 35.8335 216.721 33.9266 206.286C31.5801 193.445 37.7866 180.557 49.2887 174.386C58.6361 169.371 64.6491 159.801 65.112 149.203C65.6817 136.163 74.6003 124.979 87.1874 121.522C97.4164 118.712 105.408 110.721 108.218 100.492C111.675 87.9045 122.858 78.9859 135.899 78.4162C146.497 77.9533 156.066 71.9403 161.082 62.5929C167.253 51.0908 180.141 44.8843 192.982 47.2308C203.417 49.1377 214.084 45.4049 221.054 37.4079C229.63 27.5674 243.576 24.3844 255.572 29.5293C265.321 33.7104 276.552 32.445 285.126 26.1994Z" fill="url(#paint0_linear_687_1606)"/>
<path d="M254.135 239.885C261.353 239.885 267.706 241.176 273.03 243.952C278.097 246.594 282.096 250.167 284.957 254.747L285.229 255.194L285.233 255.2C288.075 259.962 289.454 265.398 289.454 271.411C289.454 277.288 288.194 282.616 285.634 287.314C283.176 291.828 279.89 295.977 275.81 299.734C271.891 303.376 267.667 307.012 263.107 310.674C263.098 310.681 263.089 310.687 263.081 310.694L252.364 319.106H287.843C287.991 319.084 288.143 319.072 288.297 319.072C289.974 319.072 291.333 320.432 291.333 322.108V339.189C291.332 340.866 289.974 342.225 288.297 342.225H221.305C219.629 342.225 218.27 340.866 218.27 339.189V320.605C218.27 319.718 218.658 318.875 219.333 318.298L248.507 293.359L248.519 293.35C253.78 288.898 257.232 285.267 259.071 282.434C260.817 279.742 261.69 276.735 261.69 273.29V271.377C261.69 268.593 260.758 266.905 259.076 265.747C256.937 264.275 254.699 263.583 252.256 263.583C248.433 263.583 245.972 264.676 244.336 266.502C242.31 268.763 240.855 271.446 239.982 274.638C239.756 275.464 239.191 276.156 238.426 276.544C237.662 276.931 236.77 276.978 235.969 276.672L218.205 269.873C216.697 269.296 215.905 267.641 216.401 266.105C217.957 261.289 220.365 256.962 223.526 253.066C226.786 249.048 230.992 245.88 236.026 243.491L236.034 243.487C241.244 241.033 247.311 239.885 254.135 239.885Z" stroke="#008C6D" stroke-width="6.07101" stroke-linejoin="round"/>
<path d="M333.733 239.885C342.498 239.885 350.033 241.908 356.038 246.229C361.97 250.499 366.34 256.606 369.112 264.405L369.369 265.135C371.976 272.713 373.219 281.65 373.219 291.875C373.219 302.43 371.893 311.58 369.11 319.28C366.312 327.02 361.987 333.164 356.047 337.442L356.048 337.443C350.046 341.802 342.509 343.864 333.733 343.864C325.017 343.864 317.521 341.798 311.494 337.449V337.448C305.494 333.144 301.123 327.037 298.351 319.268V319.267C295.571 311.57 294.247 302.424 294.247 291.875C294.247 281.32 295.572 272.137 298.354 264.405C301.156 256.617 305.525 250.462 311.514 246.217L311.522 246.212C317.568 241.953 325.047 239.885 333.733 239.885ZM333.733 263.241C330.602 263.241 328.556 264.003 327.183 265.196C325.662 266.518 324.424 268.527 323.653 271.465C322.846 274.535 322.386 278.366 322.386 282.958V300.859C322.386 305.186 322.764 308.806 323.495 311.746L323.646 312.325L323.653 312.353C324.422 315.282 325.655 317.289 327.17 318.61C328.567 319.797 330.635 320.576 333.733 320.576C336.864 320.576 338.909 319.814 340.283 318.621C341.804 317.3 343.041 315.29 343.813 312.353C344.619 309.282 345.08 305.452 345.08 300.859V282.958C345.08 278.344 344.649 274.531 343.82 271.492C343.817 271.483 343.815 271.474 343.813 271.465C343.041 268.527 341.804 266.518 340.283 265.196C338.909 264.003 336.864 263.241 333.733 263.241Z" stroke="#008C6D" stroke-width="6.07101" stroke-linejoin="round"/>
<path d="M299.947 347.055C307.165 347.055 313.518 348.347 318.842 351.123C323.909 353.765 327.908 357.338 330.769 361.917L331.041 362.365L331.045 362.371C333.887 367.132 335.266 372.568 335.266 378.582C335.266 384.459 334.006 389.786 331.446 394.485C331.443 394.49 331.44 394.496 331.437 394.501C328.947 399.004 325.666 403.149 321.622 406.905C317.703 410.546 313.479 414.182 308.919 417.844C308.91 417.851 308.901 417.858 308.893 417.865L298.176 426.277H333.655C333.803 426.255 333.955 426.243 334.109 426.243C335.786 426.243 337.145 427.602 337.145 429.279V446.36C337.144 448.036 335.786 449.395 334.109 449.395H267.117C265.441 449.395 264.082 448.036 264.082 446.36V427.776C264.082 426.888 264.47 426.045 265.145 425.468L294.319 400.53L294.331 400.52C299.263 396.347 302.605 392.894 304.519 390.144L304.883 389.603C306.629 386.912 307.502 383.905 307.502 380.46V378.547C307.502 375.763 306.57 374.076 304.888 372.917C302.749 371.446 300.511 370.753 298.068 370.753C294.245 370.753 291.784 371.847 290.148 373.672C288.122 375.933 286.667 378.617 285.794 381.808C285.568 382.635 285.003 383.327 284.238 383.714C283.474 384.102 282.582 384.148 281.781 383.842L264.017 377.043C262.509 376.467 261.717 374.812 262.213 373.276C263.769 368.459 266.177 364.133 269.338 360.237C272.598 356.219 276.804 353.05 281.838 350.662L281.846 350.658C287.056 348.203 293.123 347.055 299.947 347.055Z" stroke="#008C6D" stroke-width="6.07101" stroke-linejoin="round"/>
<path d="M209.928 276.263L199.235 307.145C199.065 307.692 198.552 308.034 197.971 308.068L133.063 309.127C131.833 309.161 131.252 310.698 132.209 311.484L181.095 353.948C181.471 354.289 181.642 354.802 181.505 355.28L166.645 416.26C166.166 418.207 168.284 419.779 170.027 418.754L221.988 387.905C223.183 387.188 224.652 387.222 225.814 388.008L263.119 412.536" stroke="#008C6D" stroke-width="6.07101" stroke-miterlimit="10"/>
<path d="M384.534 283.982C403.699 283.88 417.023 289.551 420.746 291.327C421.361 291.635 422.113 291.532 422.659 291.088C424.026 289.892 426.998 287.604 430.653 286.169C433.079 285.212 435.539 285.178 437.144 285.007C438.306 284.871 439.296 285.827 439.194 287.023L437.383 299.116C437.349 299.39 437.417 299.663 437.657 299.868C439.296 301.337 446.675 308.101 451.39 314.489C455.592 320.16 457.71 327.915 458.427 330.956C458.598 331.741 459.281 332.254 460.067 332.254L470.418 332.288C471.443 332.288 472.263 333.142 472.263 334.167L472.229 364.366C472.229 365.357 471.443 366.177 470.418 366.211L462.322 366.484C461.844 366.484 461.434 366.792 461.297 367.236C460.306 370.174 455.763 381.687 441.449 396.752C437.212 401.193 432.942 404.575 428.945 407.069" stroke="#008C6D" stroke-width="6.07101" stroke-miterlimit="10"/>
<path d="M229.443 217.475L221.293 217.475L221.293 180.052L238.986 180.052C241.309 180.052 243.311 180.553 244.99 181.554C246.706 182.554 248.029 183.966 248.958 185.789C249.887 187.576 250.352 189.649 250.352 192.008C250.352 194.367 249.887 196.44 248.958 198.227C248.029 200.014 246.706 201.426 244.99 202.463C243.311 203.464 241.309 203.964 238.986 203.964L229.443 203.964L229.443 217.475ZM229.443 187.129L229.443 196.887L238.021 196.887C238.843 196.887 239.54 196.744 240.112 196.458C240.684 196.172 241.13 195.761 241.452 195.225C241.774 194.653 241.934 193.974 241.934 193.188L241.934 190.829C241.934 190.007 241.774 189.327 241.452 188.791C241.13 188.255 240.684 187.844 240.112 187.558C239.54 187.272 238.843 187.129 238.021 187.129L229.443 187.129ZM261.851 217.475L253.916 217.475L253.916 189.327L261.851 189.327L261.851 195.439L262.119 195.439C262.334 194.403 262.727 193.42 263.299 192.491C263.871 191.561 264.639 190.811 265.604 190.239C266.605 189.631 267.838 189.327 269.303 189.327L270.697 189.327L270.697 196.726L268.714 196.726C267.177 196.726 265.89 196.869 264.853 197.155C263.853 197.405 263.102 197.834 262.602 198.442C262.101 199.049 261.851 199.907 261.851 201.015L261.851 217.475ZM285.463 218.118C282.604 218.118 280.156 217.528 278.118 216.349C276.117 215.133 274.58 213.418 273.507 211.202C272.471 208.986 271.953 206.377 271.953 203.374C271.953 200.408 272.453 197.834 273.454 195.654C274.49 193.438 275.992 191.722 277.957 190.507C279.923 189.292 282.318 188.684 285.142 188.684C288.251 188.684 290.753 189.363 292.647 190.721C294.578 192.044 295.989 193.795 296.883 195.976C297.777 198.156 298.223 200.515 298.223 203.053L298.223 205.412L280.156 205.412L280.156 205.84C280.156 207.699 280.656 209.182 281.657 210.29C282.693 211.363 284.266 211.899 286.375 211.899C288.055 211.899 289.395 211.559 290.396 210.88C291.432 210.201 292.397 209.415 293.291 208.521L297.258 213.454C296.007 214.883 294.363 216.027 292.326 216.885C290.324 217.707 288.037 218.118 285.463 218.118ZM285.302 194.528C284.23 194.528 283.301 194.778 282.515 195.279C281.764 195.743 281.174 196.404 280.745 197.262C280.352 198.12 280.156 199.139 280.156 200.318L280.156 200.747L290.02 200.747L290.02 200.265C290.02 199.121 289.842 198.12 289.484 197.262C289.163 196.404 288.644 195.743 287.929 195.279C287.25 194.778 286.375 194.528 285.302 194.528ZM282.086 174.852L288.734 174.852L295.811 183.376L291.897 186.486L285.41 180.32L278.922 186.486L275.009 183.376L282.086 174.852ZM310.154 217.475L302.219 217.475L302.219 189.327L310.154 189.327L310.154 194.099L310.475 194.099C310.976 192.598 311.833 191.329 313.049 190.293C314.3 189.22 315.962 188.684 318.035 188.684C319.965 188.684 321.609 189.167 322.967 190.132C324.325 191.097 325.308 192.509 325.916 194.367L326.077 194.367C326.577 192.795 327.596 191.454 329.133 190.346C330.67 189.238 332.51 188.684 334.655 188.684C337.371 188.684 339.444 189.667 340.874 191.633C342.34 193.563 343.072 196.297 343.072 199.836L343.072 217.475L335.137 217.475L335.137 200.479C335.137 198.656 334.816 197.316 334.172 196.458C333.565 195.565 332.6 195.118 331.277 195.118C330.491 195.118 329.74 195.279 329.026 195.6C328.311 195.886 327.721 196.333 327.256 196.941C326.827 197.548 326.613 198.317 326.613 199.246L326.613 217.475L318.678 217.475L318.678 200.479C318.678 198.656 318.356 197.316 317.713 196.458C317.07 195.565 316.105 195.118 314.818 195.118C314.067 195.118 313.335 195.279 312.62 195.6C311.905 195.886 311.315 196.333 310.851 196.941C310.386 197.548 310.154 198.317 310.154 199.246L310.154 217.475ZM352.484 186.325C350.876 186.325 349.696 185.95 348.946 185.199C348.231 184.449 347.874 183.519 347.874 182.411L347.874 181.232C347.874 180.088 348.231 179.159 348.946 178.444C349.696 177.693 350.876 177.318 352.484 177.318C354.093 177.318 355.254 177.693 355.969 178.444C356.72 179.159 357.095 180.088 357.095 181.232L357.095 182.411C357.095 183.519 356.72 184.449 355.969 185.199C355.254 185.95 354.093 186.325 352.484 186.325ZM348.517 217.475L348.517 189.327L356.452 189.327L356.452 217.475L348.517 217.475ZM373.669 218.118C370.917 218.118 368.558 217.528 366.592 216.349C364.626 215.133 363.107 213.418 362.035 211.202C360.998 208.986 360.48 206.377 360.48 203.374C360.48 200.336 360.998 197.727 362.035 195.547C363.107 193.366 364.626 191.686 366.592 190.507C368.558 189.292 370.917 188.684 373.669 188.684C376.421 188.684 378.78 189.292 380.746 190.507C382.712 191.686 384.213 193.366 385.249 195.547C386.322 197.727 386.858 200.336 386.858 203.374C386.858 206.377 386.322 208.986 385.249 211.202C384.213 213.418 382.712 215.133 380.746 216.349C378.78 217.528 376.421 218.118 373.669 218.118ZM373.669 211.845C375.242 211.845 376.457 211.363 377.315 210.398C378.172 209.397 378.601 208.021 378.601 206.269L378.601 200.533C378.601 198.746 378.172 197.37 377.315 196.404C376.457 195.439 375.242 194.957 373.669 194.957C372.132 194.957 370.917 195.439 370.023 196.404C369.165 197.37 368.736 198.746 368.736 200.533L368.736 206.269C368.736 208.021 369.165 209.397 370.023 210.398C370.917 211.363 372.132 211.845 373.669 211.845Z" fill="black"/>
<path d="M183.703 502.854L183.703 478.462L189.329 478.462L192.579 484.682L195.305 489.889L195.375 489.889L198.066 484.682L201.28 478.462L206.941 478.462L206.941 502.854L201.944 502.854L201.944 490.623L201.944 486.849L201.84 486.849L200.057 490.413L195.305 499.045L190.657 490.448L188.805 486.604L188.7 486.604L188.7 490.623L188.7 502.854L183.703 502.854ZM218.31 503.273C216.446 503.273 214.851 502.888 213.523 502.12C212.218 501.328 211.216 500.209 210.518 498.765C209.842 497.321 209.504 495.62 209.504 493.663C209.504 491.73 209.83 490.052 210.483 488.631C211.158 487.187 212.137 486.069 213.418 485.276C214.699 484.484 216.26 484.088 218.101 484.088C220.127 484.088 221.758 484.531 222.993 485.416C224.251 486.278 225.171 487.42 225.753 488.841C226.336 490.262 226.627 491.799 226.627 493.453L226.627 494.991L214.851 494.991L214.851 495.271C214.851 496.482 215.177 497.449 215.829 498.171C216.505 498.87 217.53 499.219 218.904 499.219C219.999 499.219 220.873 498.998 221.525 498.555C222.201 498.113 222.83 497.6 223.412 497.018L225.998 500.233C225.183 501.165 224.111 501.91 222.783 502.469C221.478 503.005 219.988 503.273 218.31 503.273ZM218.205 487.897C217.506 487.897 216.901 488.06 216.388 488.387C215.899 488.689 215.515 489.12 215.235 489.679C214.979 490.239 214.851 490.903 214.851 491.671L214.851 491.951L221.28 491.951L221.28 491.636C221.28 490.891 221.164 490.239 220.931 489.679C220.721 489.12 220.384 488.689 219.918 488.387C219.475 488.06 218.904 487.897 218.205 487.897ZM236.36 502.854L234.019 502.854C232.248 502.854 230.943 502.423 230.105 501.561C229.289 500.699 228.882 499.452 228.882 497.822L228.882 476.995L234.053 476.995L234.053 498.835L236.36 498.835L236.36 502.854ZM238.063 502.854L238.063 476.995L243.235 476.995L243.235 487.618L243.444 487.618C243.77 486.663 244.341 485.836 245.157 485.137C245.972 484.438 247.102 484.088 248.546 484.088C250.41 484.088 251.831 484.729 252.809 486.01C253.788 487.268 254.277 489.05 254.277 491.357L254.277 502.854L249.105 502.854L249.105 491.776C249.105 490.611 248.919 489.738 248.546 489.155C248.173 488.573 247.509 488.282 246.554 488.282C245.995 488.282 245.459 488.387 244.947 488.596C244.458 488.783 244.05 489.074 243.724 489.47C243.398 489.866 243.235 490.367 243.235 490.972L243.235 502.854L238.063 502.854ZM264.925 503.273C263.131 503.273 261.593 502.888 260.312 502.12C259.031 501.328 258.041 500.209 257.342 498.765C256.666 497.321 256.328 495.62 256.328 493.663C256.328 491.683 256.666 489.982 257.342 488.561C258.041 487.14 259.031 486.045 260.312 485.276C261.593 484.484 263.131 484.088 264.925 484.088C266.719 484.088 268.256 484.484 269.537 485.276C270.819 486.045 271.797 487.14 272.473 488.561C273.172 489.982 273.521 491.683 273.521 493.663C273.521 495.62 273.172 497.321 272.473 498.765C271.797 500.209 270.819 501.328 269.537 502.12C268.256 502.888 266.719 503.273 264.925 503.273ZM264.925 499.184C265.95 499.184 266.742 498.87 267.301 498.241C267.86 497.589 268.14 496.692 268.14 495.55L268.14 491.811C268.14 490.646 267.86 489.749 267.301 489.12C266.742 488.491 265.95 488.177 264.925 488.177C263.923 488.177 263.131 488.491 262.548 489.12C261.989 489.749 261.71 490.646 261.71 491.811L261.71 495.55C261.71 496.692 261.989 497.589 262.548 498.241C263.131 498.87 263.923 499.184 264.925 499.184ZM280.98 502.854L275.808 502.854L275.808 484.508L280.98 484.508L280.98 488.491L281.155 488.491C281.295 487.816 281.551 487.175 281.924 486.569C282.296 485.964 282.797 485.474 283.426 485.102C284.078 484.706 284.882 484.508 285.837 484.508L286.746 484.508L286.746 489.33L285.453 489.33C284.451 489.33 283.613 489.423 282.937 489.61C282.285 489.773 281.795 490.052 281.469 490.448C281.143 490.844 280.98 491.403 280.98 492.126L280.98 502.854ZM288.853 509.842L288.853 484.682L292.662 484.682L292.662 487.688L292.837 487.688C293.209 486.593 293.85 485.754 294.759 485.172C295.667 484.566 296.727 484.263 297.938 484.263C299.476 484.263 300.781 484.647 301.852 485.416C302.924 486.162 303.739 487.245 304.298 488.666C304.881 490.064 305.172 491.764 305.172 493.768C305.172 495.748 304.881 497.449 304.298 498.87C303.739 500.291 302.924 501.386 301.852 502.155C300.781 502.9 299.476 503.273 297.938 503.273C296.727 503.273 295.679 502.97 294.793 502.364C293.908 501.759 293.256 500.92 292.837 499.848L292.662 499.848L292.662 509.842L288.853 509.842ZM296.785 500.058C298.113 500.058 299.173 499.627 299.965 498.765C300.757 497.88 301.153 496.738 301.153 495.34L301.153 492.195C301.153 490.798 300.757 489.668 299.965 488.806C299.173 487.944 298.113 487.513 296.785 487.513C296.017 487.513 295.318 487.641 294.689 487.897C294.083 488.154 293.594 488.515 293.221 488.981C292.848 489.446 292.662 489.994 292.662 490.623L292.662 496.773C292.662 497.472 292.848 498.066 293.221 498.555C293.594 499.021 294.083 499.394 294.689 499.674C295.318 499.93 296.017 500.058 296.785 500.058ZM314.46 502.854L312.049 502.854C310.744 502.854 309.766 502.516 309.114 501.84C308.461 501.141 308.135 500.209 308.135 499.045L308.135 476.995L311.944 476.995L311.944 499.743L314.46 499.743L314.46 502.854ZM332.147 502.854L330.016 502.854C329.317 502.854 328.711 502.702 328.199 502.399C327.71 502.073 327.337 501.619 327.081 501.036C326.824 500.454 326.696 499.767 326.696 498.975L326.696 498.66L327.779 499.813L326.556 499.813C326.207 500.932 325.566 501.794 324.634 502.399C323.703 502.982 322.573 503.273 321.245 503.273C319.381 503.273 317.937 502.784 316.912 501.805C315.887 500.827 315.374 499.51 315.374 497.856C315.374 496.645 315.665 495.643 316.248 494.851C316.853 494.036 317.727 493.43 318.869 493.034C320.01 492.615 321.431 492.405 323.132 492.405L326.417 492.405L326.417 490.868C326.417 489.773 326.114 488.922 325.508 488.317C324.902 487.688 323.959 487.373 322.678 487.373C321.629 487.373 320.756 487.618 320.057 488.107C319.381 488.573 318.81 489.155 318.344 489.854L316.073 487.792C316.679 486.767 317.529 485.929 318.624 485.276C319.742 484.601 321.175 484.263 322.922 484.263C325.252 484.263 327.046 484.822 328.304 485.94C329.585 487.035 330.226 488.596 330.226 490.623L330.226 499.743L332.147 499.743L332.147 502.854ZM326.417 494.851L323.202 494.851C321.874 494.851 320.884 495.061 320.231 495.48C319.579 495.9 319.253 496.505 319.253 497.297L319.253 497.926C319.253 498.718 319.533 499.324 320.092 499.743C320.651 500.163 321.396 500.372 322.328 500.372C323.12 500.372 323.819 500.256 324.425 500.023C325.03 499.79 325.508 499.452 325.857 499.01C326.23 498.567 326.417 498.054 326.417 497.472L326.417 494.851ZM338.292 502.854L334.483 502.854L334.483 484.682L338.292 484.682L338.292 487.688L338.466 487.688C338.862 486.709 339.457 485.894 340.249 485.242C341.064 484.589 342.171 484.263 343.568 484.263C345.432 484.263 346.876 484.88 347.901 486.115C348.95 487.35 349.474 489.085 349.474 491.322L349.474 502.854L345.665 502.854L345.665 491.776C345.665 490.355 345.385 489.295 344.826 488.596C344.29 487.874 343.429 487.513 342.24 487.513C341.565 487.513 340.924 487.629 340.318 487.862C339.736 488.072 339.247 488.41 338.851 488.876C338.478 489.342 338.292 489.924 338.292 490.623L338.292 502.854ZM360.449 503.273C358.749 503.273 357.269 502.888 356.011 502.12C354.777 501.328 353.81 500.221 353.111 498.8C352.435 497.379 352.097 495.702 352.097 493.768C352.097 491.834 352.435 490.157 353.111 488.736C353.81 487.315 354.777 486.22 356.011 485.451C357.269 484.659 358.749 484.263 360.449 484.263C362.127 484.263 363.583 484.659 364.817 485.451C366.075 486.22 367.042 487.315 367.718 488.736C368.417 490.157 368.766 491.834 368.766 493.768C368.766 495.702 368.417 497.379 367.718 498.8C367.042 500.221 366.075 501.328 364.817 502.12C363.583 502.888 362.127 503.273 360.449 503.273ZM360.449 500.093C361.754 500.093 362.79 499.697 363.559 498.905C364.351 498.089 364.747 496.89 364.747 495.306L364.747 492.23C364.747 490.646 364.351 489.458 363.559 488.666C362.79 487.851 361.754 487.443 360.449 487.443C359.168 487.443 358.12 487.851 357.304 488.666C356.512 489.458 356.116 490.646 356.116 492.23L356.116 495.306C356.116 496.89 356.512 498.089 357.304 498.905C358.12 499.697 359.168 500.093 360.449 500.093ZM373.272 503.273C372.41 503.273 371.769 503.052 371.35 502.609C370.954 502.143 370.756 501.572 370.756 500.897L370.756 500.338C370.756 499.639 370.954 499.08 371.35 498.66C371.769 498.218 372.41 497.996 373.272 497.996C374.157 497.996 374.798 498.218 375.194 498.66C375.613 499.08 375.823 499.639 375.823 500.338L375.823 500.897C375.823 501.572 375.613 502.143 375.194 502.609C374.798 503.052 374.157 503.273 373.272 503.273ZM383.444 502.854L379.635 502.854L379.635 484.682L383.444 484.682L383.444 487.688L383.618 487.688C384.015 486.709 384.609 485.894 385.401 485.242C386.216 484.589 387.323 484.263 388.72 484.263C390.584 484.263 392.028 484.88 393.053 486.115C394.102 487.35 394.626 489.085 394.626 491.322L394.626 502.854L390.817 502.854L390.817 491.776C390.817 490.355 390.537 489.295 389.978 488.596C389.443 487.874 388.581 487.513 387.392 487.513C386.717 487.513 386.076 487.629 385.471 487.862C384.888 488.072 384.399 488.41 384.003 488.876C383.63 489.342 383.444 489.924 383.444 490.623L383.444 502.854ZM405.671 503.273C403.947 503.273 402.456 502.888 401.198 502.12C399.94 501.328 398.962 500.221 398.263 498.8C397.587 497.379 397.25 495.702 397.25 493.768C397.25 491.834 397.587 490.169 398.263 488.771C398.939 487.35 399.894 486.243 401.128 485.451C402.363 484.659 403.842 484.263 405.566 484.263C407.36 484.263 408.851 484.671 410.039 485.486C411.251 486.278 412.159 487.361 412.765 488.736C413.371 490.11 413.673 491.636 413.673 493.314L413.673 494.746L401.233 494.746L401.233 495.34C401.233 496.738 401.641 497.891 402.456 498.8C403.295 499.685 404.483 500.128 406.021 500.128C407.139 500.128 408.082 499.883 408.851 499.394C409.62 498.905 410.261 498.241 410.773 497.402L413.044 499.604C412.346 500.699 411.355 501.584 410.074 502.259C408.816 502.935 407.348 503.273 405.671 503.273ZM405.636 487.233C404.751 487.233 403.971 487.443 403.295 487.862C402.643 488.258 402.13 488.817 401.757 489.54C401.408 490.239 401.233 491.054 401.233 491.986L401.233 492.23L409.69 492.23L409.69 491.881C409.69 490.949 409.527 490.134 409.201 489.435C408.874 488.736 408.408 488.2 407.803 487.827C407.197 487.431 406.475 487.233 405.636 487.233ZM424.845 502.854L421.525 502.854C420.22 502.854 419.219 502.504 418.52 501.805C417.844 501.083 417.506 500.105 417.506 498.87L417.506 487.792L414.676 487.792L414.676 484.682L416.213 484.682C416.842 484.682 417.273 484.543 417.506 484.263C417.763 483.984 417.891 483.529 417.891 482.9L417.891 479.72L421.315 479.72L421.315 484.682L425.124 484.682L425.124 487.792L421.315 487.792L421.315 499.743L424.845 499.743L424.845 502.854Z" fill="black"/>
<path d="M150.564 177.788L127.623 155.682L132.721 150.391L141.517 152.971L148.884 155.126L148.948 155.061L146.489 147.811L143.552 139.15L148.683 133.826L171.624 155.931L167.095 160.631L155.592 149.547L152.042 146.126L151.947 146.225L153.685 151.131L157.496 163.424L145.198 160.004L139.904 158.263L139.809 158.361L143.589 162.003L155.093 173.088L150.564 177.788ZM183.531 147.164C181.601 148.647 179.642 149.519 177.655 149.779C175.673 149.997 173.746 149.636 171.873 148.696C170.024 147.737 168.321 146.245 166.763 144.218C165.225 142.215 164.228 140.218 163.773 138.227C163.323 136.194 163.447 134.257 164.144 132.417C164.841 130.577 166.142 128.925 168.048 127.46C170.148 125.848 172.189 125.008 174.172 124.943C176.161 124.835 178.022 125.285 179.756 126.293C181.491 127.302 183.016 128.662 184.332 130.376L185.555 131.968L173.358 141.339L173.58 141.628C174.544 142.883 175.651 143.625 176.902 143.854C178.158 144.04 179.497 143.587 180.921 142.493C182.055 141.622 182.784 140.697 183.107 139.72C183.455 138.724 183.698 137.692 183.838 136.626L189.075 137.898C188.972 139.512 188.455 141.137 187.524 142.772C186.6 144.365 185.268 145.829 183.531 147.164ZM171.188 131.322C170.464 131.878 169.966 132.529 169.695 133.275C169.429 133.978 169.374 134.73 169.529 135.531C169.709 136.315 170.104 137.104 170.716 137.9L170.939 138.19L177.598 133.074L177.348 132.748C176.755 131.976 176.115 131.393 175.429 130.999C174.767 130.587 174.074 130.409 173.351 130.466C172.633 130.481 171.912 130.766 171.188 131.322ZM202.552 133.335L199.968 134.971C198.015 136.208 196.274 136.644 194.746 136.279C193.244 135.897 191.923 134.807 190.784 133.007L176.233 110.023L181.94 106.41L197.199 130.512L199.745 128.901L202.552 133.335ZM204.575 132.401L189.238 102.309L195.256 99.2416L201.557 111.604L201.801 111.479C201.614 110.174 201.787 108.874 202.322 107.577C202.856 106.28 203.964 105.203 205.645 104.346C207.813 103.241 209.847 103.144 211.746 104.054C213.63 104.938 215.257 106.722 216.625 109.406L223.443 122.784L217.425 125.852L210.855 112.961C210.164 111.606 209.429 110.699 208.65 110.243C207.871 109.786 206.925 109.841 205.814 110.407C205.163 110.739 204.602 111.179 204.13 111.727C203.671 112.234 203.369 112.815 203.225 113.469C203.08 114.123 203.187 114.803 203.546 115.508L210.593 129.334L204.575 132.401ZM236.642 118.466C234.439 119.262 232.379 119.472 230.464 119.095C228.539 118.691 226.826 117.756 225.327 116.292C223.856 114.817 222.687 112.878 221.819 110.474C220.941 108.041 220.601 105.802 220.801 103.756C221.029 101.701 221.76 99.9164 222.993 98.4036C224.216 96.8621 225.929 95.6936 228.132 94.8979C230.336 94.1021 232.401 93.9066 234.326 94.3113C236.241 94.6874 237.929 95.5985 239.389 97.0446C240.878 98.4804 242.062 100.415 242.94 102.847C243.808 105.251 244.133 107.496 243.916 109.58C243.726 111.654 243.02 113.462 241.798 115.003C240.565 116.516 238.846 117.67 236.642 118.466ZM234.829 113.443C236.088 112.989 236.922 112.251 237.33 111.23C237.727 110.181 237.673 108.955 237.166 107.553L235.508 102.959C234.991 101.528 234.25 100.55 233.284 100.026C232.318 99.5009 231.205 99.4659 229.946 99.9206C228.715 100.365 227.882 101.103 227.445 102.134C227.038 103.154 227.092 104.38 227.609 105.811L229.267 110.405C229.774 111.807 230.515 112.785 231.491 113.338C232.486 113.853 233.598 113.888 234.829 113.443ZM256.459 111.799L249.906 113.435L244.102 90.1866L250.655 88.5505L251.916 93.5987L252.137 93.5434C252.101 92.6431 252.223 91.7502 252.503 90.8647C252.784 89.9792 253.264 89.2007 253.943 88.5294C254.645 87.8212 255.6 87.316 256.811 87.0138L257.962 86.7264L259.488 92.8374L257.849 93.2464C256.58 93.5634 255.547 93.9468 254.749 94.3967C253.974 94.8097 253.443 95.3187 253.155 95.9238C252.867 96.5288 252.837 97.289 253.065 98.2041L256.459 111.799ZM285.619 107.89C282.861 108.139 280.453 107.867 278.396 107.074C276.369 106.279 274.607 105.2 273.11 103.838L277.242 98.8377C278.412 99.9544 279.691 100.756 281.079 101.242C282.497 101.725 283.979 101.897 285.525 101.758C287.222 101.605 288.448 101.143 289.204 100.373C289.959 99.6019 290.285 98.6408 290.181 97.4892C290.129 96.9134 289.977 96.4077 289.724 95.9723C289.498 95.5037 289.099 95.1425 288.526 94.8886C287.981 94.6016 287.203 94.4426 286.192 94.4114L283.019 94.2847C280.779 94.1809 278.896 93.8005 277.371 93.1435C275.873 92.4536 274.717 91.4884 273.902 90.248C273.085 88.9773 272.597 87.4632 272.439 85.7054C272.267 83.7962 272.587 82.0871 273.398 80.5781C274.237 79.0361 275.498 77.7769 277.182 76.8004C278.897 75.8211 280.996 75.2196 283.481 74.9958C285.875 74.7802 288.017 74.9845 289.906 75.6087C291.793 76.2026 293.452 77.1531 294.883 78.4601L290.71 83.5103C289.873 82.6996 288.884 82.0707 287.744 81.6234C286.632 81.1431 285.257 80.9767 283.621 81.124C282.075 81.2632 280.948 81.6397 280.24 82.2534C279.531 82.8671 279.221 83.6589 279.308 84.6286C279.373 85.356 279.548 85.936 279.831 86.3688C280.145 86.7988 280.585 87.1105 281.153 87.3038C281.75 87.4944 282.495 87.6259 283.388 87.6982L286.57 87.9158C288.782 88.0527 290.635 88.451 292.131 89.1107C293.626 89.7703 294.779 90.7052 295.591 91.9153C296.403 93.1253 296.89 94.6395 297.054 96.4578C297.237 98.4883 296.913 100.32 296.082 101.953C295.282 103.583 293.997 104.921 292.228 105.966C290.458 107.011 288.255 107.653 285.619 107.89ZM322.909 107.086L319.169 106.95C318.348 106.921 317.58 106.695 316.864 106.273C316.18 105.822 315.64 105.194 315.243 104.388C314.847 103.551 314.669 102.57 314.71 101.445L314.731 100.852L316.128 102.638L314.486 102.579C314.065 104.117 313.216 105.273 311.94 106.049C310.665 106.795 309.115 107.135 307.29 107.069C304.888 106.982 303.071 106.277 301.84 104.953C300.61 103.6 300.033 101.889 300.108 99.821C300.169 98.1181 300.63 96.7342 301.491 95.6692C302.382 94.6053 303.598 93.8272 305.138 93.3349C306.709 92.8436 308.543 92.6359 310.641 92.7118L314.427 92.8488L314.481 91.3436C314.523 90.1881 314.252 89.2648 313.668 88.5738C313.085 87.8525 312.079 87.4659 310.65 87.4142C309.312 87.3658 308.237 87.6162 307.426 88.1653C306.614 88.7145 305.937 89.3446 305.394 90.0557L301.508 86.3528C302.533 84.9588 303.805 83.8934 305.323 83.1567C306.843 82.3896 308.85 82.0511 311.343 82.1413C314.719 82.2634 317.23 83.1155 318.878 84.6975C320.557 86.2502 321.346 88.4405 321.244 91.2685L320.864 101.759L323.099 101.84L322.909 107.086ZM314.288 96.6802L311.004 96.5614C309.697 96.5141 308.7 96.7064 308.015 97.1383C307.329 97.5703 306.971 98.2272 306.939 99.109L306.914 99.7932C306.883 100.645 307.134 101.293 307.666 101.739C308.198 102.184 308.965 102.425 309.969 102.461C310.729 102.489 311.417 102.407 312.033 102.216C312.649 102.025 313.147 101.709 313.529 101.266C313.941 100.824 314.16 100.238 314.186 99.5082L314.288 96.6802ZM337.611 109.143L333.631 108.605C331.339 108.296 329.669 107.472 328.622 106.133C327.575 104.794 327.204 102.993 327.509 100.732L329.08 89.1074L325.733 88.6552L326.435 83.4536L328.109 83.6797C329.014 83.8019 329.66 83.6744 330.049 83.297C330.442 82.8895 330.693 82.2787 330.803 81.4645L331.329 77.5746L337.344 78.3873L336.477 84.8102L341.181 85.4457L340.478 90.6473L335.774 90.0118L333.971 103.355L338.314 103.942L337.611 109.143ZM349.418 84.4913C348.077 84.2158 347.157 83.7008 346.66 82.9463C346.192 82.1979 346.053 81.3617 346.243 80.4377L346.445 79.4542C346.641 78.5004 347.099 77.7867 347.817 77.313C348.572 76.8156 349.619 76.7047 350.961 76.9803C352.302 77.2558 353.206 77.7677 353.674 78.5161C354.177 79.2408 354.331 80.08 354.135 81.0338L353.933 82.0174C353.743 82.9414 353.271 83.652 352.517 84.1494C351.792 84.6528 350.759 84.7668 349.418 84.4913ZM340.773 109.787L345.595 86.3154L352.212 87.6746L347.39 111.147L340.773 109.787ZM359.358 115.103C357.138 114.454 355.372 113.557 354.058 112.412C352.753 111.238 351.694 109.819 350.88 108.155L355.819 105.414C356.372 106.558 357.068 107.539 357.907 108.355C358.747 109.171 359.794 109.762 361.05 110.129C362.335 110.505 363.281 110.576 363.889 110.341C364.505 110.077 364.911 109.61 365.107 108.938C365.278 108.354 365.217 107.86 364.922 107.457C364.657 107.063 364.133 106.688 363.349 106.332L360.942 105.295C359.287 104.557 357.961 103.726 356.964 102.8C355.995 101.883 355.36 100.857 355.058 99.7227C354.793 98.5674 354.862 97.3035 355.263 95.9308C355.912 93.7112 357.24 92.1499 359.248 91.2469C361.264 90.3147 363.645 90.25 366.39 91.0526C367.996 91.5223 369.312 92.0654 370.336 92.6819C371.369 93.2693 372.213 93.9599 372.869 94.7539C373.562 95.5273 374.177 96.4046 374.715 97.386L369.877 100.109C369.36 99.1649 368.694 98.352 367.879 97.6699C367.102 96.9671 366.231 96.4748 365.267 96.193C364.187 95.8771 363.347 95.8218 362.748 96.0271C362.178 96.2409 361.808 96.6399 361.637 97.224C361.458 97.8373 361.478 98.3661 361.696 98.8105C361.953 99.2343 362.527 99.6558 363.419 100.075L365.901 101.181C368.319 102.237 369.985 103.532 370.899 105.068C371.851 106.582 372.037 108.333 371.456 110.319C371.029 111.779 370.236 112.974 369.077 113.903C367.918 114.832 366.495 115.415 364.809 115.651C363.161 115.866 361.344 115.684 359.358 115.103ZM372.911 118.902L379.758 101.486L376.615 100.25L378.535 95.3656L381.678 96.6014L382.714 93.9678C383.56 91.8156 384.761 90.4242 386.317 89.7935C387.912 89.1455 389.786 89.2446 391.938 90.0908L396.016 91.694L394.095 96.5789L389.635 94.8254L387.965 99.0731L392.425 100.827L390.505 105.711L386.044 103.958L379.197 121.373L372.911 118.902ZM404.424 133.881L401.091 132.177C400.36 131.803 399.759 131.274 399.289 130.589C398.86 129.891 398.636 129.093 398.617 128.195C398.612 127.269 398.865 126.305 399.378 125.303L399.648 124.775L400.159 126.984L398.696 126.236C397.664 127.451 396.406 128.141 394.921 128.304C393.45 128.44 391.902 128.093 390.277 127.262C388.136 126.167 386.788 124.76 386.232 123.04C385.69 121.294 385.89 119.499 386.832 117.657C387.608 116.14 388.611 115.081 389.842 114.479C391.099 113.892 392.529 113.701 394.133 113.906C395.764 114.125 397.515 114.712 399.384 115.668L402.757 117.393L403.442 116.052C403.969 115.023 404.114 114.072 403.877 113.198C403.653 112.298 402.905 111.523 401.632 110.871C400.44 110.262 399.36 110.034 398.393 110.189C397.425 110.343 396.545 110.628 395.752 111.043L393.797 106.044C395.315 105.214 396.917 104.787 398.605 104.761C400.307 104.708 402.268 105.25 404.49 106.386C407.497 107.924 409.412 109.758 410.237 111.889C411.102 114.006 410.891 116.324 409.602 118.844L404.822 128.19L406.814 129.208L404.424 133.881ZM401.011 120.807L398.085 119.31C396.92 118.715 395.936 118.468 395.132 118.569C394.328 118.671 393.725 119.114 393.324 119.9L393.012 120.51C392.624 121.268 392.577 121.962 392.871 122.59C393.164 123.219 393.758 123.762 394.652 124.219C395.329 124.566 395.987 124.782 396.626 124.87C397.265 124.957 397.851 124.881 398.384 124.641C398.944 124.415 399.39 123.976 399.723 123.326L401.011 120.807ZM428.28 120.387C430.305 121.737 431.686 123.314 432.42 125.12C433.181 126.943 433.303 128.871 432.789 130.905L426.915 129.843C427.244 128.966 427.307 128.075 427.104 127.172C426.902 126.269 426.306 125.489 425.319 124.831C424.179 124.072 423.065 123.878 421.977 124.25C420.905 124.596 419.947 125.402 419.104 126.668L416.624 130.391C415.797 131.632 415.422 132.826 415.498 133.974C415.574 135.121 416.182 136.075 417.322 136.834C418.436 137.576 419.462 137.821 420.398 137.567C421.36 137.331 422.242 136.913 423.044 136.313L426.146 141.123C424.282 142.55 422.383 143.259 420.451 143.251C418.543 143.26 416.648 142.674 414.766 141.493L413.336 142.899L413.387 143.152C413.741 143.278 414.087 143.418 414.425 143.569C414.763 143.721 415.083 143.898 415.387 144.101C416.147 144.607 416.658 145.24 416.92 145.999C417.207 146.775 417.038 147.632 416.414 148.569C415.84 149.43 415.144 149.953 414.326 150.139C413.507 150.325 412.651 150.266 411.756 149.963C410.844 149.685 409.958 149.259 409.097 148.685C407.78 147.808 406.869 146.926 406.362 146.04C405.864 145.196 405.577 144.475 405.501 143.876L408.665 142.913C408.716 143.385 408.876 143.858 409.146 144.33C409.425 144.845 409.856 145.297 410.438 145.685C410.919 146.005 411.362 146.191 411.767 146.241C412.198 146.309 412.523 146.178 412.742 145.848C412.928 145.57 412.953 145.148 412.818 144.583C412.666 144.042 412.028 143.325 410.905 142.431L410.158 141.824L412.386 139.633C410.368 137.667 409.338 135.372 409.295 132.748C409.269 130.098 410.184 127.38 412.04 124.594C414.165 121.404 416.65 119.403 419.494 118.592C422.363 117.798 425.292 118.396 428.28 120.387ZM440.872 161.641L438.017 159.22C437.391 158.689 436.927 158.036 436.626 157.262C436.368 156.485 436.332 155.656 436.519 154.778C436.726 153.875 437.193 152.995 437.921 152.137L438.305 151.684L438.297 153.952L437.044 152.889C435.762 153.836 434.379 154.219 432.896 154.039C431.433 153.835 430.006 153.143 428.613 151.962C426.78 150.407 425.789 148.729 425.642 146.928C425.513 145.103 426.118 143.402 427.457 141.824C428.559 140.525 429.778 139.723 431.113 139.419C432.471 139.135 433.907 139.276 435.422 139.842C436.96 140.428 438.529 141.4 440.13 142.758L443.019 145.209L443.994 144.06C444.742 143.179 445.1 142.286 445.069 141.381C445.057 140.454 444.506 139.528 443.416 138.603C442.395 137.737 441.396 137.268 440.418 137.197C439.441 137.127 438.519 137.202 437.652 137.425L436.892 132.112C438.56 131.651 440.218 131.601 441.866 131.962C443.535 132.3 445.321 133.276 447.223 134.89C449.799 137.075 451.245 139.298 451.56 141.561C451.918 143.82 451.182 146.028 449.352 148.186L442.561 156.192L444.267 157.639L440.872 161.641ZM440.539 148.133L438.033 146.007C437.035 145.161 436.134 144.695 435.328 144.61C434.522 144.525 433.834 144.819 433.263 145.492L432.82 146.014C432.269 146.664 432.065 147.328 432.207 148.008C432.349 148.687 432.803 149.351 433.569 150.001C434.149 150.493 434.74 150.854 435.342 151.086C435.943 151.317 436.531 151.376 437.105 151.265C437.702 151.172 438.236 150.848 438.709 150.291L440.539 148.133ZM451.828 134.965C451.317 134.532 450.912 134.069 450.613 133.575C450.313 133.082 450.022 132.555 449.738 131.996C449.405 131.354 449.088 130.786 448.789 130.292C448.509 129.776 448.137 129.321 447.673 128.927C447.278 128.592 446.871 128.367 446.451 128.25C446.032 128.133 445.508 128.068 444.881 128.055L445.079 124.153C446.028 123.881 447.004 123.811 448.008 123.945C449.032 124.055 450.008 124.504 450.936 125.291C451.47 125.744 451.875 126.207 452.151 126.681C452.451 127.174 452.742 127.701 453.026 128.261C453.359 128.902 453.666 129.482 453.946 129.998C454.269 130.512 454.65 130.955 455.091 131.329C455.486 131.664 455.893 131.889 456.313 132.006C456.732 132.123 457.256 132.188 457.883 132.201L457.685 136.103C456.736 136.375 455.75 136.456 454.726 136.346C453.722 136.213 452.756 135.752 451.828 134.965ZM448.821 171.202C447.237 169.475 446.25 167.656 445.858 165.744C445.489 163.811 445.691 161.871 446.465 159.923C447.258 157.997 448.597 156.171 450.48 154.443C452.386 152.694 454.322 151.518 456.286 150.914C458.271 150.332 460.199 150.318 462.07 150.872C463.964 151.406 465.702 152.536 467.286 154.263C468.87 155.99 469.846 157.819 470.215 159.752C470.607 161.664 470.417 163.572 469.645 165.477C468.895 167.405 467.566 169.243 465.66 170.991C463.777 172.719 461.831 173.884 459.824 174.487C457.837 175.112 455.897 175.157 454.004 174.623C452.132 174.069 450.405 172.928 448.821 171.202ZM452.756 167.592C453.661 168.578 454.663 169.063 455.762 169.046C456.884 169.008 457.994 168.485 459.093 167.477L462.692 164.176C463.813 163.148 464.429 162.087 464.541 160.993C464.653 159.9 464.256 158.86 463.351 157.873C462.467 156.909 461.464 156.424 460.345 156.419C459.246 156.436 458.136 156.959 457.015 157.987L453.416 161.289C452.317 162.296 451.7 163.357 451.566 164.472C451.475 165.587 451.872 166.628 452.756 167.592Z" fill="black"/>
<g filter="url(#filter1_f_687_1606)" style="mix-blend-mode:hard-light">
<rect x="315.202" y="61.6846" width="93.3536" height="489.441" transform="rotate(19.4284 315.202 61.6846)" fill="#BFFFFC" fill-opacity="0.58"/>
</g>
<path d="M409.058 348.833C410.361 348.833 411.515 349.674 411.914 350.914C412.313 352.154 411.866 353.51 410.807 354.27C403.173 359.749 396.601 364.936 391.081 369.833C391.074 369.84 391.067 369.846 391.06 369.852C385.606 374.603 381.215 379.438 377.852 384.351C377.426 384.979 377.02 385.615 376.629 386.259C377.4 385.76 378.208 385.297 379.055 384.874C382.297 383.253 386.138 382.52 390.449 382.52C396.169 382.52 401.396 383.854 406.051 386.576L406.487 386.827C410.96 389.459 414.506 393.186 417.119 397.927C419.848 402.881 421.159 408.604 421.159 414.996C421.159 421.904 419.547 428.183 416.268 433.754L416.269 433.755C413.079 439.238 408.544 443.556 402.746 446.702C402.74 446.705 402.734 446.708 402.729 446.71C396.957 449.795 390.202 451.276 382.57 451.276C374.643 451.276 367.672 449.65 361.784 446.256C361.777 446.253 361.77 446.249 361.764 446.246C355.994 442.863 351.567 438.076 348.508 431.958C348.506 431.953 348.503 431.947 348.5 431.942C345.454 425.751 343.981 418.626 343.981 410.649C343.981 403.646 345.022 397.025 347.127 390.806C349.197 384.69 351.933 379.027 355.337 373.825L355.345 373.814C358.798 368.588 362.591 363.901 366.729 359.763C370.833 355.659 375.014 352.178 379.276 349.336L379.464 349.22C379.913 348.967 380.422 348.833 380.94 348.833H409.058ZM382.57 404.141C379.977 404.141 377.908 404.65 376.256 405.544C376.243 405.552 376.229 405.559 376.215 405.566C374.691 406.361 373.483 407.549 372.575 409.225C372.566 409.241 372.557 409.257 372.548 409.273C371.689 410.794 371.171 412.833 371.171 415.54V417.984C371.171 420.671 371.681 422.773 372.561 424.409C373.456 425.984 374.669 427.202 376.238 428.103C377.899 428.918 379.978 429.383 382.57 429.383C385.189 429.383 387.214 428.908 388.764 428.105C390.447 427.19 391.697 425.961 392.584 424.395C393.46 422.761 393.968 420.663 393.968 417.984V415.54C393.968 412.833 393.45 410.794 392.59 409.273C392.581 409.257 392.574 409.241 392.565 409.225C391.675 407.583 390.447 406.397 388.834 405.59C388.789 405.568 388.745 405.543 388.701 405.518C387.167 404.651 385.168 404.141 382.57 404.141Z" stroke="#099477" stroke-width="6" stroke-linejoin="round"/>
<defs>
<clipPath id="bgblur_0_687_1606_clip_path" transform="translate(6.51662 -6.78758)"><path d="M285.126 26.1994C295.677 18.514 309.982 18.514 320.532 26.1994C329.107 32.445 340.338 33.7104 350.087 29.5293C362.083 24.3844 376.029 27.5674 384.605 37.4079C391.575 45.4049 402.242 49.1377 412.677 47.2308C425.518 44.8843 438.406 51.0908 444.577 62.5929C449.592 71.9403 459.162 77.9533 469.76 78.4162C482.8 78.9859 493.984 87.9045 497.441 100.492C500.251 110.721 508.242 118.712 518.471 121.522C531.058 124.979 539.977 136.163 540.547 149.203C541.01 159.801 547.023 169.371 556.37 174.386C567.872 180.557 574.079 193.445 571.732 206.286C569.825 216.721 573.558 227.388 581.555 234.358C591.396 242.934 594.579 256.88 589.434 268.876C585.253 278.625 586.518 289.856 592.764 298.431C600.449 308.981 600.449 323.286 592.764 333.837C586.518 342.411 585.253 353.642 589.434 363.391C594.579 375.387 591.396 389.333 581.555 397.909C573.558 404.879 569.825 415.546 571.732 425.981C574.079 438.822 567.872 451.71 556.37 457.881C547.023 462.897 541.01 472.466 540.547 483.064C539.977 496.105 531.058 507.288 518.471 510.745C508.242 513.555 500.251 521.547 497.441 531.776C493.984 544.363 482.8 553.281 469.76 553.851C459.162 554.314 449.592 560.327 444.577 569.674C438.406 581.176 425.518 587.383 412.677 585.036C402.242 583.13 391.575 586.862 384.605 594.859C376.029 604.7 362.083 607.883 350.087 602.738C340.338 598.557 329.107 599.822 320.532 606.068C309.982 613.753 295.677 613.753 285.126 606.068C276.552 599.822 265.321 598.557 255.572 602.738C243.576 607.883 229.63 604.7 221.054 594.859C214.084 586.862 203.417 583.13 192.982 585.036C180.141 587.383 167.253 581.176 161.082 569.674C156.066 560.327 146.497 554.314 135.899 553.851C122.858 553.281 111.675 544.363 108.218 531.776C105.408 521.547 97.4164 513.555 87.1874 510.745C74.6003 507.288 65.6817 496.105 65.112 483.064C64.6491 472.466 58.6361 462.897 49.2887 457.881C37.7866 451.71 31.5801 438.822 33.9266 425.981C35.8335 415.546 32.1007 404.879 24.1037 397.909C14.2632 389.333 11.0802 375.387 16.2251 363.391C20.4062 353.642 19.1408 342.411 12.8952 333.837C5.20977 323.286 5.20976 308.981 12.8952 298.431C19.1408 289.856 20.4062 278.625 16.2251 268.876C11.0802 256.88 14.2632 242.934 24.1037 234.358C32.1007 227.388 35.8335 216.721 33.9266 206.286C31.5801 193.445 37.7866 180.557 49.2887 174.386C58.6361 169.371 64.6491 159.801 65.112 149.203C65.6817 136.163 74.6003 124.979 87.1874 121.522C97.4164 118.712 105.408 110.721 108.218 100.492C111.675 87.9045 122.858 78.9859 135.899 78.4162C146.497 77.9533 156.066 71.9403 161.082 62.5929C167.253 51.0908 180.141 44.8843 192.982 47.2308C203.417 49.1377 214.084 45.4049 221.054 37.4079C229.63 27.5674 243.576 24.3844 255.572 29.5293C265.321 33.7104 276.552 32.445 285.126 26.1994Z"/>
</clipPath><filter id="filter1_f_687_1606" x="90.7153" y="-5.34058e-05" width="374.209" height="615.993" filterUnits="userSpaceOnUse" color-interpolation-filters="sRGB">
<feFlood flood-opacity="0" result="BackgroundImageFix"/>
<feBlend mode="normal" in="SourceGraphic" in2="BackgroundImageFix" result="shape"/>
<feGaussianBlur stdDeviation="30.8423" result="effect1_foregroundBlur_687_1606"/>
</filter>
<linearGradient id="paint0_linear_687_1606" x1="163.621" y1="242.611" x2="469.845" y2="315.185" gradientUnits="userSpaceOnUse">
<stop stop-color="#B9E0CC"/>
<stop offset="0.44681" stop-color="#EDF6F1"/>
<stop offset="1" stop-color="#B9E0CC"/>
</linearGradient>
</defs>
</svg>
