<svg width="16" height="16" viewBox="0 0 16 16" fill="none" xmlns="http://www.w3.org/2000/svg">
    <path d="M7.81303 0C3.50493 0 0 3.50474 0 7.81347C0 12.1222 3.50493 15.6269 7.81303 15.6269C12.1211 15.6269 15.6269 12.1222 15.6269 7.81347C15.6269 3.50474 12.122 0 7.81303 0ZM7.81303 14.1989C4.29218 14.1989 1.42828 11.3352 1.42828 7.81347C1.42828 4.29177 4.29218 1.4282 7.81303 1.4282C11.3339 1.4282 14.1988 4.29194 14.1988 7.81364C14.1988 11.3353 11.3339 14.1989 7.81303 14.1989Z" fill="#009373"/>
    <path d="M8.22826 9.35815L8.80562 5.79167V3.3559H6.84615V5.79167L7.43646 9.35815H8.22826Z" fill="#009373"/>
    <path d="M7.81356 10.0609C7.02281 10.0609 6.69643 10.4756 6.69643 11.0153V11.3168C6.69643 11.8565 7.02298 12.2712 7.81356 12.2712C8.60413 12.2712 8.93085 11.8565 8.93085 11.3168V11.0153C8.93085 10.4756 8.6043 10.0609 7.81356 10.0609Z" fill="#009373"/>
</svg>
