<svg width="183" height="94" viewBox="0 0 183 94" fill="none" xmlns="http://www.w3.org/2000/svg">
    <path d="M92.0401 17.4031H89.3186V9.91907H82.3359V7.48408H89.3186V6.10352e-05H92.0401V7.48408H99.0228V9.91907H92.0401V17.4031Z" fill="#009473"/>
    <rect x="103.137" y="7.5835" width="79.6273" height="3.03342" fill="#009373"/>
    <rect y="7.5835" width="78.1105" height="3.03342" fill="#009373"/>
    <path d="M28.1835 93.9968L21.2324 65.7018H24.8713L27.9384 79.3217L30.3099 89.901H30.3916L33.0502 79.3217L36.6496 65.7018H40.5757L44.0512 79.3217L46.7099 89.8618H46.8338L49.2869 79.3217L52.5174 65.7018H56.0351L48.7151 93.9968H44.9129L41.1923 79.8911L38.5758 69.513H38.4941L35.7959 79.8911L31.9936 93.9968H28.1914H28.1835Z" fill="#009373"/>
    <path d="M57.2578 93.9968V91.16H61.2656V68.5412H57.2578V65.7044H68.7067V68.5412H64.699V91.16H68.7067V93.9968H57.2578Z" fill="#009373"/>
    <path d="M70.7109 83.4176V79.9329H81.3826V83.4176H70.7109Z" fill="#009373"/>
    <path d="M85.9629 93.9968V65.7018H102.974V68.7006H89.3989V78.1854H101.789V81.1842H89.3989V93.9942H85.9629V93.9968Z" fill="#009373"/>
    <path d="M105.428 93.9968V91.16H109.436V68.5412H105.428V65.7044H116.877V68.5412H112.869V91.16H116.877V93.9968H105.428Z" fill="#009373"/>
    <path d="M153.252 66.8538H138.278L137.569 77.2032H137.946C139.269 74.113 140.829 72.005 145.031 72.005C150.652 72.005 155.186 75.8449 155.186 82.4015C155.186 88.958 150.652 93.9681 142.528 93.9681C136.151 93.9681 132.75 91.019 130.766 87.6937L135.914 83.6657C137.332 86.1943 139.174 88.2553 142.576 88.2553C145.977 88.2553 147.724 86.1473 147.724 82.9631V82.5895C147.724 79.5934 145.835 77.7204 142.765 77.7204C140.215 77.7204 138.515 79.0318 137.664 80.0165L131.854 79.2198L133.082 60.7231H153.252V66.8591V66.8538Z" fill="#009373"/>
    <path d="M141.924 28.7919C148.917 28.5724 155.633 31.0122 160.75 35.6958C161.019 35.9414 161.288 36.1921 161.528 36.4638L157.786 40.1757C155.341 37.715 152.239 35.8813 148.89 34.8991C141.489 32.731 133.347 34.745 127.95 40.1757L124.232 36.4638C124.514 36.1477 124.831 35.8447 125.147 35.56C129.689 31.4511 135.747 28.9852 141.926 28.7919H141.924Z" fill="#009373"/>
    <path d="M142.588 39.2328C146.18 39.157 149.774 40.3534 152.596 42.5293C152.775 42.6678 154.103 43.7649 154.084 43.8615L150.361 47.5499C149.834 47.0849 149.307 46.6226 148.717 46.236C146.259 44.6217 143.22 44.1044 140.348 44.7941C138.483 45.2407 136.733 46.2229 135.392 47.5734L131.658 43.8302C133.113 42.4092 134.823 41.2467 136.709 40.4605C138.564 39.6873 140.57 39.2719 142.588 39.2301V39.2328Z" fill="#009373"/>
    <path d="M142.794 49.6474C144.243 49.6265 145.674 50.2064 146.691 51.2174L142.879 55.0181L139.068 51.2356C139.993 50.2326 141.427 49.6657 142.794 49.6448V49.6474Z" fill="#009373"/>
</svg>
