<svg width="183" height="74" viewBox="0 0 183 74" fill="none" xmlns="http://www.w3.org/2000/svg">
    <path d="M92.0401 17.4032H89.3186V9.9192H82.3359V7.48421H89.3186V0.000183105H92.0401V7.48421H99.0228V9.9192H92.0401V17.4032Z" fill="#009473"/>
    <rect x="103.137" y="7.58362" width="79.6273" height="3.03342" fill="#009373"/>
    <rect y="7.58362" width="78.1105" height="3.03342" fill="#009373"/>
    <path d="M5.04025 72.697L0.898438 53.7191H3.06604L4.89326 62.8541L6.30584 69.9496H6.35535L7.93812 62.8541L10.0825 53.7191H12.4219L14.492 62.8541L16.0748 69.9237H16.1475L17.6096 62.8541L19.5342 53.7191H21.6291L17.2692 72.697H15.0041L12.787 63.2357L11.2274 56.2748H11.1779L9.5704 63.2357L7.30532 72.697H5.04025Z" fill="#009373"/>
    <path d="M22.3633 72.697V70.794H24.7506V55.6221H22.3633V53.7191H29.1848V55.6221H26.7975V70.794H29.1848V72.697H22.3633Z" fill="#009373"/>
    <path d="M30.3828 65.5991V63.261H36.7402V65.5991H30.3828Z" fill="#009373"/>
    <path d="M39.4668 72.697V53.7191H49.6008V55.7309H41.5122V62.0925H48.8938V64.1043H41.5122V72.6953H39.4668V72.697Z" fill="#009373"/>
    <path d="M51.0664 72.697V70.794H53.4537V55.6221H51.0664V53.7191H57.8879V55.6221H55.5006V70.794H57.8879V72.697H51.0664Z" fill="#009373"/>
    <path d="M0.740234 42.7293L2.03213 41.5205C3.05327 43.0315 4.26162 43.8448 5.94805 43.8448C8.03056 43.8448 9.15691 42.636 9.15691 40.7762C9.15691 39.2411 8.38641 38.4744 6.46945 37.9857L5.28276 37.6835C2.63708 37.01 1.17963 35.708 1.17963 33.2196C1.17963 30.3358 3.13837 28.7782 5.99137 28.7782C8.17909 28.7782 9.72008 29.709 10.8031 31.4289L9.4911 32.4978C8.69894 31.2648 7.5958 30.4981 5.90782 30.4981C4.0543 30.4981 2.90784 31.4047 2.90784 33.1488C2.90784 34.684 3.80366 35.3816 5.63707 35.8461L6.82376 36.1483C9.65665 36.8684 10.8867 38.2637 10.8867 40.683C10.8867 43.6583 9.01147 45.5665 5.88771 45.5665C3.55456 45.5665 1.90836 44.4976 0.741783 42.7293H0.740234Z" fill="#009373"/>
    <path d="M14.512 29.0581V39.1031C14.512 42.1959 15.4078 43.8225 17.9916 43.8225C20.5754 43.8225 21.4712 42.1941 21.4712 39.1031V29.0581H23.2211V38.6368C23.2211 43.3563 21.8039 45.5649 17.9297 45.5649C14.0556 45.5649 12.7637 43.3563 12.7637 38.6368V29.0581H14.5135H14.512Z" fill="#009373"/>
    <path d="M25.9473 45.2869V29.0581H31.7384C34.3423 29.0581 35.8013 30.8488 35.8013 33.7085C35.8013 36.5681 34.3423 38.3588 31.7384 38.3588H27.6971V45.2869H25.9473ZM27.6971 36.6389H31.7384C33.1138 36.6389 33.9261 35.8014 33.9261 34.3146V33.1058C33.9261 31.6173 33.1138 30.7815 31.7384 30.7815H27.6971V36.6406V36.6389Z" fill="#009373"/>
    <path d="M37.5273 45.2869V29.0581H46.402V30.778H39.2772V36.2193H45.9858V37.9392H39.2772V43.5652H46.402V45.2852H37.5273V45.2869Z" fill="#009373"/>
    <path d="M50.3807 45.2869H48.6309V29.0581H54.422C56.964 29.0581 58.4849 30.709 58.4849 33.6618C58.4849 36.0328 57.4637 37.637 55.5684 38.1257L58.9011 45.2869H56.9222L53.7768 38.3122H50.3807V45.2869ZM54.422 36.6389C55.7974 36.6389 56.6097 35.8014 56.6097 34.3146V33.1058C56.6097 31.6173 55.7974 30.7815 54.422 30.7815H50.3807V36.6406H54.422V36.6389Z" fill="#009373"/>
    <path d="M102.01 72.4813L100.305 66.8795H93.4353L91.7303 72.4813H89.6602L95.6044 53.5034H98.2114L104.156 72.4813H102.013H102.01ZM96.918 55.6257H96.7958L93.9211 64.8694H99.7911L96.9164 55.6257H96.918Z" fill="#009373"/>
    <path d="M109.756 62.83L104.349 53.5034H106.809L111.073 61.0618H111.123L115.482 53.5034H117.822L112.365 62.7472L117.969 72.4813H115.507L111.05 64.5154H111.002L106.544 72.4813H104.205L109.759 62.83H109.756Z" fill="#009373"/>
    <path d="M124.844 54.1381H127.571L132.444 64.3609H132.566L137.463 54.1381H140.094V73.116H138.097V57.1289H137.975L136.537 60.3098L132.47 68.5761L128.402 60.3098L126.965 57.1289H126.843V73.116H124.845V54.1381H124.844Z" fill="#009373"/>
    <path d="M143.41 73.1145V54.1366H153.787V56.1484H145.456V62.51H153.3V64.5218H145.456V71.101H153.787V73.1128H143.41V73.1145Z" fill="#009373"/>
    <path d="M155.15 70.125L156.66 68.7125C157.855 70.479 159.267 71.4322 161.24 71.4322C163.675 71.4322 164.992 70.018 164.992 67.8439C164.992 66.048 164.09 65.1517 161.85 64.5819L160.46 64.2279C157.366 63.4387 155.661 61.9157 155.661 59.0077C155.661 55.6369 157.951 53.8134 161.288 53.8134C163.846 53.8134 165.648 54.9013 166.915 56.913L165.38 58.1632C164.455 56.7213 163.163 55.8251 161.191 55.8251C159.023 55.8251 157.683 56.8854 157.683 58.9248C157.683 60.7207 158.731 61.5358 160.875 62.078L162.264 62.432C165.578 63.2747 167.014 64.9065 167.014 67.7351C167.014 71.2147 164.822 73.4457 161.167 73.4457C158.44 73.4457 156.515 72.1955 155.15 70.1285V70.125Z" fill="#009373"/>
    <path d="M179.979 64.5235H171.379V73.1145H169.334V54.1366H171.379V62.51H179.979V54.1366H182.026V73.1145H179.979V64.5235Z" fill="#009373"/>
    <path d="M90.8038 34.7801C87.0318 30.8291 82.0792 28.7724 76.9256 28.9572C72.3707 29.1195 67.9039 31.1986 64.5558 34.6644C64.3222 34.9061 64.0901 35.16 63.8828 35.4276L66.6244 38.5601C70.6022 33.9788 76.6053 32.2813 82.0607 34.1101C84.5284 34.9372 86.8152 36.4862 88.6192 38.5601L91.3778 35.4276C91.2014 35.198 91.0034 34.9856 90.8053 34.7783L90.8038 34.7801Z" fill="#009373"/>
    <path d="M84.7917 40.5443C82.7107 38.7087 80.062 37.7002 77.4132 37.7624C75.9263 37.7969 74.4472 38.1492 73.0795 38.8002C71.6886 39.4633 70.4277 40.4424 69.3555 41.6426L72.1079 44.8009C73.0981 43.6612 74.3869 42.8341 75.7623 42.4559C77.8804 41.8739 80.1208 42.3091 81.9325 43.6716C82.3673 43.998 82.7572 44.3882 83.1455 44.7802L85.8902 41.6685C85.9026 41.5856 84.9232 40.66 84.7933 40.5443H84.7917Z" fill="#009373"/>
    <path d="M77.647 56.1867C74.7971 56.1867 73.4851 58.0448 72.7161 59.9391L72.4283 59.832C72.7795 58.4143 73.3582 56.6547 74.3468 54.8035C76.3056 51.134 78.8677 48.9823 80.4365 47.8754C79.6862 47.0224 78.631 46.532 77.5634 46.5509C76.7744 46.5648 75.9575 46.8635 75.3107 47.3988C71.5248 50.3137 67.3984 55.8534 67.3984 62.8004C67.3984 68.8046 70.4727 72.6987 75.7873 72.6987C81.1018 72.6987 84.1761 69.0533 84.1761 63.9436C84.1761 59.2259 81.3262 56.1884 77.6439 56.1884L77.647 56.1867ZM79.1849 64.7276C79.1849 67.1572 77.9038 68.5163 75.7904 68.5163C73.6769 68.5163 72.3958 67.159 72.3958 64.7276V64.0852C72.3958 61.6556 73.6769 60.2965 75.7904 60.2965C77.9038 60.2965 79.1849 61.6538 79.1849 64.0852V64.7276Z" fill="#009373"/>
</svg>
