<svg width="183" height="88" viewBox="0 0 183 88" fill="none" xmlns="http://www.w3.org/2000/svg">
    <path d="M92.0401 17.4031H89.3186V9.91907H82.3359V7.48408H89.3186V6.10352e-05H92.0401V7.48408H99.0228V9.91907H92.0401V17.4031Z" fill="#009473"/>
    <rect x="103.137" y="7.58356" width="79.6273" height="3.03342" fill="#009373"/>
    <rect y="7.58356" width="78.1105" height="3.03342" fill="#009373"/>
    <path d="M116.961 52.3186C117.194 52.3138 117.426 52.3115 117.659 52.3118C119.335 52.3163 120.672 52.8868 121.847 54.0712C121.13 54.6208 120.324 55.0904 119.511 55.7276C115.626 58.7484 112.639 62.7714 110.871 67.3637C110.672 67.8896 109.916 69.5276 110.262 69.9655C110.58 69.8761 110.804 69.1433 111.006 68.8087C112.122 66.9634 113.549 65.6525 115.798 65.2326C121.41 64.1847 126.2 67.505 127.241 73.1484C127.815 76.3251 127.095 79.5993 125.243 82.2426C123.673 84.4667 120.965 86.0049 118.354 86.5628C111.322 88.0598 104.43 85.0545 102.92 77.5306C101.132 68.9337 105.666 60.383 112.149 54.962C113.818 53.5656 114.79 52.7922 116.961 52.3186ZM115.673 81.3038C117.18 81.046 118.058 80.7676 119.047 79.5065C120.027 78.2572 120.043 75.606 119.781 74.0895C119.599 72.9854 118.978 72.002 118.06 71.3618C116.984 70.608 115.785 70.436 114.505 70.5112C110.612 70.896 109.717 73.5735 110.046 77.117C110.154 78.2728 110.601 79.5147 111.543 80.2636C112.851 81.2594 114.126 81.3428 115.673 81.3038Z" fill="#009373"/>
    <path d="M173.14 61.8594C174.043 61.747 175.643 61.8309 176.606 61.862C174.072 65.7223 171.435 69.6112 168.946 73.4857L168.583 73.9782L174.248 82.7657C175.095 84.0792 176.029 85.6601 176.891 86.9144C175.675 86.9458 174.458 86.9482 173.241 86.9218C172.075 85.385 170.613 82.6933 169.485 81.0208C168.967 80.2528 166.857 76.8901 166.588 76.2313C166.24 77.027 164.757 79.3126 164.198 80.1892C162.801 82.3749 161.411 84.7721 159.96 86.8946C158.107 87.0353 155.141 86.935 153.229 86.9218C152.601 84.5654 151.432 81.8772 150.725 79.4947C149.183 79.6093 146.887 79.4997 145.291 79.5338C144.288 79.5552 141.528 79.5814 140.664 79.4517C140.418 80.0097 140.044 81.2798 139.829 81.917C139.265 83.5919 138.693 85.2637 138.112 86.9324L135.018 86.9544C135.208 86.094 136.03 83.9125 136.352 82.9893L139.106 75.1158L142.197 66.2725C142.653 64.9683 143.236 63.0719 143.775 61.8506L145.092 61.8215C146.009 61.81 146.74 61.8074 147.654 61.8698C148.328 63.2865 148.919 65.2521 149.451 66.7712L152.623 75.8582L155.192 83.1776C155.552 84.2201 156.233 86.0447 156.413 87.0334C158.121 84.2756 159.863 81.5394 161.64 78.8256C162.615 77.3135 163.651 75.6182 164.696 74.1733C164.364 73.6325 164.005 73.0857 163.655 72.5558C161.314 69.0119 159.076 65.3864 156.727 61.8497C157.932 61.8287 159.011 61.7812 160.217 61.8567C160.237 61.8707 160.258 61.8846 160.279 61.8985L160.313 61.9243C161.08 62.4874 165.91 70.472 166.701 71.8445C168.258 69.1931 170.031 66.632 171.665 64.0244C172.111 63.312 172.608 62.4996 173.14 61.8594ZM141.359 76.8277C142.748 76.8301 144.195 76.8534 145.578 76.8228L149.999 76.8431C149.515 75.5628 145.896 64.8118 145.614 64.6177C144.603 67.3972 143.703 70.2729 142.687 73.055C142.281 74.1704 141.806 75.7803 141.359 76.8277Z" fill="#009373"/>
    <path d="M33.6109 61.8775C34.3961 61.7914 36.018 61.7954 36.8186 61.8237C36.5052 62.7329 36.1243 64.4945 35.8878 65.4594C35.5275 66.5317 35.0479 68.6248 34.7648 69.7451L32.8709 77.1476L31.2487 83.463C31.0283 84.3153 30.5086 86.121 30.4129 86.9349C29.2662 86.9387 28.1194 86.9337 26.9727 86.9199C25.6578 82.0141 24.3772 77.0992 23.1308 72.1756C22.5903 70.0391 21.7367 67.049 21.3582 64.9377C21.0074 66.7927 20.4519 68.7545 19.9774 70.5914C19.1824 73.7328 18.3574 76.8667 17.5028 79.9926C16.9245 82.1229 16.155 84.7638 15.6826 86.8911C14.5245 86.9668 13.3629 86.9716 12.2043 86.9053C10.9766 81.2497 9.38148 75.0428 7.9794 69.3972L6.82368 64.5849C6.69828 64.0752 6.20432 62.3689 6.22526 61.9155L6.38219 61.823C7.35961 61.78 8.45202 61.8102 9.4274 61.8651C10.6245 66.7801 11.5989 71.9218 12.7888 76.8575C13.3071 79.0075 13.6451 81.2785 14.2766 83.4063C14.3859 82.1175 14.9848 79.8954 15.3165 78.5653C15.9718 75.8864 16.6556 73.2146 17.3679 70.5503L18.7398 65.2582C18.9991 64.2493 19.3257 62.8073 19.6851 61.8653C20.789 61.7835 22.1244 61.8062 23.2264 61.8488C23.4888 63.2 24.1418 65.3917 24.5059 66.8194L27.0065 76.7399C27.5362 78.8467 28.186 81.2372 28.5906 83.3491C29.069 81.803 29.6405 78.7852 30.0179 77.1134C30.8193 73.5965 31.6463 70.0856 32.4987 66.5808C32.7995 65.3111 33.2166 62.9715 33.6109 61.8775Z" fill="#009373"/>
    <path d="M115.145 29.0915C121.597 28.8334 126.144 29.5868 131.906 32.8201C133.042 33.4572 137.534 36.4728 137.831 37.5741C137.677 38.1491 134.523 41.1545 133.897 41.777C129.938 37.9247 125.565 35.5974 120.007 35.0103C119.757 34.9585 119.312 34.963 119.041 34.9542C111.998 34.7247 106.451 36.8782 101.401 41.7896C100.073 40.4046 98.6397 38.9841 97.3633 37.5646C102.155 32.5814 108.286 29.7789 115.145 29.0915Z" fill="#009373"/>
    <path d="M76.6737 29.1167C77.8963 29.0742 79.5669 29.1341 80.8279 29.1299C82.4218 29.1245 84.9205 29.0309 86.3991 29.2467C87.134 29.3542 87.8453 29.5861 88.5025 29.9324C91.4334 31.502 91.8637 35.8193 90.4275 38.5581C89.676 39.9905 88.3941 40.7565 86.877 41.2009C87.4353 42.1061 88.092 43.4446 88.5943 44.4049C89.6726 46.4589 90.7284 48.5246 91.7614 50.6017C90.8856 50.7121 89.8459 50.625 88.9028 50.6919C88.671 50.2081 88.335 49.628 88.0749 49.1539C86.921 46.8833 85.1379 43.569 84.1612 41.3225C82.9161 41.4404 80.5124 41.3927 79.2227 41.3655C79.3652 44.3807 79.1971 47.5909 79.3192 50.6775C78.4333 50.6589 77.5474 50.649 76.6614 50.648C76.4723 44.9982 76.7062 39.253 76.6048 33.5949C76.5794 32.1793 76.5491 30.5103 76.6737 29.1167ZM79.2343 39.1423C81.0869 39.0855 82.9537 39.1602 84.8083 39.1501C85.942 39.1439 86.5645 39.1467 87.4763 38.3927C87.9036 37.9158 88.2942 37.3462 88.3 36.6922C88.3137 35.1708 88.6733 33.3093 87.4146 32.1947C87.0684 31.8918 86.6525 31.6795 86.2042 31.5768C85.1211 31.3214 80.5754 31.4681 79.2457 31.4547L79.2589 36.3393C79.2597 37.149 79.2949 38.362 79.2343 39.1423Z" fill="#009373"/>
    <path d="M43.1388 29.0286C44.5697 29.3133 48.571 29.1396 50.2665 29.119C54.6898 29.0652 57.5776 30.3213 57.729 35.2675C57.847 39.1254 55.1679 41.6713 51.3113 41.4975C50.3768 41.4555 49.2167 41.4963 48.239 41.4911L45.7372 41.493C45.9196 44.3898 45.6344 47.6846 45.8358 50.6855C44.9346 50.6552 44.033 50.6371 43.1313 50.6313C43.0096 49.6919 43.0621 47.5212 43.0615 46.5252L43.0594 38.9101L43.0603 32.327C43.0605 31.5915 43.0161 29.6279 43.1388 29.0286ZM45.7395 39.1745C47.5834 39.0812 49.4578 39.2503 51.3078 39.1864C52.5449 39.1436 53.0245 39.1418 54.0154 38.372C55.1056 37.0381 54.8276 36.3666 54.8835 34.7872C54.9583 32.6762 53.6839 31.4349 51.5974 31.4482C49.6427 31.4058 47.7022 31.4867 45.7665 31.4497L45.7692 36.4115C45.7696 37.1898 45.8049 38.4328 45.7395 39.1745Z" fill="#009373"/>
    <path d="M63.3234 61.81C68.1871 61.8837 73.3424 61.6803 78.1638 61.8528L78.1236 64.4803C77.4821 64.5081 76.8047 64.5024 76.1618 64.4933C72.8215 64.4465 69.4587 64.5541 66.1213 64.4765C66.2181 66.8564 66.1376 69.2737 66.1717 71.6571C66.1776 72.0684 66.1634 72.4271 66.1002 72.8351C67.0378 72.7792 68.1534 72.837 69.1094 72.8271C71.7387 72.7998 74.4301 72.9049 77.0539 72.7624C77.0421 73.5493 77.0549 74.3693 77.0573 75.1585C76.9762 75.5406 76.9057 75.5992 76.4651 75.6055C73.811 75.6433 71.1543 75.5843 68.4997 75.6124C67.7018 75.6208 66.9112 75.6452 66.1156 75.5669C66.2866 79.2851 66.0443 83.1797 66.2283 86.942L63.1414 86.937C63.0338 85.2014 63.0667 83.0917 63.0656 81.3475L63.065 72.9447L63.0676 66.1899C63.0685 65.453 62.9586 62.2612 63.3234 61.81Z" fill="#009373"/>
    <path d="M116.58 40.6723C120.392 40.4439 124.173 41.4886 127.329 43.6425C128.22 44.2529 129.186 45.1083 130.036 45.81C128.777 46.9126 127.05 48.7729 125.809 50.0108C123.79 47.9841 121.636 46.9832 118.824 46.6522C118.515 46.6315 118.205 46.6162 117.895 46.6061C114.488 46.5088 111.934 47.7805 109.527 50.0547L105.43 45.7945C108.459 42.6391 112.292 41.1018 116.58 40.6723Z" fill="#009373"/>
    <path d="M73.028 29.0933L73.2014 29.1C73.4929 29.4221 73.4084 30.8188 73.471 31.4592L62.8618 31.4528C62.93 33.4516 62.9542 36.6017 62.8644 38.5839C63.1643 38.5661 63.4448 38.5725 63.7435 38.5711C66.752 38.5572 69.7902 38.6468 72.7953 38.534C72.7689 39.2607 72.7846 40.2371 72.8949 40.9456C69.8651 40.8225 65.9503 40.9326 62.8571 40.9342C62.9437 43.1624 62.9265 46.0796 62.8827 48.3222C63.7956 48.2278 66.3098 48.307 67.3628 48.3114C69.3525 48.3135 71.4285 48.3486 73.4069 48.2424C73.3846 49.087 73.4017 49.8403 73.4269 50.6838C69.2836 50.5279 64.3772 50.6158 60.2139 50.6546C60.01 45.0939 60.2502 39.4238 60.1512 33.8538C60.1244 32.3398 60.1055 30.611 60.2145 29.113C64.3914 29.0084 68.8047 29.2652 73.028 29.0933Z" fill="#009373"/>
    <path d="M36.5291 29.0933C37.391 29.0966 38.3297 29.1237 39.1813 29.0314L39.1923 31.5926L39.1939 38.0458C39.1944 43.8793 39.8903 50.5976 31.9351 51.0171C26.1568 51.3216 23.6452 48.3478 23.6437 42.6043C23.6432 41.1289 23.4993 29.4303 23.8223 29.0842C24.6505 29.1005 25.4791 29.0879 26.3066 29.0465L26.2918 38.5756C26.291 40.9799 25.965 45.2925 27.479 47.224C28.8843 49.0166 33.1157 49.1747 34.8019 47.6374C36.9328 45.6947 36.3928 42.362 36.4686 39.7673C36.5699 36.2678 36.2975 32.5918 36.5291 29.0933Z" fill="#009373"/>
    <path d="M12.302 28.8278C15.9339 28.5622 18.6399 29.3175 20.8693 32.3499C20.1551 32.7166 19.5008 33.2406 18.88 33.7458C17.15 31.8828 15.9972 31.0271 13.3046 31.1106C10.8134 31.1879 9.06934 32.1726 9.18141 34.9347C9.29682 37.7792 13.6296 38.2251 15.8299 38.7629C20.9045 40.0031 22.4805 44.5763 19.4674 48.734C18.4848 50.0823 16.0247 50.9176 14.2551 51.0106C13.4278 51.0516 12.5985 51.0045 11.7811 50.8701C9.29694 50.4529 7.34555 49.3065 5.87305 47.2498C6.31824 46.8151 7.26793 46.0716 7.783 45.6256C9.76711 47.9525 11.7404 49.0868 14.892 48.5807C17.2003 48.21 18.6223 46.3023 18.2523 43.9988C17.7909 41.1253 14.0498 41.0663 11.8655 40.4024C9.40484 39.6712 7.08762 38.59 6.65141 35.7999C6.42284 34.3379 6.59009 32.5968 7.46481 31.356C8.61934 29.7183 10.4267 29.1574 12.302 28.8278Z" fill="#009373"/>
    <path d="M38.121 61.7919C41.4039 61.8469 44.8097 61.7414 48.0599 61.8551C48.0328 62.7743 48.0191 63.4434 48.0805 64.3606C46.9017 64.325 45.5836 64.3533 44.3941 64.3525C44.5761 67.746 44.4224 71.9986 44.4464 75.4859C44.463 77.8939 44.5704 82.0951 44.3945 84.342C45.4123 84.2523 46.8836 84.3225 48.0127 84.2744C48.0044 85.214 48.0292 85.9991 48.0816 86.9379C44.6923 86.9249 41.2885 86.9683 37.9015 86.9249L37.8783 84.3245C38.9937 84.3274 40.3394 84.3621 41.4328 84.2819C41.2975 82.0471 41.3768 79.0613 41.3761 76.7882L41.395 64.3436C40.2442 64.3665 39.0587 64.3508 37.9052 64.3494C37.9215 63.6324 37.8266 62.8324 37.8838 62.1169C37.9004 61.9086 37.9768 61.8918 38.121 61.7919Z" fill="#009373"/>
    <path d="M80.586 61.798C83.8423 61.8603 87.219 61.7338 90.447 61.8571C90.3903 62.7365 90.3641 63.4883 90.4875 64.3613C89.2872 64.3259 87.9566 64.3528 86.7465 64.3512C86.9291 68.0897 86.783 72.8514 86.7852 76.6806L86.7905 81.4025C86.7918 82.2566 86.8336 83.5096 86.7203 84.3305C87.8952 84.2623 89.1316 84.3364 90.3717 84.2707C90.3844 84.7348 90.4867 86.5958 90.392 86.895L90.2323 86.9381L80.2444 86.9258C80.2145 86.0324 80.1843 85.1884 80.2031 84.2941C81.2767 84.3226 82.7608 84.3584 83.8048 84.2851C83.7736 83.3182 83.7475 82.3214 83.7567 81.3542C83.8102 75.696 83.6552 69.9986 83.7861 64.3443C82.6058 64.3556 81.4255 64.3562 80.2452 64.3463C80.272 63.6292 80.1499 62.7571 80.2799 62.0499C80.3106 61.8825 80.413 61.8788 80.586 61.798Z" fill="#009373"/>
    <path d="M49.6172 74.388C50.3793 74.31 52.1298 74.36 52.9494 74.3602C55.0356 74.352 57.1218 74.3603 59.208 74.3852C59.1922 75.0917 59.2284 76.9358 59.1162 77.4912C58.3498 77.6212 56.6594 77.5667 55.798 77.5668L49.6613 77.5618C49.5432 76.6233 49.5828 75.3304 49.6172 74.388Z" fill="#009373"/>
</svg>
